%TF.GenerationSoftware,KiCad,Pcbnew,6.0.11+dfsg-1*%
%TF.CreationDate,2024-02-24T16:55:35-05:00*%
%TF.ProjectId,usb-c-expresscard,7573622d-632d-4657-9870-726573736361,rev?*%
%TF.SameCoordinates,Original*%
%TF.FileFunction,Legend,Top*%
%TF.FilePolarity,Positive*%
%FSLAX46Y46*%
G04 Gerber Fmt 4.6, Leading zero omitted, Abs format (unit mm)*
G04 Created by KiCad (PCBNEW 6.0.11+dfsg-1) date 2024-02-24 16:55:35*
%MOMM*%
%LPD*%
G01*
G04 APERTURE LIST*
%ADD10C,0.150000*%
%ADD11C,0.120000*%
%ADD12C,0.200000*%
G04 APERTURE END LIST*
D10*
X150750000Y-103750000D02*
X144750000Y-103750000D01*
X144750000Y-103750000D02*
X144750000Y-95250000D01*
X144750000Y-95250000D02*
X150750000Y-95250000D01*
X150750000Y-95250000D02*
X150750000Y-103750000D01*
%TO.C,J1*%
X144666666Y-89452380D02*
X144666666Y-90166666D01*
X144619047Y-90309523D01*
X144523809Y-90404761D01*
X144380952Y-90452380D01*
X144285714Y-90452380D01*
X145666666Y-90452380D02*
X145095238Y-90452380D01*
X145380952Y-90452380D02*
X145380952Y-89452380D01*
X145285714Y-89595238D01*
X145190476Y-89690476D01*
X145095238Y-89738095D01*
%TO.C,C3*%
X167833333Y-104857142D02*
X167785714Y-104904761D01*
X167642857Y-104952380D01*
X167547619Y-104952380D01*
X167404761Y-104904761D01*
X167309523Y-104809523D01*
X167261904Y-104714285D01*
X167214285Y-104523809D01*
X167214285Y-104380952D01*
X167261904Y-104190476D01*
X167309523Y-104095238D01*
X167404761Y-104000000D01*
X167547619Y-103952380D01*
X167642857Y-103952380D01*
X167785714Y-104000000D01*
X167833333Y-104047619D01*
X168166666Y-103952380D02*
X168785714Y-103952380D01*
X168452380Y-104333333D01*
X168595238Y-104333333D01*
X168690476Y-104380952D01*
X168738095Y-104428571D01*
X168785714Y-104523809D01*
X168785714Y-104761904D01*
X168738095Y-104857142D01*
X168690476Y-104904761D01*
X168595238Y-104952380D01*
X168309523Y-104952380D01*
X168214285Y-104904761D01*
X168166666Y-104857142D01*
%TO.C,R2*%
X146920833Y-102632380D02*
X146587500Y-102156190D01*
X146349404Y-102632380D02*
X146349404Y-101632380D01*
X146730357Y-101632380D01*
X146825595Y-101680000D01*
X146873214Y-101727619D01*
X146920833Y-101822857D01*
X146920833Y-101965714D01*
X146873214Y-102060952D01*
X146825595Y-102108571D01*
X146730357Y-102156190D01*
X146349404Y-102156190D01*
X147301785Y-101727619D02*
X147349404Y-101680000D01*
X147444642Y-101632380D01*
X147682738Y-101632380D01*
X147777976Y-101680000D01*
X147825595Y-101727619D01*
X147873214Y-101822857D01*
X147873214Y-101918095D01*
X147825595Y-102060952D01*
X147254166Y-102632380D01*
X147873214Y-102632380D01*
%TO.C,R5*%
X177833333Y-102452380D02*
X177500000Y-101976190D01*
X177261904Y-102452380D02*
X177261904Y-101452380D01*
X177642857Y-101452380D01*
X177738095Y-101500000D01*
X177785714Y-101547619D01*
X177833333Y-101642857D01*
X177833333Y-101785714D01*
X177785714Y-101880952D01*
X177738095Y-101928571D01*
X177642857Y-101976190D01*
X177261904Y-101976190D01*
X178738095Y-101452380D02*
X178261904Y-101452380D01*
X178214285Y-101928571D01*
X178261904Y-101880952D01*
X178357142Y-101833333D01*
X178595238Y-101833333D01*
X178690476Y-101880952D01*
X178738095Y-101928571D01*
X178785714Y-102023809D01*
X178785714Y-102261904D01*
X178738095Y-102357142D01*
X178690476Y-102404761D01*
X178595238Y-102452380D01*
X178357142Y-102452380D01*
X178261904Y-102404761D01*
X178214285Y-102357142D01*
%TO.C,C1*%
X154333333Y-97857142D02*
X154285714Y-97904761D01*
X154142857Y-97952380D01*
X154047619Y-97952380D01*
X153904761Y-97904761D01*
X153809523Y-97809523D01*
X153761904Y-97714285D01*
X153714285Y-97523809D01*
X153714285Y-97380952D01*
X153761904Y-97190476D01*
X153809523Y-97095238D01*
X153904761Y-97000000D01*
X154047619Y-96952380D01*
X154142857Y-96952380D01*
X154285714Y-97000000D01*
X154333333Y-97047619D01*
X155285714Y-97952380D02*
X154714285Y-97952380D01*
X155000000Y-97952380D02*
X155000000Y-96952380D01*
X154904761Y-97095238D01*
X154809523Y-97190476D01*
X154714285Y-97238095D01*
%TO.C,U2*%
X179738095Y-90702380D02*
X179738095Y-91511904D01*
X179785714Y-91607142D01*
X179833333Y-91654761D01*
X179928571Y-91702380D01*
X180119047Y-91702380D01*
X180214285Y-91654761D01*
X180261904Y-91607142D01*
X180309523Y-91511904D01*
X180309523Y-90702380D01*
X180738095Y-90797619D02*
X180785714Y-90750000D01*
X180880952Y-90702380D01*
X181119047Y-90702380D01*
X181214285Y-90750000D01*
X181261904Y-90797619D01*
X181309523Y-90892857D01*
X181309523Y-90988095D01*
X181261904Y-91130952D01*
X180690476Y-91702380D01*
X181309523Y-91702380D01*
X176857142Y-96202380D02*
X177428571Y-96202380D01*
X177142857Y-97202380D02*
X177142857Y-96202380D01*
X177761904Y-97202380D02*
X177761904Y-96202380D01*
X178142857Y-96202380D01*
X178238095Y-96250000D01*
X178285714Y-96297619D01*
X178333333Y-96392857D01*
X178333333Y-96535714D01*
X178285714Y-96630952D01*
X178238095Y-96678571D01*
X178142857Y-96726190D01*
X177761904Y-96726190D01*
X178714285Y-97154761D02*
X178857142Y-97202380D01*
X179095238Y-97202380D01*
X179190476Y-97154761D01*
X179238095Y-97107142D01*
X179285714Y-97011904D01*
X179285714Y-96916666D01*
X179238095Y-96821428D01*
X179190476Y-96773809D01*
X179095238Y-96726190D01*
X178904761Y-96678571D01*
X178809523Y-96630952D01*
X178761904Y-96583333D01*
X178714285Y-96488095D01*
X178714285Y-96392857D01*
X178761904Y-96297619D01*
X178809523Y-96250000D01*
X178904761Y-96202380D01*
X179142857Y-96202380D01*
X179285714Y-96250000D01*
X179666666Y-96297619D02*
X179714285Y-96250000D01*
X179809523Y-96202380D01*
X180047619Y-96202380D01*
X180142857Y-96250000D01*
X180190476Y-96297619D01*
X180238095Y-96392857D01*
X180238095Y-96488095D01*
X180190476Y-96630952D01*
X179619047Y-97202380D01*
X180238095Y-97202380D01*
X181142857Y-96202380D02*
X180666666Y-96202380D01*
X180619047Y-96678571D01*
X180666666Y-96630952D01*
X180761904Y-96583333D01*
X181000000Y-96583333D01*
X181095238Y-96630952D01*
X181142857Y-96678571D01*
X181190476Y-96773809D01*
X181190476Y-97011904D01*
X181142857Y-97107142D01*
X181095238Y-97154761D01*
X181000000Y-97202380D01*
X180761904Y-97202380D01*
X180666666Y-97154761D01*
X180619047Y-97107142D01*
X181761904Y-96630952D02*
X181666666Y-96583333D01*
X181619047Y-96535714D01*
X181571428Y-96440476D01*
X181571428Y-96392857D01*
X181619047Y-96297619D01*
X181666666Y-96250000D01*
X181761904Y-96202380D01*
X181952380Y-96202380D01*
X182047619Y-96250000D01*
X182095238Y-96297619D01*
X182142857Y-96392857D01*
X182142857Y-96440476D01*
X182095238Y-96535714D01*
X182047619Y-96583333D01*
X181952380Y-96630952D01*
X181761904Y-96630952D01*
X181666666Y-96678571D01*
X181619047Y-96726190D01*
X181571428Y-96821428D01*
X181571428Y-97011904D01*
X181619047Y-97107142D01*
X181666666Y-97154761D01*
X181761904Y-97202380D01*
X181952380Y-97202380D01*
X182047619Y-97154761D01*
X182095238Y-97107142D01*
X182142857Y-97011904D01*
X182142857Y-96821428D01*
X182095238Y-96726190D01*
X182047619Y-96678571D01*
X181952380Y-96630952D01*
X182523809Y-96297619D02*
X182571428Y-96250000D01*
X182666666Y-96202380D01*
X182904761Y-96202380D01*
X183000000Y-96250000D01*
X183047619Y-96297619D01*
X183095238Y-96392857D01*
X183095238Y-96488095D01*
X183047619Y-96630952D01*
X182476190Y-97202380D01*
X183095238Y-97202380D01*
X184047619Y-97202380D02*
X183476190Y-97202380D01*
X183761904Y-97202380D02*
X183761904Y-96202380D01*
X183666666Y-96345238D01*
X183571428Y-96440476D01*
X183476190Y-96488095D01*
X179141263Y-90529472D02*
X179141263Y-90767568D01*
X178903167Y-90672330D02*
X179141263Y-90767568D01*
X179379358Y-90672330D01*
X178998405Y-90958044D02*
X179141263Y-90767568D01*
X179284120Y-90958044D01*
%TO.C,J2*%
X191166666Y-101452380D02*
X191166666Y-102166666D01*
X191119047Y-102309523D01*
X191023809Y-102404761D01*
X190880952Y-102452380D01*
X190785714Y-102452380D01*
X191595238Y-101547619D02*
X191642857Y-101500000D01*
X191738095Y-101452380D01*
X191976190Y-101452380D01*
X192071428Y-101500000D01*
X192119047Y-101547619D01*
X192166666Y-101642857D01*
X192166666Y-101738095D01*
X192119047Y-101880952D01*
X191547619Y-102452380D01*
X192166666Y-102452380D01*
%TO.C,C2*%
X156833333Y-97857142D02*
X156785714Y-97904761D01*
X156642857Y-97952380D01*
X156547619Y-97952380D01*
X156404761Y-97904761D01*
X156309523Y-97809523D01*
X156261904Y-97714285D01*
X156214285Y-97523809D01*
X156214285Y-97380952D01*
X156261904Y-97190476D01*
X156309523Y-97095238D01*
X156404761Y-97000000D01*
X156547619Y-96952380D01*
X156642857Y-96952380D01*
X156785714Y-97000000D01*
X156833333Y-97047619D01*
X157214285Y-97047619D02*
X157261904Y-97000000D01*
X157357142Y-96952380D01*
X157595238Y-96952380D01*
X157690476Y-97000000D01*
X157738095Y-97047619D01*
X157785714Y-97142857D01*
X157785714Y-97238095D01*
X157738095Y-97380952D01*
X157166666Y-97952380D01*
X157785714Y-97952380D01*
%TO.C,R1*%
X146920833Y-99882380D02*
X146587500Y-99406190D01*
X146349404Y-99882380D02*
X146349404Y-98882380D01*
X146730357Y-98882380D01*
X146825595Y-98930000D01*
X146873214Y-98977619D01*
X146920833Y-99072857D01*
X146920833Y-99215714D01*
X146873214Y-99310952D01*
X146825595Y-99358571D01*
X146730357Y-99406190D01*
X146349404Y-99406190D01*
X147873214Y-99882380D02*
X147301785Y-99882380D01*
X147587500Y-99882380D02*
X147587500Y-98882380D01*
X147492261Y-99025238D01*
X147397023Y-99120476D01*
X147301785Y-99168095D01*
%TO.C,R6*%
X180833333Y-102452380D02*
X180500000Y-101976190D01*
X180261904Y-102452380D02*
X180261904Y-101452380D01*
X180642857Y-101452380D01*
X180738095Y-101500000D01*
X180785714Y-101547619D01*
X180833333Y-101642857D01*
X180833333Y-101785714D01*
X180785714Y-101880952D01*
X180738095Y-101928571D01*
X180642857Y-101976190D01*
X180261904Y-101976190D01*
X181690476Y-101452380D02*
X181500000Y-101452380D01*
X181404761Y-101500000D01*
X181357142Y-101547619D01*
X181261904Y-101690476D01*
X181214285Y-101880952D01*
X181214285Y-102261904D01*
X181261904Y-102357142D01*
X181309523Y-102404761D01*
X181404761Y-102452380D01*
X181595238Y-102452380D01*
X181690476Y-102404761D01*
X181738095Y-102357142D01*
X181785714Y-102261904D01*
X181785714Y-102023809D01*
X181738095Y-101928571D01*
X181690476Y-101880952D01*
X181595238Y-101833333D01*
X181404761Y-101833333D01*
X181309523Y-101880952D01*
X181261904Y-101928571D01*
X181214285Y-102023809D01*
%TO.C,L1*%
X160493333Y-93682380D02*
X160017142Y-93682380D01*
X160017142Y-92682380D01*
X161350476Y-93682380D02*
X160779047Y-93682380D01*
X161064761Y-93682380D02*
X161064761Y-92682380D01*
X160969523Y-92825238D01*
X160874285Y-92920476D01*
X160779047Y-92968095D01*
%TO.C,C5*%
X173333333Y-90107142D02*
X173285714Y-90154761D01*
X173142857Y-90202380D01*
X173047619Y-90202380D01*
X172904761Y-90154761D01*
X172809523Y-90059523D01*
X172761904Y-89964285D01*
X172714285Y-89773809D01*
X172714285Y-89630952D01*
X172761904Y-89440476D01*
X172809523Y-89345238D01*
X172904761Y-89250000D01*
X173047619Y-89202380D01*
X173142857Y-89202380D01*
X173285714Y-89250000D01*
X173333333Y-89297619D01*
X174238095Y-89202380D02*
X173761904Y-89202380D01*
X173714285Y-89678571D01*
X173761904Y-89630952D01*
X173857142Y-89583333D01*
X174095238Y-89583333D01*
X174190476Y-89630952D01*
X174238095Y-89678571D01*
X174285714Y-89773809D01*
X174285714Y-90011904D01*
X174238095Y-90107142D01*
X174190476Y-90154761D01*
X174095238Y-90202380D01*
X173857142Y-90202380D01*
X173761904Y-90154761D01*
X173714285Y-90107142D01*
%TO.C,C4*%
X168333333Y-90157142D02*
X168285714Y-90204761D01*
X168142857Y-90252380D01*
X168047619Y-90252380D01*
X167904761Y-90204761D01*
X167809523Y-90109523D01*
X167761904Y-90014285D01*
X167714285Y-89823809D01*
X167714285Y-89680952D01*
X167761904Y-89490476D01*
X167809523Y-89395238D01*
X167904761Y-89300000D01*
X168047619Y-89252380D01*
X168142857Y-89252380D01*
X168285714Y-89300000D01*
X168333333Y-89347619D01*
X169190476Y-89585714D02*
X169190476Y-90252380D01*
X168952380Y-89204761D02*
X168714285Y-89919047D01*
X169333333Y-89919047D01*
%TO.C,R4*%
X160833333Y-104952380D02*
X160500000Y-104476190D01*
X160261904Y-104952380D02*
X160261904Y-103952380D01*
X160642857Y-103952380D01*
X160738095Y-104000000D01*
X160785714Y-104047619D01*
X160833333Y-104142857D01*
X160833333Y-104285714D01*
X160785714Y-104380952D01*
X160738095Y-104428571D01*
X160642857Y-104476190D01*
X160261904Y-104476190D01*
X161690476Y-104285714D02*
X161690476Y-104952380D01*
X161452380Y-103904761D02*
X161214285Y-104619047D01*
X161833333Y-104619047D01*
%TO.C,R3*%
X164333333Y-104952380D02*
X164000000Y-104476190D01*
X163761904Y-104952380D02*
X163761904Y-103952380D01*
X164142857Y-103952380D01*
X164238095Y-104000000D01*
X164285714Y-104047619D01*
X164333333Y-104142857D01*
X164333333Y-104285714D01*
X164285714Y-104380952D01*
X164238095Y-104428571D01*
X164142857Y-104476190D01*
X163761904Y-104476190D01*
X164666666Y-103952380D02*
X165285714Y-103952380D01*
X164952380Y-104333333D01*
X165095238Y-104333333D01*
X165190476Y-104380952D01*
X165238095Y-104428571D01*
X165285714Y-104523809D01*
X165285714Y-104761904D01*
X165238095Y-104857142D01*
X165190476Y-104904761D01*
X165095238Y-104952380D01*
X164809523Y-104952380D01*
X164714285Y-104904761D01*
X164666666Y-104857142D01*
%TO.C,U1*%
X158238095Y-98562380D02*
X158238095Y-99371904D01*
X158285714Y-99467142D01*
X158333333Y-99514761D01*
X158428571Y-99562380D01*
X158619047Y-99562380D01*
X158714285Y-99514761D01*
X158761904Y-99467142D01*
X158809523Y-99371904D01*
X158809523Y-98562380D01*
X159809523Y-99562380D02*
X159238095Y-99562380D01*
X159523809Y-99562380D02*
X159523809Y-98562380D01*
X159428571Y-98705238D01*
X159333333Y-98800476D01*
X159238095Y-98848095D01*
D11*
%TO.C,J1*%
X141834629Y-107150000D02*
G75*
G03*
X141834629Y-107150000I-134629J0D01*
G01*
%TO.C,C3*%
X168760000Y-101853733D02*
X168760000Y-102146267D01*
X167740000Y-101853733D02*
X167740000Y-102146267D01*
%TO.C,R2*%
X147342224Y-100227500D02*
X146832776Y-100227500D01*
X147342224Y-101272500D02*
X146832776Y-101272500D01*
%TO.C,R5*%
X177477500Y-99082776D02*
X177477500Y-99592224D01*
X178522500Y-99082776D02*
X178522500Y-99592224D01*
%TO.C,C1*%
X155010000Y-94896267D02*
X155010000Y-94603733D01*
X153990000Y-94896267D02*
X153990000Y-94603733D01*
D12*
%TO.C,J2*%
X187607500Y-97740000D02*
G75*
G03*
X187607500Y-97740000I-100000J0D01*
G01*
D11*
%TO.C,C2*%
X156490000Y-94896267D02*
X156490000Y-94603733D01*
X157510000Y-94896267D02*
X157510000Y-94603733D01*
%TO.C,R1*%
X147342224Y-98522500D02*
X146832776Y-98522500D01*
X147342224Y-97477500D02*
X146832776Y-97477500D01*
%TO.C,R6*%
X180477500Y-99082776D02*
X180477500Y-99592224D01*
X181522500Y-99082776D02*
X181522500Y-99592224D01*
%TO.C,L1*%
X162000000Y-83800000D02*
X159500000Y-83800000D01*
X159500000Y-92200000D02*
X162000000Y-92200000D01*
%TO.C,C5*%
X171490000Y-99585000D02*
X176010000Y-99585000D01*
X171490000Y-91350000D02*
X171490000Y-99585000D01*
X176010000Y-99585000D02*
X176010000Y-91350000D01*
%TO.C,kibuzzard-65DA32A4*%
G36*
X149859933Y-99117732D02*
G01*
X149931350Y-99134682D01*
X149987815Y-99162656D01*
X150042928Y-99223738D01*
X150061299Y-99306523D01*
X150042230Y-99390859D01*
X149985024Y-99452871D01*
X149927285Y-99481121D01*
X149855764Y-99498071D01*
X149770464Y-99503721D01*
X149726436Y-99503721D01*
X149640136Y-99497726D01*
X149568926Y-99480570D01*
X149512805Y-99452251D01*
X149458157Y-99390704D01*
X149439941Y-99307764D01*
X149458390Y-99224358D01*
X149513735Y-99162656D01*
X149570511Y-99134407D01*
X149642444Y-99117457D01*
X149729536Y-99111807D01*
X149773564Y-99111807D01*
X149859933Y-99117732D01*
G37*
G36*
X149655742Y-101146179D02*
G01*
X149697910Y-101175247D01*
X149723955Y-101222763D01*
X149732637Y-101287798D01*
X149732637Y-101453989D01*
X149449243Y-101453989D01*
X149449243Y-101283457D01*
X149460405Y-101222065D01*
X149491411Y-101175557D01*
X149538695Y-101146256D01*
X149598691Y-101136489D01*
X149655742Y-101146179D01*
G37*
G36*
X149864722Y-97657632D02*
G01*
X149526758Y-97545391D01*
X149864722Y-97431909D01*
X149864722Y-97657632D01*
G37*
G36*
X150474923Y-102880137D02*
G01*
X150464434Y-102950848D01*
X150447065Y-103020191D01*
X150422982Y-103087497D01*
X150392419Y-103152119D01*
X150355668Y-103213433D01*
X150313085Y-103270850D01*
X150265078Y-103323817D01*
X150212112Y-103371823D01*
X150154695Y-103414407D01*
X150093380Y-103451157D01*
X150028758Y-103481721D01*
X149961452Y-103505804D01*
X149892110Y-103523173D01*
X149821399Y-103533662D01*
X149750000Y-103537170D01*
X149678601Y-103533662D01*
X149607890Y-103523173D01*
X149538548Y-103505804D01*
X149471242Y-103481721D01*
X149406620Y-103451157D01*
X149345305Y-103414407D01*
X149287888Y-103371823D01*
X149234922Y-103323817D01*
X149186915Y-103270850D01*
X149144332Y-103213433D01*
X149107581Y-103152119D01*
X149077018Y-103087497D01*
X149052935Y-103020191D01*
X149035566Y-102950848D01*
X149025077Y-102880137D01*
X149021569Y-102808739D01*
X149021569Y-102159683D01*
X149286152Y-102159683D01*
X149292181Y-102232133D01*
X149310268Y-102299002D01*
X149340413Y-102360291D01*
X149381823Y-102414379D01*
X149433706Y-102459647D01*
X149496062Y-102496096D01*
X149567203Y-102522796D01*
X149645441Y-102538815D01*
X149730776Y-102544155D01*
X149775425Y-102544155D01*
X149858899Y-102538436D01*
X149935691Y-102522107D01*
X150005798Y-102495166D01*
X150067431Y-102458510D01*
X150118797Y-102413035D01*
X150159897Y-102358740D01*
X150189870Y-102297349D01*
X150207853Y-102230583D01*
X150213848Y-102158442D01*
X150207784Y-102085648D01*
X150189594Y-102018572D01*
X150159277Y-101957214D01*
X150117798Y-101903230D01*
X150066122Y-101858271D01*
X150004248Y-101822339D01*
X149933624Y-101796156D01*
X149855696Y-101780447D01*
X149770464Y-101775210D01*
X149730156Y-101775210D01*
X149645166Y-101780550D01*
X149567134Y-101796570D01*
X149496062Y-101823269D01*
X149433706Y-101859718D01*
X149381823Y-101904987D01*
X149340413Y-101959075D01*
X149310268Y-102020363D01*
X149292181Y-102087232D01*
X149286152Y-102159683D01*
X149021569Y-102159683D01*
X149021569Y-101640024D01*
X149298555Y-101640024D01*
X150201445Y-101640024D01*
X150201445Y-101453989D01*
X149883325Y-101453989D01*
X149883325Y-101290898D01*
X149874816Y-101191576D01*
X149849288Y-101107757D01*
X149806741Y-101039441D01*
X149749449Y-100988970D01*
X149679686Y-100958688D01*
X149597451Y-100948594D01*
X149514743Y-100958981D01*
X149441492Y-100990142D01*
X149380798Y-101040604D01*
X149335762Y-101108894D01*
X149307856Y-101192222D01*
X149298555Y-101287798D01*
X149298555Y-101640024D01*
X149021569Y-101640024D01*
X149021569Y-100876660D01*
X149298555Y-100876660D01*
X149449243Y-100876660D01*
X149449243Y-100603809D01*
X150201445Y-100603809D01*
X150201445Y-100417773D01*
X149449243Y-100417773D01*
X149449243Y-100141201D01*
X149298555Y-100141201D01*
X149298555Y-100876660D01*
X149021569Y-100876660D01*
X149021569Y-99837344D01*
X149298555Y-99837344D01*
X149298555Y-100023379D01*
X150201445Y-100023379D01*
X150201445Y-99837344D01*
X149298555Y-99837344D01*
X149021569Y-99837344D01*
X149021569Y-99307764D01*
X149286152Y-99307764D01*
X149292181Y-99380214D01*
X149310268Y-99447083D01*
X149340413Y-99508372D01*
X149381823Y-99562460D01*
X149433706Y-99607728D01*
X149496062Y-99644177D01*
X149567203Y-99670877D01*
X149645441Y-99686896D01*
X149730776Y-99692236D01*
X149775425Y-99692236D01*
X149858899Y-99686518D01*
X149935691Y-99670188D01*
X150005798Y-99643247D01*
X150067431Y-99606591D01*
X150118797Y-99561116D01*
X150159897Y-99506821D01*
X150189870Y-99445430D01*
X150207853Y-99378664D01*
X150213848Y-99306523D01*
X150207784Y-99233729D01*
X150189594Y-99166653D01*
X150159277Y-99105295D01*
X150117798Y-99051311D01*
X150066122Y-99006352D01*
X150004248Y-98970420D01*
X149933624Y-98944237D01*
X149855696Y-98928528D01*
X149770464Y-98923291D01*
X149730156Y-98923291D01*
X149645166Y-98928631D01*
X149567134Y-98944651D01*
X149496062Y-98971350D01*
X149433706Y-99007799D01*
X149381823Y-99053068D01*
X149340413Y-99107156D01*
X149310268Y-99168444D01*
X149292181Y-99235313D01*
X149286152Y-99307764D01*
X149021569Y-99307764D01*
X149021569Y-98053887D01*
X149298555Y-98053887D01*
X149298555Y-98239302D01*
X149893867Y-98239302D01*
X149298555Y-98602070D01*
X149298555Y-98788106D01*
X150201445Y-98788106D01*
X150201445Y-98602070D01*
X149607373Y-98602070D01*
X150201445Y-98239922D01*
X150201445Y-98053887D01*
X149298555Y-98053887D01*
X149021569Y-98053887D01*
X149021569Y-97631587D01*
X149298555Y-97631587D01*
X150201445Y-97967690D01*
X150201445Y-97769873D01*
X150015410Y-97707861D01*
X150015410Y-97381680D01*
X150201445Y-97319048D01*
X150201445Y-97121231D01*
X149298555Y-97459194D01*
X149298555Y-97631587D01*
X149021569Y-97631587D01*
X149021569Y-97036895D01*
X149298555Y-97036895D01*
X150201445Y-97036895D01*
X150201445Y-96455845D01*
X150051997Y-96455845D01*
X150051997Y-96850859D01*
X149298555Y-96850859D01*
X149298555Y-97036895D01*
X149021569Y-97036895D01*
X149021569Y-96191261D01*
X149025077Y-96119863D01*
X149035566Y-96049152D01*
X149052935Y-95979809D01*
X149077018Y-95912503D01*
X149107581Y-95847881D01*
X149144332Y-95786567D01*
X149186915Y-95729150D01*
X149234922Y-95676183D01*
X149287888Y-95628177D01*
X149345305Y-95585593D01*
X149406620Y-95548843D01*
X149471242Y-95518279D01*
X149538548Y-95494196D01*
X149607890Y-95476827D01*
X149678601Y-95466338D01*
X149750000Y-95462830D01*
X149821399Y-95466338D01*
X149892110Y-95476827D01*
X149961452Y-95494196D01*
X150028758Y-95518279D01*
X150093380Y-95548843D01*
X150154695Y-95585593D01*
X150212112Y-95628177D01*
X150265078Y-95676183D01*
X150313085Y-95729150D01*
X150355668Y-95786567D01*
X150392419Y-95847881D01*
X150422982Y-95912503D01*
X150447065Y-95979809D01*
X150464434Y-96049152D01*
X150474923Y-96119863D01*
X150478431Y-96191261D01*
X150478431Y-102808739D01*
X150474923Y-102880137D01*
G37*
G36*
X149859933Y-101969651D02*
G01*
X149931350Y-101986601D01*
X149987815Y-102014575D01*
X150042928Y-102075657D01*
X150061299Y-102158442D01*
X150042230Y-102242778D01*
X149985024Y-102304790D01*
X149927285Y-102333040D01*
X149855764Y-102349990D01*
X149770464Y-102355640D01*
X149726436Y-102355640D01*
X149640136Y-102349645D01*
X149568926Y-102332489D01*
X149512805Y-102304170D01*
X149458157Y-102242623D01*
X149439941Y-102159683D01*
X149458390Y-102076277D01*
X149513735Y-102014575D01*
X149570511Y-101986325D01*
X149642444Y-101969376D01*
X149729536Y-101963726D01*
X149773564Y-101963726D01*
X149859933Y-101969651D01*
G37*
%TO.C,C4*%
X170760000Y-99635000D02*
X170760000Y-91400000D01*
X166240000Y-91400000D02*
X166240000Y-99635000D01*
X166240000Y-99635000D02*
X170760000Y-99635000D01*
%TO.C,R4*%
X161587500Y-102254724D02*
X161587500Y-101745276D01*
X160542500Y-102254724D02*
X160542500Y-101745276D01*
%TO.C,R3*%
X165022500Y-101745276D02*
X165022500Y-102254724D01*
X163977500Y-101745276D02*
X163977500Y-102254724D01*
%TO.C,U1*%
X160390000Y-94890000D02*
X160390000Y-95590000D01*
X164610000Y-94890000D02*
X164610000Y-95590000D01*
X160390000Y-99110000D02*
X160390000Y-98410000D01*
X163910000Y-99110000D02*
X164610000Y-99110000D01*
X161090000Y-99110000D02*
X160390000Y-99110000D01*
X161090000Y-94890000D02*
X160390000Y-94890000D01*
X163910000Y-94890000D02*
X164610000Y-94890000D01*
%TD*%
M02*
