%TF.GenerationSoftware,KiCad,Pcbnew,6.0.11+dfsg-1*%
%TF.CreationDate,2024-02-24T16:55:34-05:00*%
%TF.ProjectId,usb-c-expresscard,7573622d-632d-4657-9870-726573736361,rev?*%
%TF.SameCoordinates,Original*%
%TF.FileFunction,Paste,Top*%
%TF.FilePolarity,Positive*%
%FSLAX46Y46*%
G04 Gerber Fmt 4.6, Leading zero omitted, Abs format (unit mm)*
G04 Created by KiCad (PCBNEW 6.0.11+dfsg-1) date 2024-02-24 16:55:34*
%MOMM*%
%LPD*%
G01*
G04 APERTURE LIST*
G04 Aperture macros list*
%AMRoundRect*
0 Rectangle with rounded corners*
0 $1 Rounding radius*
0 $2 $3 $4 $5 $6 $7 $8 $9 X,Y pos of 4 corners*
0 Add a 4 corners polygon primitive as box body*
4,1,4,$2,$3,$4,$5,$6,$7,$8,$9,$2,$3,0*
0 Add four circle primitives for the rounded corners*
1,1,$1+$1,$2,$3*
1,1,$1+$1,$4,$5*
1,1,$1+$1,$6,$7*
1,1,$1+$1,$8,$9*
0 Add four rect primitives between the rounded corners*
20,1,$1+$1,$2,$3,$4,$5,0*
20,1,$1+$1,$4,$5,$6,$7,0*
20,1,$1+$1,$6,$7,$8,$9,0*
20,1,$1+$1,$8,$9,$2,$3,0*%
%AMFreePoly0*
4,1,5,1.000760,-0.247650,-1.000760,-0.247650,-1.000760,0.250190,1.000760,0.250190,1.000760,-0.247650,1.000760,-0.247650,$1*%
%AMFreePoly1*
4,1,5,1.000760,-0.248412,-1.000760,-0.248412,-1.000760,0.249428,1.000760,0.249428,1.000760,-0.248412,1.000760,-0.248412,$1*%
%AMFreePoly2*
4,1,5,1.000760,-0.249174,-1.000760,-0.249174,-1.000760,0.248666,1.000760,0.248666,1.000760,-0.249174,1.000760,-0.249174,$1*%
%AMFreePoly3*
4,1,5,1.000760,-0.249936,-1.000760,-0.249936,-1.000760,0.247904,1.000760,0.247904,1.000760,-0.249936,1.000760,-0.249936,$1*%
%AMFreePoly4*
4,1,5,1.000760,-0.248158,-1.000760,-0.248158,-1.000760,0.249682,1.000760,0.249682,1.000760,-0.248158,1.000760,-0.248158,$1*%
%AMFreePoly5*
4,1,5,1.000760,-0.248920,-1.000760,-0.248920,-1.000760,0.248920,1.000760,0.248920,1.000760,-0.248920,1.000760,-0.248920,$1*%
%AMFreePoly6*
4,1,5,1.000760,-0.249682,-1.000760,-0.249682,-1.000760,0.248158,1.000760,0.248158,1.000760,-0.249682,1.000760,-0.249682,$1*%
%AMFreePoly7*
4,1,5,1.000760,-0.247904,-1.000760,-0.247904,-1.000760,0.249936,1.000760,0.249936,1.000760,-0.247904,1.000760,-0.247904,$1*%
%AMFreePoly8*
4,1,5,1.000760,-0.248666,-1.000760,-0.248666,-1.000760,0.249174,1.000760,0.249174,1.000760,-0.248666,1.000760,-0.248666,$1*%
%AMFreePoly9*
4,1,5,1.000760,-0.249428,-1.000760,-0.249428,-1.000760,0.248412,1.000760,0.248412,1.000760,-0.249428,1.000760,-0.249428,$1*%
G04 Aperture macros list end*
%ADD10FreePoly0,180.000000*%
%ADD11FreePoly1,180.000000*%
%ADD12FreePoly2,180.000000*%
%ADD13FreePoly3,180.000000*%
%ADD14FreePoly4,180.000000*%
%ADD15FreePoly5,180.000000*%
%ADD16FreePoly6,180.000000*%
%ADD17FreePoly7,180.000000*%
%ADD18FreePoly8,180.000000*%
%ADD19FreePoly9,180.000000*%
%ADD20RoundRect,0.237500X-0.237500X0.300000X-0.237500X-0.300000X0.237500X-0.300000X0.237500X0.300000X0*%
%ADD21RoundRect,0.237500X0.250000X0.237500X-0.250000X0.237500X-0.250000X-0.237500X0.250000X-0.237500X0*%
%ADD22RoundRect,0.237500X-0.237500X0.250000X-0.237500X-0.250000X0.237500X-0.250000X0.237500X0.250000X0*%
%ADD23RoundRect,0.237500X0.237500X-0.300000X0.237500X0.300000X-0.237500X0.300000X-0.237500X-0.300000X0*%
%ADD24R,0.500126X0.279908*%
%ADD25R,0.900000X2.000000*%
%ADD26R,1.100000X0.600000*%
%ADD27R,1.100000X0.300000*%
%ADD28R,2.600000X8.200000*%
%ADD29RoundRect,0.250000X1.025000X-0.875000X1.025000X0.875000X-1.025000X0.875000X-1.025000X-0.875000X0*%
%ADD30RoundRect,0.237500X0.237500X-0.250000X0.237500X0.250000X-0.237500X0.250000X-0.237500X-0.250000X0*%
%ADD31RoundRect,0.087500X0.087500X0.325000X-0.087500X0.325000X-0.087500X-0.325000X0.087500X-0.325000X0*%
%ADD32RoundRect,0.087500X0.325000X0.087500X-0.325000X0.087500X-0.325000X-0.087500X0.325000X-0.087500X0*%
%ADD33RoundRect,0.238649X0.238648X0.238648X-0.238648X0.238648X-0.238648X-0.238648X0.238648X-0.238648X0*%
G04 APERTURE END LIST*
D10*
%TO.C,J1*%
X142500000Y-81498780D03*
D11*
X142500000Y-82499540D03*
D12*
X142500000Y-83500300D03*
D13*
X142500000Y-84501060D03*
D14*
X142500000Y-85499280D03*
D15*
X142500000Y-86500040D03*
D16*
X142500000Y-87500800D03*
D17*
X142500000Y-88499020D03*
D18*
X142500000Y-89499780D03*
D19*
X142500000Y-90500540D03*
D10*
X142500000Y-91498760D03*
D11*
X142500000Y-92499520D03*
D12*
X142500000Y-93500280D03*
D13*
X142500000Y-94501040D03*
D14*
X142500000Y-95499260D03*
D15*
X142500000Y-96500020D03*
D16*
X142500000Y-97500780D03*
D17*
X142500000Y-98499000D03*
D18*
X142500000Y-99499760D03*
D19*
X142500000Y-100500520D03*
D10*
X142500000Y-101498740D03*
D11*
X142500000Y-102499500D03*
D12*
X142500000Y-103500260D03*
D13*
X142500000Y-104501020D03*
D14*
X142500000Y-105499240D03*
D15*
X142500000Y-106500000D03*
%TD*%
D20*
%TO.C,C3*%
X168250000Y-101137500D03*
X168250000Y-102862500D03*
%TD*%
D21*
%TO.C,R2*%
X148000000Y-100750000D03*
X146175000Y-100750000D03*
%TD*%
D22*
%TO.C,R5*%
X178000000Y-98425000D03*
X178000000Y-100250000D03*
%TD*%
D23*
%TO.C,C1*%
X154500000Y-95612500D03*
X154500000Y-93887500D03*
%TD*%
D24*
%TO.C,U2*%
X179541277Y-92500000D03*
X179541277Y-92999999D03*
X179541277Y-93500000D03*
X179541277Y-94000000D03*
X179541277Y-94500001D03*
X179541277Y-95000000D03*
X181458723Y-95000000D03*
X181458723Y-94500001D03*
X181458723Y-94000000D03*
X181458723Y-93500000D03*
X181458723Y-92999999D03*
X181458723Y-92500000D03*
D25*
X180500000Y-93750000D03*
%TD*%
D26*
%TO.C,J2*%
X188667500Y-97700000D03*
X188667500Y-96900000D03*
D27*
X188667500Y-95750000D03*
X188667500Y-94750000D03*
X188667500Y-94250000D03*
X188667500Y-93250000D03*
D26*
X188667500Y-91300000D03*
X188667500Y-92100000D03*
D27*
X188667500Y-92750000D03*
X188667500Y-93750000D03*
X188667500Y-95250000D03*
X188667500Y-96250000D03*
%TD*%
D23*
%TO.C,C2*%
X157000000Y-95612500D03*
X157000000Y-93887500D03*
%TD*%
D21*
%TO.C,R1*%
X148000000Y-98000000D03*
X146175000Y-98000000D03*
%TD*%
D22*
%TO.C,R6*%
X181000000Y-98425000D03*
X181000000Y-100250000D03*
%TD*%
D28*
%TO.C,L1*%
X163550000Y-88000000D03*
X157950000Y-88000000D03*
%TD*%
D29*
%TO.C,C5*%
X173750000Y-98200000D03*
X173750000Y-91800000D03*
%TD*%
%TO.C,C4*%
X168500000Y-98250000D03*
X168500000Y-91850000D03*
%TD*%
D30*
%TO.C,R4*%
X161065000Y-102912500D03*
X161065000Y-101087500D03*
%TD*%
D22*
%TO.C,R3*%
X164500000Y-101087500D03*
X164500000Y-102912500D03*
%TD*%
D31*
%TO.C,U1*%
X163475000Y-98962500D03*
X162825000Y-98962500D03*
X162175000Y-98962500D03*
X161525000Y-98962500D03*
D32*
X160537500Y-97975000D03*
X160537500Y-97325000D03*
X160537500Y-96675000D03*
X160537500Y-96025000D03*
D31*
X161525000Y-95037500D03*
X162175000Y-95037500D03*
X162825000Y-95037500D03*
X163475000Y-95037500D03*
D32*
X164462500Y-96025000D03*
X164462500Y-96675000D03*
X164462500Y-97325000D03*
X164462500Y-97975000D03*
D33*
X161950000Y-97550000D03*
X161950000Y-96450000D03*
X163050000Y-96450000D03*
X163050000Y-97550000D03*
%TD*%
M02*
