%TF.GenerationSoftware,KiCad,Pcbnew,6.0.11+dfsg-1*%
%TF.CreationDate,2024-02-27T20:54:29-05:00*%
%TF.ProjectId,usb-c-expresscard,7573622d-632d-4657-9870-726573736361,rev?*%
%TF.SameCoordinates,Original*%
%TF.FileFunction,Legend,Bot*%
%TF.FilePolarity,Positive*%
%FSLAX46Y46*%
G04 Gerber Fmt 4.6, Leading zero omitted, Abs format (unit mm)*
G04 Created by KiCad (PCBNEW 6.0.11+dfsg-1) date 2024-02-27 20:54:29*
%MOMM*%
%LPD*%
G01*
G04 APERTURE LIST*
%ADD10C,0.150000*%
%ADD11C,0.010000*%
G04 APERTURE END LIST*
D10*
X177078571Y-89912857D02*
X176792857Y-91112857D01*
X176564285Y-90255714D01*
X176335714Y-91112857D01*
X176050000Y-89912857D01*
X175592857Y-91112857D02*
X175592857Y-89912857D01*
X175592857Y-90484285D02*
X174907142Y-90484285D01*
X174907142Y-91112857D02*
X174907142Y-89912857D01*
X174392857Y-90770000D02*
X173821428Y-90770000D01*
X174507142Y-91112857D02*
X174107142Y-89912857D01*
X173707142Y-91112857D01*
X173478571Y-89912857D02*
X172792857Y-89912857D01*
X173135714Y-91112857D02*
X173135714Y-89912857D01*
X172221428Y-90998571D02*
X172164285Y-91055714D01*
X172221428Y-91112857D01*
X172278571Y-91055714D01*
X172221428Y-90998571D01*
X172221428Y-91112857D01*
X172450000Y-89970000D02*
X172335714Y-89912857D01*
X172050000Y-89912857D01*
X171935714Y-89970000D01*
X171878571Y-90084285D01*
X171878571Y-90198571D01*
X171935714Y-90312857D01*
X171992857Y-90370000D01*
X172107142Y-90427142D01*
X172164285Y-90484285D01*
X172221428Y-90598571D01*
X172221428Y-90655714D01*
X186192857Y-91844857D02*
X186192857Y-92816285D01*
X186135714Y-92930571D01*
X186078571Y-92987714D01*
X185964285Y-93044857D01*
X185735714Y-93044857D01*
X185621428Y-92987714D01*
X185564285Y-92930571D01*
X185507142Y-92816285D01*
X185507142Y-91844857D01*
X184992857Y-92987714D02*
X184821428Y-93044857D01*
X184535714Y-93044857D01*
X184421428Y-92987714D01*
X184364285Y-92930571D01*
X184307142Y-92816285D01*
X184307142Y-92702000D01*
X184364285Y-92587714D01*
X184421428Y-92530571D01*
X184535714Y-92473428D01*
X184764285Y-92416285D01*
X184878571Y-92359142D01*
X184935714Y-92302000D01*
X184992857Y-92187714D01*
X184992857Y-92073428D01*
X184935714Y-91959142D01*
X184878571Y-91902000D01*
X184764285Y-91844857D01*
X184478571Y-91844857D01*
X184307142Y-91902000D01*
X183392857Y-92416285D02*
X183221428Y-92473428D01*
X183164285Y-92530571D01*
X183107142Y-92644857D01*
X183107142Y-92816285D01*
X183164285Y-92930571D01*
X183221428Y-92987714D01*
X183335714Y-93044857D01*
X183792857Y-93044857D01*
X183792857Y-91844857D01*
X183392857Y-91844857D01*
X183278571Y-91902000D01*
X183221428Y-91959142D01*
X183164285Y-92073428D01*
X183164285Y-92187714D01*
X183221428Y-92302000D01*
X183278571Y-92359142D01*
X183392857Y-92416285D01*
X183792857Y-92416285D01*
X181735714Y-91959142D02*
X181678571Y-91902000D01*
X181564285Y-91844857D01*
X181278571Y-91844857D01*
X181164285Y-91902000D01*
X181107142Y-91959142D01*
X181050000Y-92073428D01*
X181050000Y-92187714D01*
X181107142Y-92359142D01*
X181792857Y-93044857D01*
X181050000Y-93044857D01*
X180535714Y-92930571D02*
X180478571Y-92987714D01*
X180535714Y-93044857D01*
X180592857Y-92987714D01*
X180535714Y-92930571D01*
X180535714Y-93044857D01*
X179735714Y-91844857D02*
X179621428Y-91844857D01*
X179507142Y-91902000D01*
X179450000Y-91959142D01*
X179392857Y-92073428D01*
X179335714Y-92302000D01*
X179335714Y-92587714D01*
X179392857Y-92816285D01*
X179450000Y-92930571D01*
X179507142Y-92987714D01*
X179621428Y-93044857D01*
X179735714Y-93044857D01*
X179850000Y-92987714D01*
X179907142Y-92930571D01*
X179964285Y-92816285D01*
X180021428Y-92587714D01*
X180021428Y-92302000D01*
X179964285Y-92073428D01*
X179907142Y-91959142D01*
X179850000Y-91902000D01*
X179735714Y-91844857D01*
X178078571Y-92244857D02*
X177621428Y-92244857D01*
X177907142Y-93044857D02*
X177907142Y-92016285D01*
X177850000Y-91902000D01*
X177735714Y-91844857D01*
X177621428Y-91844857D01*
X177221428Y-93044857D02*
X177221428Y-92244857D01*
X177221428Y-92473428D02*
X177164285Y-92359142D01*
X177107142Y-92302000D01*
X176992857Y-92244857D01*
X176878571Y-92244857D01*
X176307142Y-93044857D02*
X176421428Y-92987714D01*
X176478571Y-92930571D01*
X176535714Y-92816285D01*
X176535714Y-92473428D01*
X176478571Y-92359142D01*
X176421428Y-92302000D01*
X176307142Y-92244857D01*
X176135714Y-92244857D01*
X176021428Y-92302000D01*
X175964285Y-92359142D01*
X175907142Y-92473428D01*
X175907142Y-92816285D01*
X175964285Y-92930571D01*
X176021428Y-92987714D01*
X176135714Y-93044857D01*
X176307142Y-93044857D01*
X175392857Y-93044857D02*
X175392857Y-92244857D01*
X175392857Y-92359142D02*
X175335714Y-92302000D01*
X175221428Y-92244857D01*
X175050000Y-92244857D01*
X174935714Y-92302000D01*
X174878571Y-92416285D01*
X174878571Y-93044857D01*
X174878571Y-92416285D02*
X174821428Y-92302000D01*
X174707142Y-92244857D01*
X174535714Y-92244857D01*
X174421428Y-92302000D01*
X174364285Y-92416285D01*
X174364285Y-93044857D01*
X172421428Y-92987714D02*
X172535714Y-93044857D01*
X172764285Y-93044857D01*
X172878571Y-92987714D01*
X172935714Y-92873428D01*
X172935714Y-92416285D01*
X172878571Y-92302000D01*
X172764285Y-92244857D01*
X172535714Y-92244857D01*
X172421428Y-92302000D01*
X172364285Y-92416285D01*
X172364285Y-92530571D01*
X172935714Y-92644857D01*
X171964285Y-93044857D02*
X171335714Y-92244857D01*
X171964285Y-92244857D02*
X171335714Y-93044857D01*
X170878571Y-92244857D02*
X170878571Y-93444857D01*
X170878571Y-92302000D02*
X170764285Y-92244857D01*
X170535714Y-92244857D01*
X170421428Y-92302000D01*
X170364285Y-92359142D01*
X170307142Y-92473428D01*
X170307142Y-92816285D01*
X170364285Y-92930571D01*
X170421428Y-92987714D01*
X170535714Y-93044857D01*
X170764285Y-93044857D01*
X170878571Y-92987714D01*
X169792857Y-93044857D02*
X169792857Y-92244857D01*
X169792857Y-92473428D02*
X169735714Y-92359142D01*
X169678571Y-92302000D01*
X169564285Y-92244857D01*
X169450000Y-92244857D01*
X168592857Y-92987714D02*
X168707142Y-93044857D01*
X168935714Y-93044857D01*
X169050000Y-92987714D01*
X169107142Y-92873428D01*
X169107142Y-92416285D01*
X169050000Y-92302000D01*
X168935714Y-92244857D01*
X168707142Y-92244857D01*
X168592857Y-92302000D01*
X168535714Y-92416285D01*
X168535714Y-92530571D01*
X169107142Y-92644857D01*
X168078571Y-92987714D02*
X167964285Y-93044857D01*
X167735714Y-93044857D01*
X167621428Y-92987714D01*
X167564285Y-92873428D01*
X167564285Y-92816285D01*
X167621428Y-92702000D01*
X167735714Y-92644857D01*
X167907142Y-92644857D01*
X168021428Y-92587714D01*
X168078571Y-92473428D01*
X168078571Y-92416285D01*
X168021428Y-92302000D01*
X167907142Y-92244857D01*
X167735714Y-92244857D01*
X167621428Y-92302000D01*
X167107142Y-92987714D02*
X166992857Y-93044857D01*
X166764285Y-93044857D01*
X166650000Y-92987714D01*
X166592857Y-92873428D01*
X166592857Y-92816285D01*
X166650000Y-92702000D01*
X166764285Y-92644857D01*
X166935714Y-92644857D01*
X167050000Y-92587714D01*
X167107142Y-92473428D01*
X167107142Y-92416285D01*
X167050000Y-92302000D01*
X166935714Y-92244857D01*
X166764285Y-92244857D01*
X166650000Y-92302000D01*
X165564285Y-92987714D02*
X165678571Y-93044857D01*
X165907142Y-93044857D01*
X166021428Y-92987714D01*
X166078571Y-92930571D01*
X166135714Y-92816285D01*
X166135714Y-92473428D01*
X166078571Y-92359142D01*
X166021428Y-92302000D01*
X165907142Y-92244857D01*
X165678571Y-92244857D01*
X165564285Y-92302000D01*
X164535714Y-93044857D02*
X164535714Y-92416285D01*
X164592857Y-92302000D01*
X164707142Y-92244857D01*
X164935714Y-92244857D01*
X165050000Y-92302000D01*
X164535714Y-92987714D02*
X164650000Y-93044857D01*
X164935714Y-93044857D01*
X165050000Y-92987714D01*
X165107142Y-92873428D01*
X165107142Y-92759142D01*
X165050000Y-92644857D01*
X164935714Y-92587714D01*
X164650000Y-92587714D01*
X164535714Y-92530571D01*
X163964285Y-93044857D02*
X163964285Y-92244857D01*
X163964285Y-92473428D02*
X163907142Y-92359142D01*
X163850000Y-92302000D01*
X163735714Y-92244857D01*
X163621428Y-92244857D01*
X162707142Y-93044857D02*
X162707142Y-91844857D01*
X162707142Y-92987714D02*
X162821428Y-93044857D01*
X163050000Y-93044857D01*
X163164285Y-92987714D01*
X163221428Y-92930571D01*
X163278571Y-92816285D01*
X163278571Y-92473428D01*
X163221428Y-92359142D01*
X163164285Y-92302000D01*
X163050000Y-92244857D01*
X162821428Y-92244857D01*
X162707142Y-92302000D01*
X183707142Y-94176857D02*
X183250000Y-94176857D01*
X183535714Y-93776857D02*
X183535714Y-94805428D01*
X183478571Y-94919714D01*
X183364285Y-94976857D01*
X183250000Y-94976857D01*
X182678571Y-94976857D02*
X182792857Y-94919714D01*
X182850000Y-94862571D01*
X182907142Y-94748285D01*
X182907142Y-94405428D01*
X182850000Y-94291142D01*
X182792857Y-94234000D01*
X182678571Y-94176857D01*
X182507142Y-94176857D01*
X182392857Y-94234000D01*
X182335714Y-94291142D01*
X182278571Y-94405428D01*
X182278571Y-94748285D01*
X182335714Y-94862571D01*
X182392857Y-94919714D01*
X182507142Y-94976857D01*
X182678571Y-94976857D01*
X180850000Y-93776857D02*
X180850000Y-94748285D01*
X180792857Y-94862571D01*
X180735714Y-94919714D01*
X180621428Y-94976857D01*
X180392857Y-94976857D01*
X180278571Y-94919714D01*
X180221428Y-94862571D01*
X180164285Y-94748285D01*
X180164285Y-93776857D01*
X179650000Y-94919714D02*
X179478571Y-94976857D01*
X179192857Y-94976857D01*
X179078571Y-94919714D01*
X179021428Y-94862571D01*
X178964285Y-94748285D01*
X178964285Y-94634000D01*
X179021428Y-94519714D01*
X179078571Y-94462571D01*
X179192857Y-94405428D01*
X179421428Y-94348285D01*
X179535714Y-94291142D01*
X179592857Y-94234000D01*
X179650000Y-94119714D01*
X179650000Y-94005428D01*
X179592857Y-93891142D01*
X179535714Y-93834000D01*
X179421428Y-93776857D01*
X179135714Y-93776857D01*
X178964285Y-93834000D01*
X178050000Y-94348285D02*
X177878571Y-94405428D01*
X177821428Y-94462571D01*
X177764285Y-94576857D01*
X177764285Y-94748285D01*
X177821428Y-94862571D01*
X177878571Y-94919714D01*
X177992857Y-94976857D01*
X178450000Y-94976857D01*
X178450000Y-93776857D01*
X178050000Y-93776857D01*
X177935714Y-93834000D01*
X177878571Y-93891142D01*
X177821428Y-94005428D01*
X177821428Y-94119714D01*
X177878571Y-94234000D01*
X177935714Y-94291142D01*
X178050000Y-94348285D01*
X178450000Y-94348285D01*
X177250000Y-94519714D02*
X176335714Y-94519714D01*
X175078571Y-94862571D02*
X175135714Y-94919714D01*
X175307142Y-94976857D01*
X175421428Y-94976857D01*
X175592857Y-94919714D01*
X175707142Y-94805428D01*
X175764285Y-94691142D01*
X175821428Y-94462571D01*
X175821428Y-94291142D01*
X175764285Y-94062571D01*
X175707142Y-93948285D01*
X175592857Y-93834000D01*
X175421428Y-93776857D01*
X175307142Y-93776857D01*
X175135714Y-93834000D01*
X175078571Y-93891142D01*
X173135714Y-94919714D02*
X173250000Y-94976857D01*
X173478571Y-94976857D01*
X173592857Y-94919714D01*
X173650000Y-94862571D01*
X173707142Y-94748285D01*
X173707142Y-94405428D01*
X173650000Y-94291142D01*
X173592857Y-94234000D01*
X173478571Y-94176857D01*
X173250000Y-94176857D01*
X173135714Y-94234000D01*
X172450000Y-94976857D02*
X172564285Y-94919714D01*
X172621428Y-94862571D01*
X172678571Y-94748285D01*
X172678571Y-94405428D01*
X172621428Y-94291142D01*
X172564285Y-94234000D01*
X172450000Y-94176857D01*
X172278571Y-94176857D01*
X172164285Y-94234000D01*
X172107142Y-94291142D01*
X172050000Y-94405428D01*
X172050000Y-94748285D01*
X172107142Y-94862571D01*
X172164285Y-94919714D01*
X172278571Y-94976857D01*
X172450000Y-94976857D01*
X171535714Y-94176857D02*
X171535714Y-94976857D01*
X171535714Y-94291142D02*
X171478571Y-94234000D01*
X171364285Y-94176857D01*
X171192857Y-94176857D01*
X171078571Y-94234000D01*
X171021428Y-94348285D01*
X171021428Y-94976857D01*
X170450000Y-94176857D02*
X170450000Y-94976857D01*
X170450000Y-94291142D02*
X170392857Y-94234000D01*
X170278571Y-94176857D01*
X170107142Y-94176857D01*
X169992857Y-94234000D01*
X169935714Y-94348285D01*
X169935714Y-94976857D01*
X168907142Y-94919714D02*
X169021428Y-94976857D01*
X169250000Y-94976857D01*
X169364285Y-94919714D01*
X169421428Y-94805428D01*
X169421428Y-94348285D01*
X169364285Y-94234000D01*
X169250000Y-94176857D01*
X169021428Y-94176857D01*
X168907142Y-94234000D01*
X168850000Y-94348285D01*
X168850000Y-94462571D01*
X169421428Y-94576857D01*
X167821428Y-94919714D02*
X167935714Y-94976857D01*
X168164285Y-94976857D01*
X168278571Y-94919714D01*
X168335714Y-94862571D01*
X168392857Y-94748285D01*
X168392857Y-94405428D01*
X168335714Y-94291142D01*
X168278571Y-94234000D01*
X168164285Y-94176857D01*
X167935714Y-94176857D01*
X167821428Y-94234000D01*
X167478571Y-94176857D02*
X167021428Y-94176857D01*
X167307142Y-93776857D02*
X167307142Y-94805428D01*
X167250000Y-94919714D01*
X167135714Y-94976857D01*
X167021428Y-94976857D01*
X166450000Y-94976857D02*
X166564285Y-94919714D01*
X166621428Y-94862571D01*
X166678571Y-94748285D01*
X166678571Y-94405428D01*
X166621428Y-94291142D01*
X166564285Y-94234000D01*
X166450000Y-94176857D01*
X166278571Y-94176857D01*
X166164285Y-94234000D01*
X166107142Y-94291142D01*
X166050000Y-94405428D01*
X166050000Y-94748285D01*
X166107142Y-94862571D01*
X166164285Y-94919714D01*
X166278571Y-94976857D01*
X166450000Y-94976857D01*
X165535714Y-94976857D02*
X165535714Y-94176857D01*
X165535714Y-94405428D02*
X165478571Y-94291142D01*
X165421428Y-94234000D01*
X165307142Y-94176857D01*
X165192857Y-94176857D01*
X181564285Y-96280285D02*
X181392857Y-96337428D01*
X181335714Y-96394571D01*
X181278571Y-96508857D01*
X181278571Y-96680285D01*
X181335714Y-96794571D01*
X181392857Y-96851714D01*
X181507142Y-96908857D01*
X181964285Y-96908857D01*
X181964285Y-95708857D01*
X181564285Y-95708857D01*
X181450000Y-95766000D01*
X181392857Y-95823142D01*
X181335714Y-95937428D01*
X181335714Y-96051714D01*
X181392857Y-96166000D01*
X181450000Y-96223142D01*
X181564285Y-96280285D01*
X181964285Y-96280285D01*
X180592857Y-96908857D02*
X180707142Y-96851714D01*
X180764285Y-96794571D01*
X180821428Y-96680285D01*
X180821428Y-96337428D01*
X180764285Y-96223142D01*
X180707142Y-96166000D01*
X180592857Y-96108857D01*
X180421428Y-96108857D01*
X180307142Y-96166000D01*
X180250000Y-96223142D01*
X180192857Y-96337428D01*
X180192857Y-96680285D01*
X180250000Y-96794571D01*
X180307142Y-96851714D01*
X180421428Y-96908857D01*
X180592857Y-96908857D01*
X179507142Y-96908857D02*
X179621428Y-96851714D01*
X179678571Y-96794571D01*
X179735714Y-96680285D01*
X179735714Y-96337428D01*
X179678571Y-96223142D01*
X179621428Y-96166000D01*
X179507142Y-96108857D01*
X179335714Y-96108857D01*
X179221428Y-96166000D01*
X179164285Y-96223142D01*
X179107142Y-96337428D01*
X179107142Y-96680285D01*
X179164285Y-96794571D01*
X179221428Y-96851714D01*
X179335714Y-96908857D01*
X179507142Y-96908857D01*
X178650000Y-96851714D02*
X178535714Y-96908857D01*
X178307142Y-96908857D01*
X178192857Y-96851714D01*
X178135714Y-96737428D01*
X178135714Y-96680285D01*
X178192857Y-96566000D01*
X178307142Y-96508857D01*
X178478571Y-96508857D01*
X178592857Y-96451714D01*
X178650000Y-96337428D01*
X178650000Y-96280285D01*
X178592857Y-96166000D01*
X178478571Y-96108857D01*
X178307142Y-96108857D01*
X178192857Y-96166000D01*
X177792857Y-96108857D02*
X177335714Y-96108857D01*
X177621428Y-95708857D02*
X177621428Y-96737428D01*
X177564285Y-96851714D01*
X177450000Y-96908857D01*
X177335714Y-96908857D01*
X176135714Y-95708857D02*
X175392857Y-95708857D01*
X175792857Y-96166000D01*
X175621428Y-96166000D01*
X175507142Y-96223142D01*
X175450000Y-96280285D01*
X175392857Y-96394571D01*
X175392857Y-96680285D01*
X175450000Y-96794571D01*
X175507142Y-96851714D01*
X175621428Y-96908857D01*
X175964285Y-96908857D01*
X176078571Y-96851714D01*
X176135714Y-96794571D01*
X174878571Y-96794571D02*
X174821428Y-96851714D01*
X174878571Y-96908857D01*
X174935714Y-96851714D01*
X174878571Y-96794571D01*
X174878571Y-96908857D01*
X174421428Y-95708857D02*
X173678571Y-95708857D01*
X174078571Y-96166000D01*
X173907142Y-96166000D01*
X173792857Y-96223142D01*
X173735714Y-96280285D01*
X173678571Y-96394571D01*
X173678571Y-96680285D01*
X173735714Y-96794571D01*
X173792857Y-96851714D01*
X173907142Y-96908857D01*
X174250000Y-96908857D01*
X174364285Y-96851714D01*
X174421428Y-96794571D01*
X173335714Y-95708857D02*
X172935714Y-96908857D01*
X172535714Y-95708857D01*
X171392857Y-96108857D02*
X170935714Y-96108857D01*
X171221428Y-95708857D02*
X171221428Y-96737428D01*
X171164285Y-96851714D01*
X171050000Y-96908857D01*
X170935714Y-96908857D01*
X170364285Y-96908857D02*
X170478571Y-96851714D01*
X170535714Y-96794571D01*
X170592857Y-96680285D01*
X170592857Y-96337428D01*
X170535714Y-96223142D01*
X170478571Y-96166000D01*
X170364285Y-96108857D01*
X170192857Y-96108857D01*
X170078571Y-96166000D01*
X170021428Y-96223142D01*
X169964285Y-96337428D01*
X169964285Y-96680285D01*
X170021428Y-96794571D01*
X170078571Y-96851714D01*
X170192857Y-96908857D01*
X170364285Y-96908857D01*
X167964285Y-95708857D02*
X168535714Y-95708857D01*
X168592857Y-96280285D01*
X168535714Y-96223142D01*
X168421428Y-96166000D01*
X168135714Y-96166000D01*
X168021428Y-96223142D01*
X167964285Y-96280285D01*
X167907142Y-96394571D01*
X167907142Y-96680285D01*
X167964285Y-96794571D01*
X168021428Y-96851714D01*
X168135714Y-96908857D01*
X168421428Y-96908857D01*
X168535714Y-96851714D01*
X168592857Y-96794571D01*
X167564285Y-95708857D02*
X167164285Y-96908857D01*
X166764285Y-95708857D01*
X183907142Y-98840857D02*
X183907142Y-97640857D01*
X183907142Y-98212285D02*
X183221428Y-98212285D01*
X183221428Y-98840857D02*
X183221428Y-97640857D01*
X182135714Y-98840857D02*
X182135714Y-98212285D01*
X182192857Y-98098000D01*
X182307142Y-98040857D01*
X182535714Y-98040857D01*
X182650000Y-98098000D01*
X182135714Y-98783714D02*
X182250000Y-98840857D01*
X182535714Y-98840857D01*
X182650000Y-98783714D01*
X182707142Y-98669428D01*
X182707142Y-98555142D01*
X182650000Y-98440857D01*
X182535714Y-98383714D01*
X182250000Y-98383714D01*
X182135714Y-98326571D01*
X181564285Y-98040857D02*
X181564285Y-98840857D01*
X181564285Y-98155142D02*
X181507142Y-98098000D01*
X181392857Y-98040857D01*
X181221428Y-98040857D01*
X181107142Y-98098000D01*
X181050000Y-98212285D01*
X181050000Y-98840857D01*
X179964285Y-98840857D02*
X179964285Y-97640857D01*
X179964285Y-98783714D02*
X180078571Y-98840857D01*
X180307142Y-98840857D01*
X180421428Y-98783714D01*
X180478571Y-98726571D01*
X180535714Y-98612285D01*
X180535714Y-98269428D01*
X180478571Y-98155142D01*
X180421428Y-98098000D01*
X180307142Y-98040857D01*
X180078571Y-98040857D01*
X179964285Y-98098000D01*
X179221428Y-98840857D02*
X179335714Y-98783714D01*
X179392857Y-98669428D01*
X179392857Y-97640857D01*
X178307142Y-98783714D02*
X178421428Y-98840857D01*
X178650000Y-98840857D01*
X178764285Y-98783714D01*
X178821428Y-98669428D01*
X178821428Y-98212285D01*
X178764285Y-98098000D01*
X178650000Y-98040857D01*
X178421428Y-98040857D01*
X178307142Y-98098000D01*
X178250000Y-98212285D01*
X178250000Y-98326571D01*
X178821428Y-98440857D01*
X176821428Y-97640857D02*
X176821428Y-98612285D01*
X176764285Y-98726571D01*
X176707142Y-98783714D01*
X176592857Y-98840857D01*
X176364285Y-98840857D01*
X176250000Y-98783714D01*
X176192857Y-98726571D01*
X176135714Y-98612285D01*
X176135714Y-97640857D01*
X175621428Y-98783714D02*
X175450000Y-98840857D01*
X175164285Y-98840857D01*
X175050000Y-98783714D01*
X174992857Y-98726571D01*
X174935714Y-98612285D01*
X174935714Y-98498000D01*
X174992857Y-98383714D01*
X175050000Y-98326571D01*
X175164285Y-98269428D01*
X175392857Y-98212285D01*
X175507142Y-98155142D01*
X175564285Y-98098000D01*
X175621428Y-97983714D01*
X175621428Y-97869428D01*
X175564285Y-97755142D01*
X175507142Y-97698000D01*
X175392857Y-97640857D01*
X175107142Y-97640857D01*
X174935714Y-97698000D01*
X174021428Y-98212285D02*
X173850000Y-98269428D01*
X173792857Y-98326571D01*
X173735714Y-98440857D01*
X173735714Y-98612285D01*
X173792857Y-98726571D01*
X173850000Y-98783714D01*
X173964285Y-98840857D01*
X174421428Y-98840857D01*
X174421428Y-97640857D01*
X174021428Y-97640857D01*
X173907142Y-97698000D01*
X173850000Y-97755142D01*
X173792857Y-97869428D01*
X173792857Y-97983714D01*
X173850000Y-98098000D01*
X173907142Y-98155142D01*
X174021428Y-98212285D01*
X174421428Y-98212285D01*
X173221428Y-98383714D02*
X172307142Y-98383714D01*
X171050000Y-98726571D02*
X171107142Y-98783714D01*
X171278571Y-98840857D01*
X171392857Y-98840857D01*
X171564285Y-98783714D01*
X171678571Y-98669428D01*
X171735714Y-98555142D01*
X171792857Y-98326571D01*
X171792857Y-98155142D01*
X171735714Y-97926571D01*
X171678571Y-97812285D01*
X171564285Y-97698000D01*
X171392857Y-97640857D01*
X171278571Y-97640857D01*
X171107142Y-97698000D01*
X171050000Y-97755142D01*
X169621428Y-98040857D02*
X169621428Y-99240857D01*
X169621428Y-98098000D02*
X169507142Y-98040857D01*
X169278571Y-98040857D01*
X169164285Y-98098000D01*
X169107142Y-98155142D01*
X169050000Y-98269428D01*
X169050000Y-98612285D01*
X169107142Y-98726571D01*
X169164285Y-98783714D01*
X169278571Y-98840857D01*
X169507142Y-98840857D01*
X169621428Y-98783714D01*
X168364285Y-98840857D02*
X168478571Y-98783714D01*
X168535714Y-98726571D01*
X168592857Y-98612285D01*
X168592857Y-98269428D01*
X168535714Y-98155142D01*
X168478571Y-98098000D01*
X168364285Y-98040857D01*
X168192857Y-98040857D01*
X168078571Y-98098000D01*
X168021428Y-98155142D01*
X167964285Y-98269428D01*
X167964285Y-98612285D01*
X168021428Y-98726571D01*
X168078571Y-98783714D01*
X168192857Y-98840857D01*
X168364285Y-98840857D01*
X167564285Y-98040857D02*
X167335714Y-98840857D01*
X167107142Y-98269428D01*
X166878571Y-98840857D01*
X166650000Y-98040857D01*
X165735714Y-98783714D02*
X165850000Y-98840857D01*
X166078571Y-98840857D01*
X166192857Y-98783714D01*
X166250000Y-98669428D01*
X166250000Y-98212285D01*
X166192857Y-98098000D01*
X166078571Y-98040857D01*
X165850000Y-98040857D01*
X165735714Y-98098000D01*
X165678571Y-98212285D01*
X165678571Y-98326571D01*
X166250000Y-98440857D01*
X165164285Y-98840857D02*
X165164285Y-98040857D01*
X165164285Y-98269428D02*
X165107142Y-98155142D01*
X165050000Y-98098000D01*
X164935714Y-98040857D01*
X164821428Y-98040857D01*
X179792857Y-100715714D02*
X179678571Y-100772857D01*
X179450000Y-100772857D01*
X179335714Y-100715714D01*
X179278571Y-100601428D01*
X179278571Y-100544285D01*
X179335714Y-100430000D01*
X179450000Y-100372857D01*
X179621428Y-100372857D01*
X179735714Y-100315714D01*
X179792857Y-100201428D01*
X179792857Y-100144285D01*
X179735714Y-100030000D01*
X179621428Y-99972857D01*
X179450000Y-99972857D01*
X179335714Y-100030000D01*
X178764285Y-100772857D02*
X178764285Y-99572857D01*
X178250000Y-100772857D02*
X178250000Y-100144285D01*
X178307142Y-100030000D01*
X178421428Y-99972857D01*
X178592857Y-99972857D01*
X178707142Y-100030000D01*
X178764285Y-100087142D01*
X177221428Y-100715714D02*
X177335714Y-100772857D01*
X177564285Y-100772857D01*
X177678571Y-100715714D01*
X177735714Y-100601428D01*
X177735714Y-100144285D01*
X177678571Y-100030000D01*
X177564285Y-99972857D01*
X177335714Y-99972857D01*
X177221428Y-100030000D01*
X177164285Y-100144285D01*
X177164285Y-100258571D01*
X177735714Y-100372857D01*
X176650000Y-99972857D02*
X176650000Y-100772857D01*
X176650000Y-100087142D02*
X176592857Y-100030000D01*
X176478571Y-99972857D01*
X176307142Y-99972857D01*
X176192857Y-100030000D01*
X176135714Y-100144285D01*
X176135714Y-100772857D01*
X175050000Y-100772857D02*
X175050000Y-100144285D01*
X175107142Y-100030000D01*
X175221428Y-99972857D01*
X175450000Y-99972857D01*
X175564285Y-100030000D01*
X175050000Y-100715714D02*
X175164285Y-100772857D01*
X175450000Y-100772857D01*
X175564285Y-100715714D01*
X175621428Y-100601428D01*
X175621428Y-100487142D01*
X175564285Y-100372857D01*
X175450000Y-100315714D01*
X175164285Y-100315714D01*
X175050000Y-100258571D01*
X174478571Y-99972857D02*
X174478571Y-100772857D01*
X174478571Y-100087142D02*
X174421428Y-100030000D01*
X174307142Y-99972857D01*
X174135714Y-99972857D01*
X174021428Y-100030000D01*
X173964285Y-100144285D01*
X173964285Y-100772857D01*
X173392857Y-100772857D02*
X173392857Y-99972857D01*
X173392857Y-99572857D02*
X173450000Y-99630000D01*
X173392857Y-99687142D01*
X173335714Y-99630000D01*
X173392857Y-99572857D01*
X173392857Y-99687142D01*
X172307142Y-99972857D02*
X172307142Y-100944285D01*
X172364285Y-101058571D01*
X172421428Y-101115714D01*
X172535714Y-101172857D01*
X172707142Y-101172857D01*
X172821428Y-101115714D01*
X172307142Y-100715714D02*
X172421428Y-100772857D01*
X172650000Y-100772857D01*
X172764285Y-100715714D01*
X172821428Y-100658571D01*
X172878571Y-100544285D01*
X172878571Y-100201428D01*
X172821428Y-100087142D01*
X172764285Y-100030000D01*
X172650000Y-99972857D01*
X172421428Y-99972857D01*
X172307142Y-100030000D01*
X171221428Y-100772857D02*
X171221428Y-100144285D01*
X171278571Y-100030000D01*
X171392857Y-99972857D01*
X171621428Y-99972857D01*
X171735714Y-100030000D01*
X171221428Y-100715714D02*
X171335714Y-100772857D01*
X171621428Y-100772857D01*
X171735714Y-100715714D01*
X171792857Y-100601428D01*
X171792857Y-100487142D01*
X171735714Y-100372857D01*
X171621428Y-100315714D01*
X171335714Y-100315714D01*
X171221428Y-100258571D01*
X170650000Y-99972857D02*
X170650000Y-100772857D01*
X170650000Y-100087142D02*
X170592857Y-100030000D01*
X170478571Y-99972857D01*
X170307142Y-99972857D01*
X170192857Y-100030000D01*
X170135714Y-100144285D01*
X170135714Y-100772857D01*
X169621428Y-100715714D02*
X169507142Y-100772857D01*
X169278571Y-100772857D01*
X169164285Y-100715714D01*
X169107142Y-100601428D01*
X169107142Y-100544285D01*
X169164285Y-100430000D01*
X169278571Y-100372857D01*
X169450000Y-100372857D01*
X169564285Y-100315714D01*
X169621428Y-100201428D01*
X169621428Y-100144285D01*
X169564285Y-100030000D01*
X169450000Y-99972857D01*
X169278571Y-99972857D01*
X169164285Y-100030000D01*
X157652500Y-87917333D02*
X158319166Y-87917333D01*
X158319166Y-86517333D01*
X156452500Y-87917333D02*
X157252500Y-87917333D01*
X156852500Y-87917333D02*
X156852500Y-86517333D01*
X156985833Y-86717333D01*
X157119166Y-86850666D01*
X157252500Y-86917333D01*
X155852500Y-87784000D02*
X155785833Y-87850666D01*
X155852500Y-87917333D01*
X155919166Y-87850666D01*
X155852500Y-87784000D01*
X155852500Y-87917333D01*
X155852500Y-87050666D02*
X155785833Y-87117333D01*
X155852500Y-87184000D01*
X155919166Y-87117333D01*
X155852500Y-87050666D01*
X155852500Y-87184000D01*
X153519166Y-86517333D02*
X153785833Y-86517333D01*
X153919166Y-86584000D01*
X153985833Y-86650666D01*
X154119166Y-86850666D01*
X154185833Y-87117333D01*
X154185833Y-87650666D01*
X154119166Y-87784000D01*
X154052500Y-87850666D01*
X153919166Y-87917333D01*
X153652500Y-87917333D01*
X153519166Y-87850666D01*
X153452500Y-87784000D01*
X153385833Y-87650666D01*
X153385833Y-87317333D01*
X153452500Y-87184000D01*
X153519166Y-87117333D01*
X153652500Y-87050666D01*
X153919166Y-87050666D01*
X154052500Y-87117333D01*
X154119166Y-87184000D01*
X154185833Y-87317333D01*
X152785833Y-87784000D02*
X152719166Y-87850666D01*
X152785833Y-87917333D01*
X152852500Y-87850666D01*
X152785833Y-87784000D01*
X152785833Y-87917333D01*
X151919166Y-87117333D02*
X152052500Y-87050666D01*
X152119166Y-86984000D01*
X152185833Y-86850666D01*
X152185833Y-86784000D01*
X152119166Y-86650666D01*
X152052500Y-86584000D01*
X151919166Y-86517333D01*
X151652500Y-86517333D01*
X151519166Y-86584000D01*
X151452500Y-86650666D01*
X151385833Y-86784000D01*
X151385833Y-86850666D01*
X151452500Y-86984000D01*
X151519166Y-87050666D01*
X151652500Y-87117333D01*
X151919166Y-87117333D01*
X152052500Y-87184000D01*
X152119166Y-87250666D01*
X152185833Y-87384000D01*
X152185833Y-87650666D01*
X152119166Y-87784000D01*
X152052500Y-87850666D01*
X151919166Y-87917333D01*
X151652500Y-87917333D01*
X151519166Y-87850666D01*
X151452500Y-87784000D01*
X151385833Y-87650666D01*
X151385833Y-87384000D01*
X151452500Y-87250666D01*
X151519166Y-87184000D01*
X151652500Y-87117333D01*
X150185833Y-86984000D02*
X150185833Y-87917333D01*
X150785833Y-86984000D02*
X150785833Y-87717333D01*
X150719166Y-87850666D01*
X150585833Y-87917333D01*
X150385833Y-87917333D01*
X150252500Y-87850666D01*
X150185833Y-87784000D01*
X149519166Y-87917333D02*
X149519166Y-86517333D01*
X149519166Y-87184000D02*
X148719166Y-87184000D01*
X148719166Y-87917333D02*
X148719166Y-86517333D01*
X157519166Y-90171333D02*
X157985833Y-89504666D01*
X158319166Y-90171333D02*
X158319166Y-88771333D01*
X157785833Y-88771333D01*
X157652500Y-88838000D01*
X157585833Y-88904666D01*
X157519166Y-89038000D01*
X157519166Y-89238000D01*
X157585833Y-89371333D01*
X157652500Y-89438000D01*
X157785833Y-89504666D01*
X158319166Y-89504666D01*
X156185833Y-90171333D02*
X156985833Y-90171333D01*
X156585833Y-90171333D02*
X156585833Y-88771333D01*
X156719166Y-88971333D01*
X156852500Y-89104666D01*
X156985833Y-89171333D01*
X155519166Y-90104666D02*
X155519166Y-90171333D01*
X155585833Y-90304666D01*
X155652500Y-90371333D01*
X154119166Y-90171333D02*
X154585833Y-89504666D01*
X154919166Y-90171333D02*
X154919166Y-88771333D01*
X154385833Y-88771333D01*
X154252500Y-88838000D01*
X154185833Y-88904666D01*
X154119166Y-89038000D01*
X154119166Y-89238000D01*
X154185833Y-89371333D01*
X154252500Y-89438000D01*
X154385833Y-89504666D01*
X154919166Y-89504666D01*
X153585833Y-88904666D02*
X153519166Y-88838000D01*
X153385833Y-88771333D01*
X153052500Y-88771333D01*
X152919166Y-88838000D01*
X152852500Y-88904666D01*
X152785833Y-89038000D01*
X152785833Y-89171333D01*
X152852500Y-89371333D01*
X153652500Y-90171333D01*
X152785833Y-90171333D01*
X152185833Y-90038000D02*
X152119166Y-90104666D01*
X152185833Y-90171333D01*
X152252500Y-90104666D01*
X152185833Y-90038000D01*
X152185833Y-90171333D01*
X152185833Y-89304666D02*
X152119166Y-89371333D01*
X152185833Y-89438000D01*
X152252500Y-89371333D01*
X152185833Y-89304666D01*
X152185833Y-89438000D01*
X149785833Y-88771333D02*
X150452500Y-88771333D01*
X150519166Y-89438000D01*
X150452500Y-89371333D01*
X150319166Y-89304666D01*
X149985833Y-89304666D01*
X149852500Y-89371333D01*
X149785833Y-89438000D01*
X149719166Y-89571333D01*
X149719166Y-89904666D01*
X149785833Y-90038000D01*
X149852500Y-90104666D01*
X149985833Y-90171333D01*
X150319166Y-90171333D01*
X150452500Y-90104666D01*
X150519166Y-90038000D01*
X149119166Y-90171333D02*
X149119166Y-88771333D01*
X148985833Y-89638000D02*
X148585833Y-90171333D01*
X148585833Y-89238000D02*
X149119166Y-89771333D01*
X157519166Y-92292000D02*
X157585833Y-92358666D01*
X157785833Y-92425333D01*
X157919166Y-92425333D01*
X158119166Y-92358666D01*
X158252500Y-92225333D01*
X158319166Y-92092000D01*
X158385833Y-91825333D01*
X158385833Y-91625333D01*
X158319166Y-91358666D01*
X158252500Y-91225333D01*
X158119166Y-91092000D01*
X157919166Y-91025333D01*
X157785833Y-91025333D01*
X157585833Y-91092000D01*
X157519166Y-91158666D01*
X156185833Y-92425333D02*
X156985833Y-92425333D01*
X156585833Y-92425333D02*
X156585833Y-91025333D01*
X156719166Y-91225333D01*
X156852500Y-91358666D01*
X156985833Y-91425333D01*
X155585833Y-92292000D02*
X155519166Y-92358666D01*
X155585833Y-92425333D01*
X155652500Y-92358666D01*
X155585833Y-92292000D01*
X155585833Y-92425333D01*
X155585833Y-91558666D02*
X155519166Y-91625333D01*
X155585833Y-91692000D01*
X155652500Y-91625333D01*
X155585833Y-91558666D01*
X155585833Y-91692000D01*
X153119166Y-92425333D02*
X153919166Y-92425333D01*
X153519166Y-92425333D02*
X153519166Y-91025333D01*
X153652500Y-91225333D01*
X153785833Y-91358666D01*
X153919166Y-91425333D01*
X152252500Y-91025333D02*
X152119166Y-91025333D01*
X151985833Y-91092000D01*
X151919166Y-91158666D01*
X151852500Y-91292000D01*
X151785833Y-91558666D01*
X151785833Y-91892000D01*
X151852500Y-92158666D01*
X151919166Y-92292000D01*
X151985833Y-92358666D01*
X152119166Y-92425333D01*
X152252500Y-92425333D01*
X152385833Y-92358666D01*
X152452500Y-92292000D01*
X152519166Y-92158666D01*
X152585833Y-91892000D01*
X152585833Y-91558666D01*
X152519166Y-91292000D01*
X152452500Y-91158666D01*
X152385833Y-91092000D01*
X152252500Y-91025333D01*
X150585833Y-91492000D02*
X150585833Y-92425333D01*
X151185833Y-91492000D02*
X151185833Y-92225333D01*
X151119166Y-92358666D01*
X150985833Y-92425333D01*
X150785833Y-92425333D01*
X150652500Y-92358666D01*
X150585833Y-92292000D01*
X149452500Y-91692000D02*
X149919166Y-91692000D01*
X149919166Y-92425333D02*
X149919166Y-91025333D01*
X149252500Y-91025333D01*
X157519166Y-94546000D02*
X157585833Y-94612666D01*
X157785833Y-94679333D01*
X157919166Y-94679333D01*
X158119166Y-94612666D01*
X158252500Y-94479333D01*
X158319166Y-94346000D01*
X158385833Y-94079333D01*
X158385833Y-93879333D01*
X158319166Y-93612666D01*
X158252500Y-93479333D01*
X158119166Y-93346000D01*
X157919166Y-93279333D01*
X157785833Y-93279333D01*
X157585833Y-93346000D01*
X157519166Y-93412666D01*
X156985833Y-93412666D02*
X156919166Y-93346000D01*
X156785833Y-93279333D01*
X156452500Y-93279333D01*
X156319166Y-93346000D01*
X156252500Y-93412666D01*
X156185833Y-93546000D01*
X156185833Y-93679333D01*
X156252500Y-93879333D01*
X157052500Y-94679333D01*
X156185833Y-94679333D01*
X155585833Y-94546000D02*
X155519166Y-94612666D01*
X155585833Y-94679333D01*
X155652500Y-94612666D01*
X155585833Y-94546000D01*
X155585833Y-94679333D01*
X155585833Y-93812666D02*
X155519166Y-93879333D01*
X155585833Y-93946000D01*
X155652500Y-93879333D01*
X155585833Y-93812666D01*
X155585833Y-93946000D01*
X153585833Y-93279333D02*
X153452500Y-93279333D01*
X153319166Y-93346000D01*
X153252500Y-93412666D01*
X153185833Y-93546000D01*
X153119166Y-93812666D01*
X153119166Y-94146000D01*
X153185833Y-94412666D01*
X153252500Y-94546000D01*
X153319166Y-94612666D01*
X153452500Y-94679333D01*
X153585833Y-94679333D01*
X153719166Y-94612666D01*
X153785833Y-94546000D01*
X153852500Y-94412666D01*
X153919166Y-94146000D01*
X153919166Y-93812666D01*
X153852500Y-93546000D01*
X153785833Y-93412666D01*
X153719166Y-93346000D01*
X153585833Y-93279333D01*
X152519166Y-94546000D02*
X152452500Y-94612666D01*
X152519166Y-94679333D01*
X152585833Y-94612666D01*
X152519166Y-94546000D01*
X152519166Y-94679333D01*
X151119166Y-94679333D02*
X151919166Y-94679333D01*
X151519166Y-94679333D02*
X151519166Y-93279333D01*
X151652500Y-93479333D01*
X151785833Y-93612666D01*
X151919166Y-93679333D01*
X149919166Y-93746000D02*
X149919166Y-94679333D01*
X150519166Y-93746000D02*
X150519166Y-94479333D01*
X150452500Y-94612666D01*
X150319166Y-94679333D01*
X150119166Y-94679333D01*
X149985833Y-94612666D01*
X149919166Y-94546000D01*
X148785833Y-93946000D02*
X149252500Y-93946000D01*
X149252500Y-94679333D02*
X149252500Y-93279333D01*
X148585833Y-93279333D01*
X157519166Y-96933333D02*
X157985833Y-96266666D01*
X158319166Y-96933333D02*
X158319166Y-95533333D01*
X157785833Y-95533333D01*
X157652500Y-95600000D01*
X157585833Y-95666666D01*
X157519166Y-95800000D01*
X157519166Y-96000000D01*
X157585833Y-96133333D01*
X157652500Y-96200000D01*
X157785833Y-96266666D01*
X158319166Y-96266666D01*
X157052500Y-95533333D02*
X156185833Y-95533333D01*
X156652500Y-96066666D01*
X156452500Y-96066666D01*
X156319166Y-96133333D01*
X156252500Y-96200000D01*
X156185833Y-96333333D01*
X156185833Y-96666666D01*
X156252500Y-96800000D01*
X156319166Y-96866666D01*
X156452500Y-96933333D01*
X156852500Y-96933333D01*
X156985833Y-96866666D01*
X157052500Y-96800000D01*
X155585833Y-96800000D02*
X155519166Y-96866666D01*
X155585833Y-96933333D01*
X155652500Y-96866666D01*
X155585833Y-96800000D01*
X155585833Y-96933333D01*
X155585833Y-96066666D02*
X155519166Y-96133333D01*
X155585833Y-96200000D01*
X155652500Y-96133333D01*
X155585833Y-96066666D01*
X155585833Y-96200000D01*
X153119166Y-96933333D02*
X153919166Y-96933333D01*
X153519166Y-96933333D02*
X153519166Y-95533333D01*
X153652500Y-95733333D01*
X153785833Y-95866666D01*
X153919166Y-95933333D01*
X152519166Y-96800000D02*
X152452500Y-96866666D01*
X152519166Y-96933333D01*
X152585833Y-96866666D01*
X152519166Y-96800000D01*
X152519166Y-96933333D01*
X151652500Y-96133333D02*
X151785833Y-96066666D01*
X151852500Y-96000000D01*
X151919166Y-95866666D01*
X151919166Y-95800000D01*
X151852500Y-95666666D01*
X151785833Y-95600000D01*
X151652500Y-95533333D01*
X151385833Y-95533333D01*
X151252500Y-95600000D01*
X151185833Y-95666666D01*
X151119166Y-95800000D01*
X151119166Y-95866666D01*
X151185833Y-96000000D01*
X151252500Y-96066666D01*
X151385833Y-96133333D01*
X151652500Y-96133333D01*
X151785833Y-96200000D01*
X151852500Y-96266666D01*
X151919166Y-96400000D01*
X151919166Y-96666666D01*
X151852500Y-96800000D01*
X151785833Y-96866666D01*
X151652500Y-96933333D01*
X151385833Y-96933333D01*
X151252500Y-96866666D01*
X151185833Y-96800000D01*
X151119166Y-96666666D01*
X151119166Y-96400000D01*
X151185833Y-96266666D01*
X151252500Y-96200000D01*
X151385833Y-96133333D01*
X150652500Y-95533333D02*
X149719166Y-95533333D01*
X150319166Y-96933333D01*
X149185833Y-96933333D02*
X149185833Y-95533333D01*
X148719166Y-96533333D01*
X148252500Y-95533333D01*
X148252500Y-96933333D01*
X157519166Y-99187333D02*
X157985833Y-98520666D01*
X158319166Y-99187333D02*
X158319166Y-97787333D01*
X157785833Y-97787333D01*
X157652500Y-97854000D01*
X157585833Y-97920666D01*
X157519166Y-98054000D01*
X157519166Y-98254000D01*
X157585833Y-98387333D01*
X157652500Y-98454000D01*
X157785833Y-98520666D01*
X158319166Y-98520666D01*
X156319166Y-98254000D02*
X156319166Y-99187333D01*
X156652500Y-97720666D02*
X156985833Y-98720666D01*
X156119166Y-98720666D01*
X155585833Y-99054000D02*
X155519166Y-99120666D01*
X155585833Y-99187333D01*
X155652500Y-99120666D01*
X155585833Y-99054000D01*
X155585833Y-99187333D01*
X155585833Y-98320666D02*
X155519166Y-98387333D01*
X155585833Y-98454000D01*
X155652500Y-98387333D01*
X155585833Y-98320666D01*
X155585833Y-98454000D01*
X153919166Y-97920666D02*
X153852500Y-97854000D01*
X153719166Y-97787333D01*
X153385833Y-97787333D01*
X153252500Y-97854000D01*
X153185833Y-97920666D01*
X153119166Y-98054000D01*
X153119166Y-98187333D01*
X153185833Y-98387333D01*
X153985833Y-99187333D01*
X153119166Y-99187333D01*
X152252500Y-97787333D02*
X152119166Y-97787333D01*
X151985833Y-97854000D01*
X151919166Y-97920666D01*
X151852500Y-98054000D01*
X151785833Y-98320666D01*
X151785833Y-98654000D01*
X151852500Y-98920666D01*
X151919166Y-99054000D01*
X151985833Y-99120666D01*
X152119166Y-99187333D01*
X152252500Y-99187333D01*
X152385833Y-99120666D01*
X152452500Y-99054000D01*
X152519166Y-98920666D01*
X152585833Y-98654000D01*
X152585833Y-98320666D01*
X152519166Y-98054000D01*
X152452500Y-97920666D01*
X152385833Y-97854000D01*
X152252500Y-97787333D01*
X150919166Y-97787333D02*
X150785833Y-97787333D01*
X150652500Y-97854000D01*
X150585833Y-97920666D01*
X150519166Y-98054000D01*
X150452500Y-98320666D01*
X150452500Y-98654000D01*
X150519166Y-98920666D01*
X150585833Y-99054000D01*
X150652500Y-99120666D01*
X150785833Y-99187333D01*
X150919166Y-99187333D01*
X151052500Y-99120666D01*
X151119166Y-99054000D01*
X151185833Y-98920666D01*
X151252500Y-98654000D01*
X151252500Y-98320666D01*
X151185833Y-98054000D01*
X151119166Y-97920666D01*
X151052500Y-97854000D01*
X150919166Y-97787333D01*
X149852500Y-99187333D02*
X149852500Y-97787333D01*
X149719166Y-98654000D02*
X149319166Y-99187333D01*
X149319166Y-98254000D02*
X149852500Y-98787333D01*
X157519166Y-101308000D02*
X157585833Y-101374666D01*
X157785833Y-101441333D01*
X157919166Y-101441333D01*
X158119166Y-101374666D01*
X158252500Y-101241333D01*
X158319166Y-101108000D01*
X158385833Y-100841333D01*
X158385833Y-100641333D01*
X158319166Y-100374666D01*
X158252500Y-100241333D01*
X158119166Y-100108000D01*
X157919166Y-100041333D01*
X157785833Y-100041333D01*
X157585833Y-100108000D01*
X157519166Y-100174666D01*
X157052500Y-100041333D02*
X156185833Y-100041333D01*
X156652500Y-100574666D01*
X156452500Y-100574666D01*
X156319166Y-100641333D01*
X156252500Y-100708000D01*
X156185833Y-100841333D01*
X156185833Y-101174666D01*
X156252500Y-101308000D01*
X156319166Y-101374666D01*
X156452500Y-101441333D01*
X156852500Y-101441333D01*
X156985833Y-101374666D01*
X157052500Y-101308000D01*
X155585833Y-101308000D02*
X155519166Y-101374666D01*
X155585833Y-101441333D01*
X155652500Y-101374666D01*
X155585833Y-101308000D01*
X155585833Y-101441333D01*
X155585833Y-100574666D02*
X155519166Y-100641333D01*
X155585833Y-100708000D01*
X155652500Y-100641333D01*
X155585833Y-100574666D01*
X155585833Y-100708000D01*
X153919166Y-100174666D02*
X153852500Y-100108000D01*
X153719166Y-100041333D01*
X153385833Y-100041333D01*
X153252500Y-100108000D01*
X153185833Y-100174666D01*
X153119166Y-100308000D01*
X153119166Y-100441333D01*
X153185833Y-100641333D01*
X153985833Y-101441333D01*
X153119166Y-101441333D01*
X152519166Y-101308000D02*
X152452500Y-101374666D01*
X152519166Y-101441333D01*
X152585833Y-101374666D01*
X152519166Y-101308000D01*
X152519166Y-101441333D01*
X151919166Y-100174666D02*
X151852500Y-100108000D01*
X151719166Y-100041333D01*
X151385833Y-100041333D01*
X151252500Y-100108000D01*
X151185833Y-100174666D01*
X151119166Y-100308000D01*
X151119166Y-100441333D01*
X151185833Y-100641333D01*
X151985833Y-101441333D01*
X151119166Y-101441333D01*
X149919166Y-100508000D02*
X149919166Y-101441333D01*
X150519166Y-100508000D02*
X150519166Y-101241333D01*
X150452500Y-101374666D01*
X150319166Y-101441333D01*
X150119166Y-101441333D01*
X149985833Y-101374666D01*
X149919166Y-101308000D01*
X148785833Y-100708000D02*
X149252500Y-100708000D01*
X149252500Y-101441333D02*
X149252500Y-100041333D01*
X148585833Y-100041333D01*
X157519166Y-103562000D02*
X157585833Y-103628666D01*
X157785833Y-103695333D01*
X157919166Y-103695333D01*
X158119166Y-103628666D01*
X158252500Y-103495333D01*
X158319166Y-103362000D01*
X158385833Y-103095333D01*
X158385833Y-102895333D01*
X158319166Y-102628666D01*
X158252500Y-102495333D01*
X158119166Y-102362000D01*
X157919166Y-102295333D01*
X157785833Y-102295333D01*
X157585833Y-102362000D01*
X157519166Y-102428666D01*
X156319166Y-102762000D02*
X156319166Y-103695333D01*
X156652500Y-102228666D02*
X156985833Y-103228666D01*
X156119166Y-103228666D01*
X155519166Y-103628666D02*
X155519166Y-103695333D01*
X155585833Y-103828666D01*
X155652500Y-103895333D01*
X154119166Y-103562000D02*
X154185833Y-103628666D01*
X154385833Y-103695333D01*
X154519166Y-103695333D01*
X154719166Y-103628666D01*
X154852500Y-103495333D01*
X154919166Y-103362000D01*
X154985833Y-103095333D01*
X154985833Y-102895333D01*
X154919166Y-102628666D01*
X154852500Y-102495333D01*
X154719166Y-102362000D01*
X154519166Y-102295333D01*
X154385833Y-102295333D01*
X154185833Y-102362000D01*
X154119166Y-102428666D01*
X152852500Y-102295333D02*
X153519166Y-102295333D01*
X153585833Y-102962000D01*
X153519166Y-102895333D01*
X153385833Y-102828666D01*
X153052500Y-102828666D01*
X152919166Y-102895333D01*
X152852500Y-102962000D01*
X152785833Y-103095333D01*
X152785833Y-103428666D01*
X152852500Y-103562000D01*
X152919166Y-103628666D01*
X153052500Y-103695333D01*
X153385833Y-103695333D01*
X153519166Y-103628666D01*
X153585833Y-103562000D01*
X152185833Y-103562000D02*
X152119166Y-103628666D01*
X152185833Y-103695333D01*
X152252500Y-103628666D01*
X152185833Y-103562000D01*
X152185833Y-103695333D01*
X152185833Y-102828666D02*
X152119166Y-102895333D01*
X152185833Y-102962000D01*
X152252500Y-102895333D01*
X152185833Y-102828666D01*
X152185833Y-102962000D01*
X149719166Y-103695333D02*
X150519166Y-103695333D01*
X150119166Y-103695333D02*
X150119166Y-102295333D01*
X150252500Y-102495333D01*
X150385833Y-102628666D01*
X150519166Y-102695333D01*
X148852500Y-102295333D02*
X148719166Y-102295333D01*
X148585833Y-102362000D01*
X148519166Y-102428666D01*
X148452500Y-102562000D01*
X148385833Y-102828666D01*
X148385833Y-103162000D01*
X148452500Y-103428666D01*
X148519166Y-103562000D01*
X148585833Y-103628666D01*
X148719166Y-103695333D01*
X148852500Y-103695333D01*
X148985833Y-103628666D01*
X149052500Y-103562000D01*
X149119166Y-103428666D01*
X149185833Y-103162000D01*
X149185833Y-102828666D01*
X149119166Y-102562000D01*
X149052500Y-102428666D01*
X148985833Y-102362000D01*
X148852500Y-102295333D01*
X147519166Y-102295333D02*
X147385833Y-102295333D01*
X147252500Y-102362000D01*
X147185833Y-102428666D01*
X147119166Y-102562000D01*
X147052500Y-102828666D01*
X147052500Y-103162000D01*
X147119166Y-103428666D01*
X147185833Y-103562000D01*
X147252500Y-103628666D01*
X147385833Y-103695333D01*
X147519166Y-103695333D01*
X147652500Y-103628666D01*
X147719166Y-103562000D01*
X147785833Y-103428666D01*
X147852500Y-103162000D01*
X147852500Y-102828666D01*
X147785833Y-102562000D01*
X147719166Y-102428666D01*
X147652500Y-102362000D01*
X147519166Y-102295333D01*
X145852500Y-102762000D02*
X145852500Y-103695333D01*
X146452500Y-102762000D02*
X146452500Y-103495333D01*
X146385833Y-103628666D01*
X146252500Y-103695333D01*
X146052500Y-103695333D01*
X145919166Y-103628666D01*
X145852500Y-103562000D01*
X144719166Y-102962000D02*
X145185833Y-102962000D01*
X145185833Y-103695333D02*
X145185833Y-102295333D01*
X144519166Y-102295333D01*
X157519166Y-105949333D02*
X157985833Y-105282666D01*
X158319166Y-105949333D02*
X158319166Y-104549333D01*
X157785833Y-104549333D01*
X157652500Y-104616000D01*
X157585833Y-104682666D01*
X157519166Y-104816000D01*
X157519166Y-105016000D01*
X157585833Y-105149333D01*
X157652500Y-105216000D01*
X157785833Y-105282666D01*
X158319166Y-105282666D01*
X156252500Y-104549333D02*
X156919166Y-104549333D01*
X156985833Y-105216000D01*
X156919166Y-105149333D01*
X156785833Y-105082666D01*
X156452500Y-105082666D01*
X156319166Y-105149333D01*
X156252500Y-105216000D01*
X156185833Y-105349333D01*
X156185833Y-105682666D01*
X156252500Y-105816000D01*
X156319166Y-105882666D01*
X156452500Y-105949333D01*
X156785833Y-105949333D01*
X156919166Y-105882666D01*
X156985833Y-105816000D01*
X155519166Y-105882666D02*
X155519166Y-105949333D01*
X155585833Y-106082666D01*
X155652500Y-106149333D01*
X154119166Y-105949333D02*
X154585833Y-105282666D01*
X154919166Y-105949333D02*
X154919166Y-104549333D01*
X154385833Y-104549333D01*
X154252500Y-104616000D01*
X154185833Y-104682666D01*
X154119166Y-104816000D01*
X154119166Y-105016000D01*
X154185833Y-105149333D01*
X154252500Y-105216000D01*
X154385833Y-105282666D01*
X154919166Y-105282666D01*
X152919166Y-104549333D02*
X153185833Y-104549333D01*
X153319166Y-104616000D01*
X153385833Y-104682666D01*
X153519166Y-104882666D01*
X153585833Y-105149333D01*
X153585833Y-105682666D01*
X153519166Y-105816000D01*
X153452500Y-105882666D01*
X153319166Y-105949333D01*
X153052500Y-105949333D01*
X152919166Y-105882666D01*
X152852500Y-105816000D01*
X152785833Y-105682666D01*
X152785833Y-105349333D01*
X152852500Y-105216000D01*
X152919166Y-105149333D01*
X153052500Y-105082666D01*
X153319166Y-105082666D01*
X153452500Y-105149333D01*
X153519166Y-105216000D01*
X153585833Y-105349333D01*
X152185833Y-105816000D02*
X152119166Y-105882666D01*
X152185833Y-105949333D01*
X152252500Y-105882666D01*
X152185833Y-105816000D01*
X152185833Y-105949333D01*
X152185833Y-105082666D02*
X152119166Y-105149333D01*
X152185833Y-105216000D01*
X152252500Y-105149333D01*
X152185833Y-105082666D01*
X152185833Y-105216000D01*
X149719166Y-105949333D02*
X150519166Y-105949333D01*
X150119166Y-105949333D02*
X150119166Y-104549333D01*
X150252500Y-104749333D01*
X150385833Y-104882666D01*
X150519166Y-104949333D01*
X148852500Y-104549333D02*
X148719166Y-104549333D01*
X148585833Y-104616000D01*
X148519166Y-104682666D01*
X148452500Y-104816000D01*
X148385833Y-105082666D01*
X148385833Y-105416000D01*
X148452500Y-105682666D01*
X148519166Y-105816000D01*
X148585833Y-105882666D01*
X148719166Y-105949333D01*
X148852500Y-105949333D01*
X148985833Y-105882666D01*
X149052500Y-105816000D01*
X149119166Y-105682666D01*
X149185833Y-105416000D01*
X149185833Y-105082666D01*
X149119166Y-104816000D01*
X149052500Y-104682666D01*
X148985833Y-104616000D01*
X148852500Y-104549333D01*
X147519166Y-104549333D02*
X147385833Y-104549333D01*
X147252500Y-104616000D01*
X147185833Y-104682666D01*
X147119166Y-104816000D01*
X147052500Y-105082666D01*
X147052500Y-105416000D01*
X147119166Y-105682666D01*
X147185833Y-105816000D01*
X147252500Y-105882666D01*
X147385833Y-105949333D01*
X147519166Y-105949333D01*
X147652500Y-105882666D01*
X147719166Y-105816000D01*
X147785833Y-105682666D01*
X147852500Y-105416000D01*
X147852500Y-105082666D01*
X147785833Y-104816000D01*
X147719166Y-104682666D01*
X147652500Y-104616000D01*
X147519166Y-104549333D01*
X146452500Y-105949333D02*
X146452500Y-104549333D01*
X146319166Y-105416000D02*
X145919166Y-105949333D01*
X145919166Y-105016000D02*
X146452500Y-105549333D01*
%TO.C,kibuzzard-65DE8FDD*%
G36*
X159336795Y-105250000D02*
G01*
X160209713Y-103940623D01*
X193990287Y-103940623D01*
X194863205Y-105250000D01*
X193990287Y-106559377D01*
X160209713Y-106559377D01*
X159680960Y-105766248D01*
X160606588Y-105766248D01*
X160849364Y-105766248D01*
X160862386Y-105659277D01*
X160935767Y-105729041D01*
X161021963Y-105770898D01*
X161120975Y-105784851D01*
X161231615Y-105769296D01*
X161326648Y-105722633D01*
X161406074Y-105644860D01*
X161465760Y-105539388D01*
X161501572Y-105409628D01*
X161513510Y-105255581D01*
X161501779Y-105109337D01*
X161466587Y-104984383D01*
X161407935Y-104880720D01*
X161328921Y-104803206D01*
X161232648Y-104756697D01*
X161207668Y-104753286D01*
X161597225Y-104753286D01*
X161600946Y-105011875D01*
X161697684Y-105004434D01*
X161823956Y-105030246D01*
X161897672Y-105107683D01*
X161897672Y-105766248D01*
X162166493Y-105766248D01*
X162332994Y-105766248D01*
X162604606Y-105766248D01*
X162631581Y-105676021D01*
X162743900Y-105757643D01*
X162885519Y-105784851D01*
X163020743Y-105763457D01*
X163130620Y-105699275D01*
X163203523Y-105602537D01*
X163227823Y-105483474D01*
X163214169Y-105418362D01*
X163341305Y-105418362D01*
X163355723Y-105516379D01*
X163397115Y-105605792D01*
X163462112Y-105681369D01*
X163547339Y-105737877D01*
X163647682Y-105773108D01*
X163758024Y-105784851D01*
X163891762Y-105769607D01*
X164005244Y-105723873D01*
X164098468Y-105647650D01*
X164167714Y-105544556D01*
X164189941Y-105476963D01*
X164354266Y-105476963D01*
X164383799Y-105601490D01*
X164472399Y-105699740D01*
X164558802Y-105747024D01*
X164660501Y-105775394D01*
X164777496Y-105784851D01*
X164896908Y-105773573D01*
X165002134Y-105739738D01*
X165089687Y-105686252D01*
X165156078Y-105616024D01*
X165197936Y-105534285D01*
X165207022Y-105476963D01*
X165333741Y-105476963D01*
X165363275Y-105601490D01*
X165451874Y-105699740D01*
X165538277Y-105747024D01*
X165639976Y-105775394D01*
X165756971Y-105784851D01*
X165876383Y-105773573D01*
X165981609Y-105739738D01*
X166069162Y-105686252D01*
X166135553Y-105616024D01*
X166177411Y-105534285D01*
X166191364Y-105446267D01*
X165936495Y-105446267D01*
X165883475Y-105556028D01*
X165751390Y-105594165D01*
X165634653Y-105564865D01*
X165595121Y-105488125D01*
X165643955Y-105410455D01*
X165707556Y-105383596D01*
X165800690Y-105359761D01*
X165831567Y-105350459D01*
X166292753Y-105350459D01*
X166933644Y-105350459D01*
X166907483Y-105439291D01*
X166855044Y-105508589D01*
X166780746Y-105553237D01*
X166689008Y-105568120D01*
X166550644Y-105539982D01*
X166446232Y-105455569D01*
X166314147Y-105603467D01*
X166385305Y-105679625D01*
X166477858Y-105736947D01*
X166586688Y-105772875D01*
X166706681Y-105784851D01*
X166845122Y-105769762D01*
X166965270Y-105724493D01*
X167067124Y-105649045D01*
X167144380Y-105548483D01*
X167190734Y-105427870D01*
X167206185Y-105287207D01*
X167206185Y-105261162D01*
X167191535Y-105117566D01*
X167147584Y-104990016D01*
X167076775Y-104884208D01*
X166981548Y-104805841D01*
X166866555Y-104757356D01*
X166833791Y-104753286D01*
X167295482Y-104753286D01*
X167299203Y-105011875D01*
X167395941Y-105004434D01*
X167522213Y-105030246D01*
X167595929Y-105107683D01*
X167595929Y-105766248D01*
X167864750Y-105766248D01*
X167864750Y-105272324D01*
X168031251Y-105272324D01*
X168042982Y-105417070D01*
X168078173Y-105541248D01*
X168136826Y-105644860D01*
X168215426Y-105722633D01*
X168310459Y-105769296D01*
X168421925Y-105784851D01*
X168559824Y-105758341D01*
X168668422Y-105678811D01*
X168668422Y-106153201D01*
X168937242Y-106153201D01*
X168937242Y-105766248D01*
X169054445Y-105766248D01*
X169342799Y-105766248D01*
X169522323Y-105449988D01*
X169700917Y-105766248D01*
X169990201Y-105766248D01*
X169748411Y-105350459D01*
X170059034Y-105350459D01*
X170699926Y-105350459D01*
X170673764Y-105439291D01*
X170621326Y-105508589D01*
X170547028Y-105553237D01*
X170455289Y-105568120D01*
X170316926Y-105539982D01*
X170212513Y-105455569D01*
X170080428Y-105603467D01*
X170151587Y-105679625D01*
X170244139Y-105736947D01*
X170352970Y-105772875D01*
X170472963Y-105784851D01*
X170611404Y-105769762D01*
X170731552Y-105724493D01*
X170833406Y-105649045D01*
X170910662Y-105548483D01*
X170957016Y-105427870D01*
X170958060Y-105418362D01*
X171828229Y-105418362D01*
X171842646Y-105516379D01*
X171884039Y-105605792D01*
X171949035Y-105681369D01*
X172034263Y-105737877D01*
X172134605Y-105773108D01*
X172244948Y-105784851D01*
X172378686Y-105769607D01*
X172492168Y-105723873D01*
X172585392Y-105647650D01*
X172654638Y-105544556D01*
X172696186Y-105418207D01*
X172707624Y-105294648D01*
X172883978Y-105294648D01*
X173407667Y-105294648D01*
X173407667Y-105272324D01*
X173572308Y-105272324D01*
X173583781Y-105421721D01*
X173618197Y-105547450D01*
X173675558Y-105649510D01*
X173753486Y-105724700D01*
X173849604Y-105769813D01*
X173963912Y-105784851D01*
X174065715Y-105770898D01*
X174152841Y-105729041D01*
X174225292Y-105659277D01*
X174237384Y-105766248D01*
X174479230Y-105766248D01*
X174479230Y-105476963D01*
X174652242Y-105476963D01*
X174681776Y-105601490D01*
X174770375Y-105699740D01*
X174856778Y-105747024D01*
X174958477Y-105775394D01*
X175075472Y-105784851D01*
X175194884Y-105773573D01*
X175217665Y-105766248D01*
X175661483Y-105766248D01*
X175914491Y-105766248D01*
X175921932Y-105663928D01*
X175996760Y-105731108D01*
X176088537Y-105771415D01*
X176197264Y-105784851D01*
X176339930Y-105761597D01*
X176444226Y-105691833D01*
X176508524Y-105577189D01*
X176531198Y-105419292D01*
X176531198Y-104759797D01*
X176262377Y-104759797D01*
X176262377Y-105409990D01*
X176226565Y-105527890D01*
X176119130Y-105567190D01*
X176003788Y-105543470D01*
X175931234Y-105472312D01*
X175931234Y-104759797D01*
X175661483Y-104759797D01*
X175661483Y-105766248D01*
X175217665Y-105766248D01*
X175300110Y-105739738D01*
X175387663Y-105686252D01*
X175454054Y-105616024D01*
X175495912Y-105534285D01*
X175509865Y-105446267D01*
X175254996Y-105446267D01*
X175201976Y-105556028D01*
X175069891Y-105594165D01*
X174953154Y-105564865D01*
X174913622Y-105488125D01*
X174962456Y-105410455D01*
X175026057Y-105383596D01*
X175119191Y-105359761D01*
X175276274Y-105312438D01*
X175388477Y-105245814D01*
X175455798Y-105159889D01*
X175478239Y-105054663D01*
X175450450Y-104931764D01*
X175367083Y-104830956D01*
X175285382Y-104781088D01*
X175188489Y-104751167D01*
X175076403Y-104741194D01*
X174957185Y-104751219D01*
X174855021Y-104781295D01*
X174769910Y-104831421D01*
X174683752Y-104935135D01*
X174655033Y-105065825D01*
X174923854Y-105065825D01*
X174961061Y-104970482D01*
X175077333Y-104932810D01*
X175182443Y-104963506D01*
X175219650Y-105041641D01*
X175177327Y-105113729D01*
X175034545Y-105161168D01*
X174941992Y-105182446D01*
X174865253Y-105206282D01*
X174746914Y-105271084D01*
X174675910Y-105361311D01*
X174652242Y-105476963D01*
X174479230Y-105476963D01*
X174479230Y-104411912D01*
X176653051Y-104411912D01*
X177151625Y-105882520D01*
X177351613Y-105882520D01*
X177312194Y-105766248D01*
X177320917Y-105766248D01*
X177629735Y-105766248D01*
X177888324Y-105362551D01*
X177985062Y-105459290D01*
X177985062Y-105766248D01*
X178253883Y-105766248D01*
X178253883Y-105273254D01*
X178419454Y-105273254D01*
X178433820Y-105417483D01*
X178476919Y-105541352D01*
X178548749Y-105644860D01*
X178644764Y-105722633D01*
X178760415Y-105769296D01*
X178895704Y-105784851D01*
X179031045Y-105769348D01*
X179038764Y-105766248D01*
X179534735Y-105766248D01*
X179803556Y-105766248D01*
X179803556Y-105122566D01*
X179840763Y-104998387D01*
X179964476Y-104959785D01*
X180063773Y-104983970D01*
X180134698Y-105056523D01*
X180134698Y-105766248D01*
X180403519Y-105766248D01*
X180600717Y-105766248D01*
X180869537Y-105766248D01*
X180869537Y-105129077D01*
X180906744Y-105001178D01*
X181030458Y-104959785D01*
X181132312Y-104982574D01*
X181201610Y-105050942D01*
X181201610Y-105766248D01*
X181470431Y-105766248D01*
X181630421Y-105766248D01*
X181902032Y-105766248D01*
X181929008Y-105676021D01*
X182041326Y-105757643D01*
X182182946Y-105784851D01*
X182318170Y-105763457D01*
X182322946Y-105760667D01*
X182624779Y-105760667D01*
X182705007Y-105778805D01*
X182787560Y-105784851D01*
X182911622Y-105767003D01*
X183001035Y-105713460D01*
X183055799Y-105624221D01*
X183075914Y-105499287D01*
X183075914Y-104956995D01*
X183222882Y-104956995D01*
X183222882Y-104759797D01*
X183075914Y-104759797D01*
X183075914Y-104512371D01*
X182807094Y-104512371D01*
X182807094Y-104759797D01*
X182635011Y-104759797D01*
X182635011Y-104956995D01*
X182807094Y-104956995D01*
X182807094Y-105459290D01*
X182785699Y-105539285D01*
X182703844Y-105563469D01*
X182624779Y-105556958D01*
X182624779Y-105760667D01*
X182322946Y-105760667D01*
X182428047Y-105699275D01*
X182500949Y-105602537D01*
X182525250Y-105483474D01*
X182495601Y-105342087D01*
X182406653Y-105237908D01*
X182315857Y-105190262D01*
X182201601Y-105161427D01*
X182063883Y-105151401D01*
X181940170Y-105151401D01*
X181940170Y-105093730D01*
X181975981Y-104982109D01*
X182088998Y-104940251D01*
X182195503Y-104972808D01*
X182234105Y-105062104D01*
X182502926Y-105062104D01*
X182489438Y-104977924D01*
X182448976Y-104900254D01*
X182383864Y-104833863D01*
X182296427Y-104783517D01*
X182191782Y-104751775D01*
X182075045Y-104741194D01*
X181959548Y-104751581D01*
X181861105Y-104782742D01*
X181779714Y-104834677D01*
X181697743Y-104947112D01*
X181670419Y-105097451D01*
X181670419Y-105533704D01*
X181659954Y-105659510D01*
X181630421Y-105750435D01*
X181630421Y-105766248D01*
X181470431Y-105766248D01*
X181470431Y-104411912D01*
X183257299Y-104411912D01*
X183755873Y-105882520D01*
X183955861Y-105882520D01*
X183916442Y-105766248D01*
X184047018Y-105766248D01*
X184316769Y-105766248D01*
X184316769Y-105124426D01*
X184350255Y-104999318D01*
X184468387Y-104959785D01*
X184570707Y-104988621D01*
X184635819Y-105075127D01*
X184634889Y-105766248D01*
X184903710Y-105766248D01*
X184903710Y-105125356D01*
X184938126Y-104998853D01*
X185055328Y-104959785D01*
X185153927Y-104983505D01*
X185220900Y-105054663D01*
X185220900Y-105766248D01*
X185489720Y-105766248D01*
X185489720Y-105273254D01*
X185655292Y-105273254D01*
X185669658Y-105417483D01*
X185712756Y-105541352D01*
X185784586Y-105644860D01*
X185880601Y-105722633D01*
X185996253Y-105769296D01*
X186131542Y-105784851D01*
X186266882Y-105769348D01*
X186382689Y-105722839D01*
X186478962Y-105645325D01*
X186551051Y-105541145D01*
X186593032Y-105418362D01*
X186720343Y-105418362D01*
X186734761Y-105516379D01*
X186776154Y-105605792D01*
X186841150Y-105681369D01*
X186926377Y-105737877D01*
X187026720Y-105773108D01*
X187137062Y-105784851D01*
X187270800Y-105769607D01*
X187384282Y-105723873D01*
X187477506Y-105647650D01*
X187486565Y-105634163D01*
X187795626Y-105634163D01*
X187838414Y-105736947D01*
X187948175Y-105776479D01*
X188057006Y-105736947D01*
X188099794Y-105634163D01*
X188056541Y-105529983D01*
X187948175Y-105489985D01*
X187838879Y-105529983D01*
X187795626Y-105634163D01*
X187486565Y-105634163D01*
X187546753Y-105544556D01*
X187588300Y-105418207D01*
X187601806Y-105272324D01*
X188279318Y-105272324D01*
X188290790Y-105421721D01*
X188325206Y-105547450D01*
X188382567Y-105649510D01*
X188460495Y-105724700D01*
X188556613Y-105769813D01*
X188670922Y-105784851D01*
X188772724Y-105770898D01*
X188859851Y-105729041D01*
X188932301Y-105659277D01*
X188944393Y-105766248D01*
X189186239Y-105766248D01*
X189389017Y-105766248D01*
X189642025Y-105766248D01*
X189649467Y-105663928D01*
X189724294Y-105731108D01*
X189816071Y-105771415D01*
X189924799Y-105784851D01*
X190038930Y-105766248D01*
X190454999Y-105766248D01*
X190723820Y-105766248D01*
X190723820Y-105129077D01*
X190761027Y-105001178D01*
X190884740Y-104959785D01*
X190986594Y-104982574D01*
X191055892Y-105050942D01*
X191055892Y-105766248D01*
X191324713Y-105766248D01*
X191324713Y-105760667D01*
X191457728Y-105760667D01*
X191537956Y-105778805D01*
X191620509Y-105784851D01*
X191744571Y-105767003D01*
X191833984Y-105713460D01*
X191888748Y-105624221D01*
X191908864Y-105499287D01*
X191908864Y-104956995D01*
X192055831Y-104956995D01*
X192055831Y-104759797D01*
X192183265Y-104759797D01*
X192183265Y-105766248D01*
X192453016Y-105766248D01*
X192453016Y-105732761D01*
X192673468Y-105732761D01*
X192688467Y-105856242D01*
X192733464Y-105962515D01*
X192805669Y-106048556D01*
X192902291Y-106111343D01*
X193020424Y-106149713D01*
X193157159Y-106162502D01*
X193266455Y-106151457D01*
X193372960Y-106118319D01*
X193465280Y-106067741D01*
X193532020Y-106004373D01*
X193412958Y-105840662D01*
X193301802Y-105925075D01*
X193169252Y-105953213D01*
X193074141Y-105938911D01*
X193002750Y-105896007D01*
X192958102Y-105826825D01*
X192943219Y-105733691D01*
X192943219Y-105679741D01*
X193050887Y-105758574D01*
X193187855Y-105784851D01*
X193301078Y-105769090D01*
X193398902Y-105721806D01*
X193481326Y-105642999D01*
X193543596Y-105538148D01*
X193580958Y-105412729D01*
X193593412Y-105266743D01*
X193593412Y-105255581D01*
X193581165Y-105111197D01*
X193544423Y-104986864D01*
X193483186Y-104882581D01*
X193401176Y-104804032D01*
X193302112Y-104756903D01*
X193185995Y-104741194D01*
X193038795Y-104769564D01*
X192928336Y-104854675D01*
X192917174Y-104759797D01*
X192673468Y-104759797D01*
X192673468Y-105732761D01*
X192453016Y-105732761D01*
X192453016Y-104759797D01*
X192183265Y-104759797D01*
X192055831Y-104759797D01*
X191908864Y-104759797D01*
X191908864Y-104512371D01*
X191640043Y-104512371D01*
X191640043Y-104759797D01*
X191467960Y-104759797D01*
X191467960Y-104956995D01*
X191640043Y-104956995D01*
X191640043Y-105459290D01*
X191618649Y-105539285D01*
X191536793Y-105563469D01*
X191457728Y-105556958D01*
X191457728Y-105760667D01*
X191324713Y-105760667D01*
X191324713Y-104499348D01*
X192167452Y-104499348D01*
X192208845Y-104599807D01*
X192318141Y-104638875D01*
X192427437Y-104599807D01*
X192468829Y-104499348D01*
X192428367Y-104399819D01*
X192318141Y-104360752D01*
X192208380Y-104399819D01*
X192167452Y-104499348D01*
X191324713Y-104499348D01*
X191324713Y-104337498D01*
X191055892Y-104337498D01*
X191055892Y-104869558D01*
X190978481Y-104798245D01*
X190888874Y-104755457D01*
X190787072Y-104741194D01*
X190669014Y-104756412D01*
X190576777Y-104802065D01*
X190510363Y-104878153D01*
X190469770Y-104984677D01*
X190454999Y-105121636D01*
X190454999Y-105766248D01*
X190038930Y-105766248D01*
X190067464Y-105761597D01*
X190171760Y-105691833D01*
X190236059Y-105577189D01*
X190258732Y-105419292D01*
X190258732Y-104759797D01*
X189989911Y-104759797D01*
X189989911Y-105409990D01*
X189954099Y-105527890D01*
X189846664Y-105567190D01*
X189731322Y-105543470D01*
X189658768Y-105472312D01*
X189658768Y-104759797D01*
X189389017Y-104759797D01*
X189389017Y-105766248D01*
X189186239Y-105766248D01*
X189186239Y-104337498D01*
X188917418Y-104337498D01*
X188917418Y-104850024D01*
X188809750Y-104768401D01*
X188672782Y-104741194D01*
X188558835Y-104756232D01*
X188462562Y-104801345D01*
X188383962Y-104876534D01*
X188325826Y-104979009D01*
X188290945Y-105105978D01*
X188279318Y-105257441D01*
X188279318Y-105272324D01*
X187601806Y-105272324D01*
X187602150Y-105268604D01*
X187602150Y-105250930D01*
X187588404Y-105106340D01*
X187547166Y-104982626D01*
X187478436Y-104879790D01*
X187385729Y-104802792D01*
X187272557Y-104756593D01*
X187138922Y-104741194D01*
X187021358Y-104753131D01*
X186920434Y-104788943D01*
X186836150Y-104848629D01*
X186772640Y-104928159D01*
X186734037Y-105023502D01*
X186720343Y-105134658D01*
X186972421Y-105134658D01*
X187020790Y-105007689D01*
X187143573Y-104958855D01*
X187226010Y-104975947D01*
X187285425Y-105027223D01*
X187321353Y-105116869D01*
X187333329Y-105249070D01*
X187333329Y-105276975D01*
X187321469Y-105410455D01*
X187285890Y-105500217D01*
X187226126Y-105551144D01*
X187141713Y-105568120D01*
X187020790Y-105527192D01*
X186972421Y-105418362D01*
X186720343Y-105418362D01*
X186593032Y-105418362D01*
X186594304Y-105414641D01*
X186608722Y-105265813D01*
X186608722Y-105253721D01*
X186594304Y-105112101D01*
X186551051Y-104986760D01*
X186480706Y-104882813D01*
X186385015Y-104805376D01*
X186267929Y-104757239D01*
X186133402Y-104741194D01*
X186005916Y-104755043D01*
X185895070Y-104796591D01*
X185800864Y-104865837D01*
X185727639Y-104958855D01*
X185679735Y-105071716D01*
X185657152Y-105204421D01*
X185655292Y-105273254D01*
X185489720Y-105273254D01*
X185489720Y-104759797D01*
X185237643Y-104759797D01*
X185229271Y-104872349D01*
X185149586Y-104799485D01*
X185053158Y-104755767D01*
X184939987Y-104741194D01*
X184823921Y-104758247D01*
X184734934Y-104809407D01*
X184673026Y-104894673D01*
X184592308Y-104809407D01*
X184491538Y-104758247D01*
X184370719Y-104741194D01*
X184227937Y-104765030D01*
X184127013Y-104836537D01*
X184067017Y-104955948D01*
X184047018Y-105123496D01*
X184047018Y-105766248D01*
X183916442Y-105766248D01*
X183457286Y-104411912D01*
X183257299Y-104411912D01*
X181470431Y-104411912D01*
X181470431Y-104337498D01*
X181201610Y-104337498D01*
X181201610Y-104869558D01*
X181124199Y-104798245D01*
X181034592Y-104755457D01*
X180932789Y-104741194D01*
X180814731Y-104756412D01*
X180722495Y-104802065D01*
X180656081Y-104878153D01*
X180615488Y-104984677D01*
X180600717Y-105121636D01*
X180600717Y-105766248D01*
X180403519Y-105766248D01*
X180403519Y-104759797D01*
X180150511Y-104759797D01*
X180142140Y-104876069D01*
X180062041Y-104801139D01*
X179965613Y-104756180D01*
X179852855Y-104741194D01*
X179713329Y-104764681D01*
X179614730Y-104835142D01*
X179555664Y-104952344D01*
X179534735Y-105116055D01*
X179534735Y-105766248D01*
X179038764Y-105766248D01*
X179146852Y-105722839D01*
X179243125Y-105645325D01*
X179315214Y-105541145D01*
X179358467Y-105414641D01*
X179372885Y-105265813D01*
X179372885Y-105253721D01*
X179358467Y-105112101D01*
X179315214Y-104986760D01*
X179244869Y-104882813D01*
X179149177Y-104805376D01*
X179032091Y-104757239D01*
X178897565Y-104741194D01*
X178770079Y-104755043D01*
X178659233Y-104796591D01*
X178565027Y-104865837D01*
X178491801Y-104958855D01*
X178443897Y-105071716D01*
X178421315Y-105204421D01*
X178419454Y-105273254D01*
X178253883Y-105273254D01*
X178253883Y-104337498D01*
X177985062Y-104337498D01*
X177985062Y-105129077D01*
X177932972Y-105062104D01*
X177675314Y-104759797D01*
X177352543Y-104759797D01*
X177716241Y-105179307D01*
X177320917Y-105766248D01*
X177312194Y-105766248D01*
X176853038Y-104411912D01*
X176653051Y-104411912D01*
X174479230Y-104411912D01*
X174479230Y-104337498D01*
X174210409Y-104337498D01*
X174210409Y-104850024D01*
X174102741Y-104768401D01*
X173965773Y-104741194D01*
X173851826Y-104756232D01*
X173755553Y-104801345D01*
X173676953Y-104876534D01*
X173618817Y-104979009D01*
X173583936Y-105105978D01*
X173572308Y-105257441D01*
X173572308Y-105272324D01*
X173407667Y-105272324D01*
X173407667Y-105077917D01*
X172883978Y-105077917D01*
X172883978Y-105294648D01*
X172707624Y-105294648D01*
X172710035Y-105268604D01*
X172710035Y-105250930D01*
X172696289Y-105106340D01*
X172655052Y-104982626D01*
X172586322Y-104879790D01*
X172493615Y-104802792D01*
X172380443Y-104756593D01*
X172246808Y-104741194D01*
X172129244Y-104753131D01*
X172028320Y-104788943D01*
X171944036Y-104848629D01*
X171880525Y-104928159D01*
X171841923Y-105023502D01*
X171828229Y-105134658D01*
X172080306Y-105134658D01*
X172128676Y-105007689D01*
X172251459Y-104958855D01*
X172333896Y-104975947D01*
X172393311Y-105027223D01*
X172429239Y-105116869D01*
X172441215Y-105249070D01*
X172441215Y-105276975D01*
X172429355Y-105410455D01*
X172393776Y-105500217D01*
X172334012Y-105551144D01*
X172249598Y-105568120D01*
X172128676Y-105527192D01*
X172080306Y-105418362D01*
X171828229Y-105418362D01*
X170958060Y-105418362D01*
X170971650Y-105294648D01*
X171151991Y-105294648D01*
X171675680Y-105294648D01*
X171675680Y-105077917D01*
X171151991Y-105077917D01*
X171151991Y-105294648D01*
X170971650Y-105294648D01*
X170972467Y-105287207D01*
X170972467Y-105261162D01*
X170957817Y-105117566D01*
X170913866Y-104990016D01*
X170843056Y-104884208D01*
X170747830Y-104805841D01*
X170632837Y-104757356D01*
X170502728Y-104741194D01*
X170374829Y-104755663D01*
X170266464Y-104799071D01*
X170177632Y-104871418D01*
X170111744Y-104970327D01*
X170072212Y-105093420D01*
X170059034Y-105240698D01*
X170059034Y-105350459D01*
X169748411Y-105350459D01*
X169691615Y-105252791D01*
X169977179Y-104759797D01*
X169688824Y-104759797D01*
X169523253Y-105060244D01*
X169353961Y-104759797D01*
X169066537Y-104759797D01*
X169353031Y-105252791D01*
X169054445Y-105766248D01*
X168937242Y-105766248D01*
X168937242Y-104759797D01*
X168687955Y-104759797D01*
X168678654Y-104858396D01*
X168566102Y-104770494D01*
X168423785Y-104741194D01*
X168308960Y-104756490D01*
X168212532Y-104802379D01*
X168134501Y-104878860D01*
X168077140Y-104982213D01*
X168042723Y-105108717D01*
X168031251Y-105258372D01*
X168031251Y-105272324D01*
X167864750Y-105272324D01*
X167864750Y-104759797D01*
X167610812Y-104759797D01*
X167603370Y-104879790D01*
X167506865Y-104775843D01*
X167379198Y-104741194D01*
X167295482Y-104753286D01*
X166833791Y-104753286D01*
X166736447Y-104741194D01*
X166608547Y-104755663D01*
X166500182Y-104799071D01*
X166411350Y-104871418D01*
X166345463Y-104970327D01*
X166305930Y-105093420D01*
X166292753Y-105240698D01*
X166292753Y-105350459D01*
X165831567Y-105350459D01*
X165957773Y-105312438D01*
X166069976Y-105245814D01*
X166137297Y-105159889D01*
X166159738Y-105054663D01*
X166131949Y-104931764D01*
X166048582Y-104830956D01*
X165966881Y-104781088D01*
X165869988Y-104751167D01*
X165757902Y-104741194D01*
X165638684Y-104751219D01*
X165536520Y-104781295D01*
X165451409Y-104831421D01*
X165365251Y-104935135D01*
X165336532Y-105065825D01*
X165605353Y-105065825D01*
X165642560Y-104970482D01*
X165758832Y-104932810D01*
X165863942Y-104963506D01*
X165901149Y-105041641D01*
X165858826Y-105113729D01*
X165716044Y-105161168D01*
X165623491Y-105182446D01*
X165546752Y-105206282D01*
X165428413Y-105271084D01*
X165357409Y-105361311D01*
X165333741Y-105476963D01*
X165207022Y-105476963D01*
X165211888Y-105446267D01*
X164957020Y-105446267D01*
X164904000Y-105556028D01*
X164771915Y-105594165D01*
X164655178Y-105564865D01*
X164615646Y-105488125D01*
X164664480Y-105410455D01*
X164728081Y-105383596D01*
X164821215Y-105359761D01*
X164978298Y-105312438D01*
X165090500Y-105245814D01*
X165157822Y-105159889D01*
X165180262Y-105054663D01*
X165152473Y-104931764D01*
X165069106Y-104830956D01*
X164987406Y-104781088D01*
X164890513Y-104751167D01*
X164778427Y-104741194D01*
X164659209Y-104751219D01*
X164557045Y-104781295D01*
X164471934Y-104831421D01*
X164385776Y-104935135D01*
X164357057Y-105065825D01*
X164625878Y-105065825D01*
X164663085Y-104970482D01*
X164779357Y-104932810D01*
X164884467Y-104963506D01*
X164921674Y-105041641D01*
X164879351Y-105113729D01*
X164736569Y-105161168D01*
X164644016Y-105182446D01*
X164567277Y-105206282D01*
X164448938Y-105271084D01*
X164377934Y-105361311D01*
X164354266Y-105476963D01*
X164189941Y-105476963D01*
X164209262Y-105418207D01*
X164223112Y-105268604D01*
X164223112Y-105250930D01*
X164209366Y-105106340D01*
X164168128Y-104982626D01*
X164099398Y-104879790D01*
X164006691Y-104802792D01*
X163893519Y-104756593D01*
X163759884Y-104741194D01*
X163642320Y-104753131D01*
X163541396Y-104788943D01*
X163457112Y-104848629D01*
X163393601Y-104928159D01*
X163354999Y-105023502D01*
X163341305Y-105134658D01*
X163593383Y-105134658D01*
X163641752Y-105007689D01*
X163764535Y-104958855D01*
X163846972Y-104975947D01*
X163906387Y-105027223D01*
X163942315Y-105116869D01*
X163954291Y-105249070D01*
X163954291Y-105276975D01*
X163942431Y-105410455D01*
X163906852Y-105500217D01*
X163847088Y-105551144D01*
X163762675Y-105568120D01*
X163641752Y-105527192D01*
X163593383Y-105418362D01*
X163341305Y-105418362D01*
X163214169Y-105418362D01*
X163198174Y-105342087D01*
X163109226Y-105237908D01*
X163018431Y-105190262D01*
X162904174Y-105161427D01*
X162766456Y-105151401D01*
X162642743Y-105151401D01*
X162642743Y-105093730D01*
X162678555Y-104982109D01*
X162791571Y-104940251D01*
X162898076Y-104972808D01*
X162936678Y-105062104D01*
X163205499Y-105062104D01*
X163192012Y-104977924D01*
X163151549Y-104900254D01*
X163086437Y-104833863D01*
X162999000Y-104783517D01*
X162894355Y-104751775D01*
X162777618Y-104741194D01*
X162662122Y-104751581D01*
X162563678Y-104782742D01*
X162482288Y-104834677D01*
X162400316Y-104947112D01*
X162372992Y-105097451D01*
X162372992Y-105533704D01*
X162362527Y-105659510D01*
X162332994Y-105750435D01*
X162332994Y-105766248D01*
X162166493Y-105766248D01*
X162166493Y-104759797D01*
X161912555Y-104759797D01*
X161905114Y-104879790D01*
X161808608Y-104775843D01*
X161680941Y-104741194D01*
X161597225Y-104753286D01*
X161207668Y-104753286D01*
X161119115Y-104741194D01*
X160984937Y-104768634D01*
X160876339Y-104850955D01*
X160876339Y-104337498D01*
X160606588Y-104337498D01*
X160606588Y-105766248D01*
X159680960Y-105766248D01*
X159336795Y-105250000D01*
G37*
G36*
X186220839Y-104978040D02*
G01*
X186285951Y-105035594D01*
X186326414Y-105133379D01*
X186339901Y-105273254D01*
X186326414Y-105399642D01*
X186285951Y-105492311D01*
X186220374Y-105549168D01*
X186131542Y-105568120D01*
X186044570Y-105549400D01*
X185978993Y-105493241D01*
X185937833Y-105395921D01*
X185924113Y-105253721D01*
X185937833Y-105129077D01*
X185978993Y-105036060D01*
X186045035Y-104978156D01*
X186133402Y-104958855D01*
X186220839Y-104978040D01*
G37*
G36*
X178985001Y-104978040D02*
G01*
X179050114Y-105035594D01*
X179090576Y-105133379D01*
X179104064Y-105273254D01*
X179090576Y-105399642D01*
X179050114Y-105492311D01*
X178984536Y-105549168D01*
X178895704Y-105568120D01*
X178808733Y-105549400D01*
X178743156Y-105493241D01*
X178701995Y-105395921D01*
X178688275Y-105253721D01*
X178701995Y-105129077D01*
X178743156Y-105036060D01*
X178809198Y-104978156D01*
X178897565Y-104958855D01*
X178985001Y-104978040D01*
G37*
G36*
X193203552Y-104979551D02*
G01*
X193269246Y-105038850D01*
X193310755Y-105137449D01*
X193324591Y-105275115D01*
X193310871Y-105397084D01*
X193269711Y-105489520D01*
X193204598Y-105547773D01*
X193119022Y-105567190D01*
X193013680Y-105544168D01*
X192943219Y-105475103D01*
X192943219Y-105051873D01*
X193013680Y-104982807D01*
X193117162Y-104959785D01*
X193203552Y-104979551D01*
G37*
G36*
X174142041Y-104986063D02*
G01*
X174210409Y-105064895D01*
X174210409Y-105462080D01*
X174141111Y-105541610D01*
X174031815Y-105568120D01*
X173923915Y-105536029D01*
X173860663Y-105439756D01*
X173846013Y-105362319D01*
X173841129Y-105252791D01*
X173853221Y-105120822D01*
X173889498Y-105030013D01*
X173949727Y-104977342D01*
X174033676Y-104959785D01*
X174142041Y-104986063D01*
G37*
G36*
X188849050Y-104986063D02*
G01*
X188917418Y-105064895D01*
X188917418Y-105462080D01*
X188848120Y-105541610D01*
X188738824Y-105568120D01*
X188630924Y-105536029D01*
X188567672Y-105439756D01*
X188553022Y-105362319D01*
X188548138Y-105252791D01*
X188560231Y-105120822D01*
X188596508Y-105030013D01*
X188656736Y-104977342D01*
X188740685Y-104959785D01*
X188849050Y-104986063D01*
G37*
G36*
X168601216Y-104983970D02*
G01*
X168668422Y-105056523D01*
X168668422Y-105468591D01*
X168599821Y-105543238D01*
X168492618Y-105568120D01*
X168408379Y-105548412D01*
X168348209Y-105489288D01*
X168312106Y-105390747D01*
X168300072Y-105252791D01*
X168312513Y-105128380D01*
X168349836Y-105036060D01*
X168410879Y-104978854D01*
X168494479Y-104959785D01*
X168601216Y-104983970D01*
G37*
G36*
X161135335Y-104979493D02*
G01*
X161196087Y-105038618D01*
X161232538Y-105137158D01*
X161244689Y-105275115D01*
X161232364Y-105399991D01*
X161195389Y-105491846D01*
X161134928Y-105548354D01*
X161052142Y-105567190D01*
X160945870Y-105540912D01*
X160876339Y-105462080D01*
X160876339Y-105064895D01*
X160944940Y-104986063D01*
X161050282Y-104959785D01*
X161135335Y-104979493D01*
G37*
G36*
X170633418Y-105012805D02*
G01*
X170674229Y-105078383D01*
X170697135Y-105167214D01*
X170323204Y-105167214D01*
X170323204Y-105145820D01*
X170371573Y-105007689D01*
X170503658Y-104958855D01*
X170633418Y-105012805D01*
G37*
G36*
X166867136Y-105012805D02*
G01*
X166907948Y-105078383D01*
X166930853Y-105167214D01*
X166556923Y-105167214D01*
X166556923Y-105145820D01*
X166605292Y-105007689D01*
X166737377Y-104958855D01*
X166867136Y-105012805D01*
G37*
G36*
X162856787Y-105324104D02*
G01*
X162928410Y-105370613D01*
X162958073Y-105448127D01*
X162959003Y-105463940D01*
X162923656Y-105546726D01*
X162826918Y-105579282D01*
X162717157Y-105552772D01*
X162642743Y-105481614D01*
X162642743Y-105308601D01*
X162743202Y-105308601D01*
X162856787Y-105324104D01*
G37*
G36*
X182154213Y-105324104D02*
G01*
X182225837Y-105370613D01*
X182255499Y-105448127D01*
X182256429Y-105463940D01*
X182221083Y-105546726D01*
X182124344Y-105579282D01*
X182014584Y-105552772D01*
X181940170Y-105481614D01*
X181940170Y-105308601D01*
X182040629Y-105308601D01*
X182154213Y-105324104D01*
G37*
%TO.C,kibuzzard-65DE8C34*%
G36*
X174577191Y-82767065D02*
G01*
X174233026Y-82767065D01*
X174037517Y-82733131D01*
X173920211Y-82639597D01*
X173881110Y-82486462D01*
X173903395Y-82354494D01*
X173970251Y-82265546D01*
X174085167Y-82214967D01*
X174251630Y-82198108D01*
X174577191Y-82198108D01*
X174577191Y-82767065D01*
G37*
G36*
X174577191Y-83704993D02*
G01*
X174178766Y-83704993D01*
X174032457Y-83685420D01*
X173922192Y-83626703D01*
X173829950Y-83410437D01*
X173865607Y-83237665D01*
X173972577Y-83132762D01*
X174150861Y-83095728D01*
X174577191Y-83095728D01*
X174577191Y-83704993D01*
G37*
G36*
X162601178Y-82875586D02*
G01*
X162226007Y-82875586D01*
X162070590Y-82853300D01*
X161954706Y-82786444D01*
X161882617Y-82680443D01*
X161858588Y-82540723D01*
X161881261Y-82398096D01*
X161949280Y-82289575D01*
X162064195Y-82220975D01*
X162227557Y-82198108D01*
X162601178Y-82198108D01*
X162601178Y-82875586D01*
G37*
G36*
X149881024Y-82875586D02*
G01*
X149505853Y-82875586D01*
X149350436Y-82853300D01*
X149234552Y-82786444D01*
X149162463Y-82680443D01*
X149138434Y-82540723D01*
X149161107Y-82398096D01*
X149229126Y-82289575D01*
X149344041Y-82220975D01*
X149507404Y-82198108D01*
X149881024Y-82198108D01*
X149881024Y-82875586D01*
G37*
G36*
X151897955Y-83236804D02*
G01*
X151333649Y-83236804D01*
X151617352Y-82391895D01*
X151897955Y-83236804D01*
G37*
G36*
X164649115Y-82906592D02*
G01*
X164233636Y-82906592D01*
X164071049Y-82884888D01*
X163952258Y-82819775D01*
X163879588Y-82714355D01*
X163855365Y-82571729D01*
X163879782Y-82421738D01*
X163953033Y-82303528D01*
X164069305Y-82226013D01*
X164222784Y-82198108D01*
X164649115Y-82198108D01*
X164649115Y-82906592D01*
G37*
G36*
X147854791Y-83704993D02*
G01*
X147629999Y-83704993D01*
X147389316Y-83660422D01*
X147212970Y-83526709D01*
X147132527Y-83390800D01*
X147083434Y-83220785D01*
X147065692Y-83016663D01*
X147065692Y-82897290D01*
X147081540Y-82686364D01*
X147129082Y-82512473D01*
X147208319Y-82375616D01*
X147383890Y-82242485D01*
X147625348Y-82198108D01*
X147854791Y-82198108D01*
X147854791Y-83704993D01*
G37*
G36*
X144718893Y-82950000D02*
G01*
X145932945Y-81128923D01*
X179767055Y-81128923D01*
X180981107Y-82950000D01*
X179767055Y-84771077D01*
X145932945Y-84771077D01*
X144754033Y-83002710D01*
X146594403Y-83002710D01*
X146608786Y-83204765D01*
X146651936Y-83391317D01*
X146723853Y-83562366D01*
X146821952Y-83713433D01*
X146943650Y-83840040D01*
X147088947Y-83942188D01*
X147252761Y-84017291D01*
X147430011Y-84062766D01*
X147620697Y-84078613D01*
X148319879Y-84078613D01*
X148588080Y-84078613D01*
X149087274Y-84078613D01*
X149510504Y-83252307D01*
X149881024Y-83252307D01*
X149881024Y-84078613D01*
X150346112Y-84078613D01*
X150556952Y-84078613D01*
X151051495Y-84078613D01*
X151208075Y-83613525D01*
X152023529Y-83613525D01*
X152178558Y-84078613D01*
X152673102Y-84078613D01*
X152117931Y-82587231D01*
X152784723Y-82587231D01*
X153249811Y-82587231D01*
X153288762Y-82398677D01*
X153371509Y-82270197D01*
X153503477Y-82196364D01*
X153690094Y-82171753D01*
X153893376Y-82213417D01*
X154038135Y-82338409D01*
X154102644Y-82469926D01*
X154142177Y-82642267D01*
X154156732Y-82855432D01*
X154156732Y-83025964D01*
X154144416Y-83248001D01*
X154107467Y-83426284D01*
X154045886Y-83560815D01*
X153903065Y-83687552D01*
X153696295Y-83729797D01*
X153508128Y-83705186D01*
X153374609Y-83631354D01*
X153291087Y-83505974D01*
X153252911Y-83326721D01*
X152787823Y-83326721D01*
X152829423Y-83552375D01*
X152919082Y-83743578D01*
X153056799Y-83900330D01*
X153235686Y-84016602D01*
X153448851Y-84086365D01*
X153696295Y-84109619D01*
X153901757Y-84091355D01*
X154084062Y-84036562D01*
X154243209Y-83945240D01*
X154379199Y-83817389D01*
X154488059Y-83657660D01*
X154560577Y-83483301D01*
X155665167Y-83483301D01*
X155689800Y-83664599D01*
X155763697Y-83817820D01*
X155886859Y-83942963D01*
X156051707Y-84035550D01*
X156250661Y-84091102D01*
X156483722Y-84109619D01*
X156732544Y-84085783D01*
X156958112Y-84014276D01*
X157146666Y-83901299D01*
X157284448Y-83753052D01*
X157368745Y-83573993D01*
X157381151Y-83483301D01*
X157616986Y-83483301D01*
X157641619Y-83664599D01*
X157715516Y-83817820D01*
X157838678Y-83942963D01*
X158003526Y-84035550D01*
X158202480Y-84091102D01*
X158435541Y-84109619D01*
X158684363Y-84085783D01*
X158706981Y-84078613D01*
X159526947Y-84078613D01*
X161040033Y-84078613D01*
X161308234Y-84078613D01*
X161807428Y-84078613D01*
X162230658Y-83252307D01*
X162601178Y-83252307D01*
X162601178Y-84078613D01*
X163066266Y-84078613D01*
X163066266Y-82568628D01*
X163385626Y-82568628D01*
X163410862Y-82774214D01*
X163486568Y-82948622D01*
X163612744Y-83091852D01*
X163783535Y-83198219D01*
X163993083Y-83262040D01*
X164241388Y-83283313D01*
X164649115Y-83283313D01*
X164649115Y-84078613D01*
X165114203Y-84078613D01*
X165348297Y-84078613D01*
X165889349Y-84078613D01*
X166323431Y-83287964D01*
X166757513Y-84078613D01*
X167298566Y-84078613D01*
X167403986Y-84078613D01*
X168917072Y-84078613D01*
X168917072Y-82587231D01*
X170010028Y-82587231D01*
X170475116Y-82587231D01*
X170514067Y-82398677D01*
X170596814Y-82270197D01*
X170728783Y-82196364D01*
X170915399Y-82171753D01*
X171118681Y-82213417D01*
X171263440Y-82338409D01*
X171327949Y-82469926D01*
X171367482Y-82642267D01*
X171382037Y-82855432D01*
X171382037Y-83025964D01*
X171369721Y-83248001D01*
X171332772Y-83426284D01*
X171271191Y-83560815D01*
X171128371Y-83687552D01*
X170921600Y-83729797D01*
X170733434Y-83705186D01*
X170599915Y-83631354D01*
X170516393Y-83505974D01*
X170478217Y-83326721D01*
X170013129Y-83326721D01*
X170054728Y-83552375D01*
X170144387Y-83743578D01*
X170282104Y-83900330D01*
X170460991Y-84016602D01*
X170674156Y-84086365D01*
X170921600Y-84109619D01*
X171127063Y-84091355D01*
X171309367Y-84036562D01*
X171468515Y-83945240D01*
X171604504Y-83817389D01*
X171713364Y-83657660D01*
X171791121Y-83470705D01*
X171803236Y-83415088D01*
X173364862Y-83415088D01*
X173387944Y-83614559D01*
X173457191Y-83778890D01*
X173572601Y-83908081D01*
X173730731Y-84001443D01*
X173928135Y-84058287D01*
X174164813Y-84078613D01*
X175042279Y-84078613D01*
X175042279Y-83483301D01*
X175356989Y-83483301D01*
X175381621Y-83664599D01*
X175455518Y-83817820D01*
X175578680Y-83942963D01*
X175743528Y-84035550D01*
X175942483Y-84091102D01*
X176175543Y-84109619D01*
X176424365Y-84085783D01*
X176649933Y-84014276D01*
X176838487Y-83901299D01*
X176976270Y-83753052D01*
X177060567Y-83573993D01*
X177088666Y-83368579D01*
X176622028Y-83368579D01*
X176594122Y-83532038D01*
X176510406Y-83648795D01*
X176370880Y-83718848D01*
X176175543Y-83742200D01*
X176027878Y-83725340D01*
X175916644Y-83674762D01*
X175823627Y-83486401D01*
X175905596Y-83308118D01*
X177375470Y-83308118D01*
X177401222Y-83537906D01*
X177478478Y-83733242D01*
X177607239Y-83894128D01*
X177780613Y-84013845D01*
X177991711Y-84085676D01*
X178240533Y-84109619D01*
X178485997Y-84086365D01*
X178695286Y-84016602D01*
X178868402Y-83900330D01*
X178998110Y-83743405D01*
X179077175Y-83551686D01*
X179105597Y-83325171D01*
X179105597Y-81821387D01*
X178640509Y-81821387D01*
X178640509Y-83311218D01*
X178613960Y-83502873D01*
X178534314Y-83634454D01*
X178407771Y-83710612D01*
X178240533Y-83735999D01*
X178068548Y-83710225D01*
X177944815Y-83632904D01*
X177869335Y-83504036D01*
X177842108Y-83323621D01*
X177842108Y-81821387D01*
X177375470Y-81821387D01*
X177375470Y-83308118D01*
X175905596Y-83308118D01*
X175916644Y-83284088D01*
X176046869Y-83211612D01*
X176251508Y-83135260D01*
X176468161Y-83057552D01*
X176634430Y-82981006D01*
X176848026Y-82826493D01*
X176976183Y-82639941D01*
X177018903Y-82421350D01*
X176993129Y-82248299D01*
X176915808Y-82095013D01*
X176790234Y-81967308D01*
X176619702Y-81870996D01*
X176414870Y-81810535D01*
X176186395Y-81790381D01*
X175957727Y-81812279D01*
X175755414Y-81877972D01*
X175587401Y-81983586D01*
X175461633Y-82125244D01*
X175383150Y-82295776D01*
X175356989Y-82488013D01*
X175822076Y-82488013D01*
X175846494Y-82350230D01*
X175919745Y-82246942D01*
X176037180Y-82182411D01*
X176194147Y-82160901D01*
X176345688Y-82178923D01*
X176459247Y-82232990D01*
X176553815Y-82422900D01*
X176442969Y-82607385D01*
X176305962Y-82679474D01*
X176116632Y-82746912D01*
X175875992Y-82832867D01*
X175683239Y-82931569D01*
X175538373Y-83043018D01*
X175402335Y-83241455D01*
X175356989Y-83483301D01*
X175042279Y-83483301D01*
X175042279Y-81821387D01*
X174251630Y-81821387D01*
X173999793Y-81838871D01*
X173792054Y-81891322D01*
X173628412Y-81978741D01*
X173510417Y-82099923D01*
X173439621Y-82253660D01*
X173416022Y-82439954D01*
X173437338Y-82595952D01*
X173501288Y-82732184D01*
X173603220Y-82841673D01*
X173738483Y-82917444D01*
X173583260Y-82982944D01*
X173464856Y-83092627D01*
X173389861Y-83239130D01*
X173364862Y-83415088D01*
X171803236Y-83415088D01*
X171829913Y-83292615D01*
X172174237Y-83292615D01*
X173047052Y-83292615D01*
X173047052Y-82931396D01*
X172174237Y-82931396D01*
X172174237Y-83292615D01*
X171829913Y-83292615D01*
X171837775Y-83256522D01*
X171853326Y-83015112D01*
X171853326Y-82877136D01*
X171840580Y-82668708D01*
X171802339Y-82477505D01*
X171738605Y-82303528D01*
X171599272Y-82084355D01*
X171410718Y-81922931D01*
X171260942Y-81849292D01*
X171095836Y-81805109D01*
X170915399Y-81790381D01*
X170671831Y-81813635D01*
X170462025Y-81883398D01*
X170285980Y-81999670D01*
X170149210Y-82157973D01*
X170057226Y-82353826D01*
X170010028Y-82587231D01*
X168917072Y-82587231D01*
X168917072Y-81821387D01*
X167407086Y-81821387D01*
X167407086Y-82198108D01*
X168451984Y-82198108D01*
X168451984Y-82736060D01*
X167559015Y-82736060D01*
X167559015Y-83100378D01*
X168451984Y-83100378D01*
X168451984Y-83704993D01*
X167403986Y-83704993D01*
X167403986Y-84078613D01*
X167298566Y-84078613D01*
X166624188Y-82940698D01*
X167281512Y-81821387D01*
X166746661Y-81821387D01*
X166323431Y-82599634D01*
X165900201Y-81821387D01*
X165365350Y-81821387D01*
X166022675Y-82940698D01*
X165348297Y-84078613D01*
X165114203Y-84078613D01*
X165114203Y-81821387D01*
X164233636Y-81821387D01*
X163994698Y-81844641D01*
X163786377Y-81914404D01*
X163615651Y-82026994D01*
X163489496Y-82178729D01*
X163411594Y-82361858D01*
X163385626Y-82568628D01*
X163066266Y-82568628D01*
X163066266Y-81821387D01*
X162227557Y-81821387D01*
X161981233Y-81841196D01*
X161775561Y-81900624D01*
X161610541Y-81999670D01*
X161489962Y-82134890D01*
X161417615Y-82302839D01*
X161393500Y-82503516D01*
X161418498Y-82715324D01*
X161493494Y-82888763D01*
X161619261Y-83027321D01*
X161796576Y-83134485D01*
X161308234Y-84056909D01*
X161308234Y-84078613D01*
X161040033Y-84078613D01*
X161040033Y-81821387D01*
X159530048Y-81821387D01*
X159530048Y-82198108D01*
X160574945Y-82198108D01*
X160574945Y-82736060D01*
X159681976Y-82736060D01*
X159681976Y-83100378D01*
X160574945Y-83100378D01*
X160574945Y-83704993D01*
X159526947Y-83704993D01*
X159526947Y-84078613D01*
X158706981Y-84078613D01*
X158909930Y-84014276D01*
X159098485Y-83901299D01*
X159236267Y-83753052D01*
X159320564Y-83573993D01*
X159348663Y-83368579D01*
X158882025Y-83368579D01*
X158854120Y-83532038D01*
X158770404Y-83648795D01*
X158630878Y-83718848D01*
X158435541Y-83742200D01*
X158287875Y-83725340D01*
X158176642Y-83674762D01*
X158083624Y-83486401D01*
X158176642Y-83284088D01*
X158306866Y-83211612D01*
X158511505Y-83135260D01*
X158728159Y-83057552D01*
X158894427Y-82981006D01*
X159108023Y-82826493D01*
X159236181Y-82639941D01*
X159278900Y-82421350D01*
X159253127Y-82248299D01*
X159175806Y-82095013D01*
X159050232Y-81967308D01*
X158879700Y-81870996D01*
X158674867Y-81810535D01*
X158446393Y-81790381D01*
X158217725Y-81812279D01*
X158015411Y-81877972D01*
X157847398Y-81983586D01*
X157721631Y-82125244D01*
X157643147Y-82295776D01*
X157616986Y-82488013D01*
X158082074Y-82488013D01*
X158106491Y-82350230D01*
X158179742Y-82246942D01*
X158297177Y-82182411D01*
X158454144Y-82160901D01*
X158605685Y-82178923D01*
X158719244Y-82232990D01*
X158813812Y-82422900D01*
X158702966Y-82607385D01*
X158565959Y-82679474D01*
X158376630Y-82746912D01*
X158135990Y-82832867D01*
X157943237Y-82931569D01*
X157798370Y-83043018D01*
X157662332Y-83241455D01*
X157616986Y-83483301D01*
X157381151Y-83483301D01*
X157396844Y-83368579D01*
X156930206Y-83368579D01*
X156902301Y-83532038D01*
X156818585Y-83648795D01*
X156679059Y-83718848D01*
X156483722Y-83742200D01*
X156336057Y-83725340D01*
X156224823Y-83674762D01*
X156131805Y-83486401D01*
X156224823Y-83284088D01*
X156355048Y-83211612D01*
X156559686Y-83135260D01*
X156776340Y-83057552D01*
X156942609Y-82981006D01*
X157156205Y-82826493D01*
X157284362Y-82639941D01*
X157327081Y-82421350D01*
X157301308Y-82248299D01*
X157223987Y-82095013D01*
X157098413Y-81967308D01*
X156927881Y-81870996D01*
X156723048Y-81810535D01*
X156494574Y-81790381D01*
X156265906Y-81812279D01*
X156063593Y-81877972D01*
X155895580Y-81983586D01*
X155769812Y-82125244D01*
X155691328Y-82295776D01*
X155665167Y-82488013D01*
X156130255Y-82488013D01*
X156154672Y-82350230D01*
X156227924Y-82246942D01*
X156345358Y-82182411D01*
X156502325Y-82160901D01*
X156653867Y-82178923D01*
X156767426Y-82232990D01*
X156861993Y-82422900D01*
X156751147Y-82607385D01*
X156614140Y-82679474D01*
X156424811Y-82746912D01*
X156184171Y-82832867D01*
X155991418Y-82931569D01*
X155846552Y-83043018D01*
X155710513Y-83241455D01*
X155665167Y-83483301D01*
X154560577Y-83483301D01*
X154565816Y-83470705D01*
X154612470Y-83256522D01*
X154628021Y-83015112D01*
X154628021Y-82877136D01*
X154615274Y-82668708D01*
X154577034Y-82477505D01*
X154513300Y-82303528D01*
X154373967Y-82084355D01*
X154185413Y-81922931D01*
X154035637Y-81849292D01*
X153870531Y-81805109D01*
X153690094Y-81790381D01*
X153446526Y-81813635D01*
X153236719Y-81883398D01*
X153060675Y-81999670D01*
X152923905Y-82157973D01*
X152831921Y-82353826D01*
X152784723Y-82587231D01*
X152117931Y-82587231D01*
X151832843Y-81821387D01*
X151401862Y-81821387D01*
X150556952Y-84078613D01*
X150346112Y-84078613D01*
X150346112Y-81821387D01*
X149507404Y-81821387D01*
X149261079Y-81841196D01*
X149055407Y-81900624D01*
X148890387Y-81999670D01*
X148769809Y-82134890D01*
X148697462Y-82302839D01*
X148673346Y-82503516D01*
X148698344Y-82715324D01*
X148773340Y-82888763D01*
X148899107Y-83027321D01*
X149076422Y-83134485D01*
X148588080Y-84056909D01*
X148588080Y-84078613D01*
X148319879Y-84078613D01*
X148319879Y-81821387D01*
X147625348Y-81821387D01*
X147433887Y-81836287D01*
X147256378Y-81880987D01*
X147092822Y-81955487D01*
X146947698Y-82057462D01*
X146825483Y-82184586D01*
X146726178Y-82336859D01*
X146652970Y-82509200D01*
X146609045Y-82696527D01*
X146594403Y-82898840D01*
X146594403Y-83002710D01*
X144754033Y-83002710D01*
X144718893Y-82950000D01*
G37*
%TO.C,kibuzzard-65DE8B98*%
G36*
X171940891Y-87206282D02*
G01*
X171715789Y-87206282D01*
X171622538Y-87192910D01*
X171553008Y-87152797D01*
X171509755Y-87089196D01*
X171495337Y-87005364D01*
X171508941Y-86919788D01*
X171549752Y-86854675D01*
X171618701Y-86813515D01*
X171716719Y-86799795D01*
X171940891Y-86799795D01*
X171940891Y-87206282D01*
G37*
G36*
X169266532Y-87250000D02*
G01*
X169983181Y-86175027D01*
X172616819Y-86175027D01*
X173333468Y-87250000D01*
X172616819Y-88324973D01*
X169983181Y-88324973D01*
X169718598Y-87928098D01*
X170380056Y-87928098D01*
X170648877Y-87928098D01*
X171165125Y-87928098D01*
X171464641Y-87928098D01*
X171718579Y-87432314D01*
X171940891Y-87432314D01*
X171940891Y-87928098D01*
X172219944Y-87928098D01*
X172219944Y-86573762D01*
X171716719Y-86573762D01*
X171568924Y-86585648D01*
X171445521Y-86621305D01*
X171346509Y-86680732D01*
X171274162Y-86761864D01*
X171230754Y-86862633D01*
X171216284Y-86983040D01*
X171231283Y-87110125D01*
X171276281Y-87214188D01*
X171351741Y-87297323D01*
X171458130Y-87361621D01*
X171165125Y-87915076D01*
X171165125Y-87928098D01*
X170648877Y-87928098D01*
X170648877Y-86891882D01*
X170969788Y-86991411D01*
X170969788Y-86772820D01*
X170408892Y-86571902D01*
X170380056Y-86571902D01*
X170380056Y-87928098D01*
X169718598Y-87928098D01*
X169266532Y-87250000D01*
G37*
%TD*%
%LPC*%
%TO.C,J2*%
G36*
X190280500Y-88283000D02*
G01*
X190342500Y-88293000D01*
X190402500Y-88309000D01*
X190461500Y-88332000D01*
X190517500Y-88360000D01*
X190570500Y-88395000D01*
X190618500Y-88434000D01*
X190663500Y-88479000D01*
X190702500Y-88527000D01*
X190737500Y-88580000D01*
X190765500Y-88636000D01*
X190788500Y-88695000D01*
X190804500Y-88755000D01*
X190814500Y-88817000D01*
X190817500Y-88880000D01*
X190814500Y-88943000D01*
X190804500Y-89005000D01*
X190788500Y-89065000D01*
X190765500Y-89124000D01*
X190737500Y-89180000D01*
X190702500Y-89233000D01*
X190663500Y-89281000D01*
X190618500Y-89326000D01*
X190570500Y-89365000D01*
X190517500Y-89400000D01*
X190461500Y-89428000D01*
X190402500Y-89451000D01*
X190342500Y-89467000D01*
X190280500Y-89477000D01*
X190217500Y-89480000D01*
X189417500Y-89480000D01*
X189354500Y-89477000D01*
X189292500Y-89467000D01*
X189232500Y-89451000D01*
X189173500Y-89428000D01*
X189117500Y-89400000D01*
X189064500Y-89365000D01*
X189016500Y-89326000D01*
X188971500Y-89281000D01*
X188932500Y-89233000D01*
X188897500Y-89180000D01*
X188869500Y-89124000D01*
X188846500Y-89065000D01*
X188830500Y-89005000D01*
X188820500Y-88943000D01*
X188817500Y-88880000D01*
X188820500Y-88817000D01*
X188830500Y-88755000D01*
X188846500Y-88695000D01*
X188869500Y-88636000D01*
X188897500Y-88580000D01*
X188932500Y-88527000D01*
X188971500Y-88479000D01*
X189016500Y-88434000D01*
X189064500Y-88395000D01*
X189117500Y-88360000D01*
X189173500Y-88332000D01*
X189232500Y-88309000D01*
X189292500Y-88293000D01*
X189354500Y-88283000D01*
X189417500Y-88280000D01*
X190217500Y-88280000D01*
X190280500Y-88283000D01*
G37*
D11*
X190280500Y-88283000D02*
X190342500Y-88293000D01*
X190402500Y-88309000D01*
X190461500Y-88332000D01*
X190517500Y-88360000D01*
X190570500Y-88395000D01*
X190618500Y-88434000D01*
X190663500Y-88479000D01*
X190702500Y-88527000D01*
X190737500Y-88580000D01*
X190765500Y-88636000D01*
X190788500Y-88695000D01*
X190804500Y-88755000D01*
X190814500Y-88817000D01*
X190817500Y-88880000D01*
X190814500Y-88943000D01*
X190804500Y-89005000D01*
X190788500Y-89065000D01*
X190765500Y-89124000D01*
X190737500Y-89180000D01*
X190702500Y-89233000D01*
X190663500Y-89281000D01*
X190618500Y-89326000D01*
X190570500Y-89365000D01*
X190517500Y-89400000D01*
X190461500Y-89428000D01*
X190402500Y-89451000D01*
X190342500Y-89467000D01*
X190280500Y-89477000D01*
X190217500Y-89480000D01*
X189417500Y-89480000D01*
X189354500Y-89477000D01*
X189292500Y-89467000D01*
X189232500Y-89451000D01*
X189173500Y-89428000D01*
X189117500Y-89400000D01*
X189064500Y-89365000D01*
X189016500Y-89326000D01*
X188971500Y-89281000D01*
X188932500Y-89233000D01*
X188897500Y-89180000D01*
X188869500Y-89124000D01*
X188846500Y-89065000D01*
X188830500Y-89005000D01*
X188820500Y-88943000D01*
X188817500Y-88880000D01*
X188820500Y-88817000D01*
X188830500Y-88755000D01*
X188846500Y-88695000D01*
X188869500Y-88636000D01*
X188897500Y-88580000D01*
X188932500Y-88527000D01*
X188971500Y-88479000D01*
X189016500Y-88434000D01*
X189064500Y-88395000D01*
X189117500Y-88360000D01*
X189173500Y-88332000D01*
X189232500Y-88309000D01*
X189292500Y-88293000D01*
X189354500Y-88283000D01*
X189417500Y-88280000D01*
X190217500Y-88280000D01*
X190280500Y-88283000D01*
G36*
X194480500Y-88283000D02*
G01*
X194542500Y-88293000D01*
X194602500Y-88309000D01*
X194661500Y-88332000D01*
X194717500Y-88360000D01*
X194770500Y-88395000D01*
X194818500Y-88434000D01*
X194863500Y-88479000D01*
X194902500Y-88527000D01*
X194937500Y-88580000D01*
X194965500Y-88636000D01*
X194988500Y-88695000D01*
X195004500Y-88755000D01*
X195014500Y-88817000D01*
X195017500Y-88880000D01*
X195014500Y-88943000D01*
X195004500Y-89005000D01*
X194988500Y-89065000D01*
X194965500Y-89124000D01*
X194937500Y-89180000D01*
X194902500Y-89233000D01*
X194863500Y-89281000D01*
X194818500Y-89326000D01*
X194770500Y-89365000D01*
X194717500Y-89400000D01*
X194661500Y-89428000D01*
X194602500Y-89451000D01*
X194542500Y-89467000D01*
X194480500Y-89477000D01*
X194417500Y-89480000D01*
X193217500Y-89480000D01*
X193154500Y-89477000D01*
X193092500Y-89467000D01*
X193032500Y-89451000D01*
X192973500Y-89428000D01*
X192917500Y-89400000D01*
X192864500Y-89365000D01*
X192816500Y-89326000D01*
X192771500Y-89281000D01*
X192732500Y-89233000D01*
X192697500Y-89180000D01*
X192669500Y-89124000D01*
X192646500Y-89065000D01*
X192630500Y-89005000D01*
X192620500Y-88943000D01*
X192617500Y-88880000D01*
X192620500Y-88817000D01*
X192630500Y-88755000D01*
X192646500Y-88695000D01*
X192669500Y-88636000D01*
X192697500Y-88580000D01*
X192732500Y-88527000D01*
X192771500Y-88479000D01*
X192816500Y-88434000D01*
X192864500Y-88395000D01*
X192917500Y-88360000D01*
X192973500Y-88332000D01*
X193032500Y-88309000D01*
X193092500Y-88293000D01*
X193154500Y-88283000D01*
X193217500Y-88280000D01*
X194417500Y-88280000D01*
X194480500Y-88283000D01*
G37*
X194480500Y-88283000D02*
X194542500Y-88293000D01*
X194602500Y-88309000D01*
X194661500Y-88332000D01*
X194717500Y-88360000D01*
X194770500Y-88395000D01*
X194818500Y-88434000D01*
X194863500Y-88479000D01*
X194902500Y-88527000D01*
X194937500Y-88580000D01*
X194965500Y-88636000D01*
X194988500Y-88695000D01*
X195004500Y-88755000D01*
X195014500Y-88817000D01*
X195017500Y-88880000D01*
X195014500Y-88943000D01*
X195004500Y-89005000D01*
X194988500Y-89065000D01*
X194965500Y-89124000D01*
X194937500Y-89180000D01*
X194902500Y-89233000D01*
X194863500Y-89281000D01*
X194818500Y-89326000D01*
X194770500Y-89365000D01*
X194717500Y-89400000D01*
X194661500Y-89428000D01*
X194602500Y-89451000D01*
X194542500Y-89467000D01*
X194480500Y-89477000D01*
X194417500Y-89480000D01*
X193217500Y-89480000D01*
X193154500Y-89477000D01*
X193092500Y-89467000D01*
X193032500Y-89451000D01*
X192973500Y-89428000D01*
X192917500Y-89400000D01*
X192864500Y-89365000D01*
X192816500Y-89326000D01*
X192771500Y-89281000D01*
X192732500Y-89233000D01*
X192697500Y-89180000D01*
X192669500Y-89124000D01*
X192646500Y-89065000D01*
X192630500Y-89005000D01*
X192620500Y-88943000D01*
X192617500Y-88880000D01*
X192620500Y-88817000D01*
X192630500Y-88755000D01*
X192646500Y-88695000D01*
X192669500Y-88636000D01*
X192697500Y-88580000D01*
X192732500Y-88527000D01*
X192771500Y-88479000D01*
X192816500Y-88434000D01*
X192864500Y-88395000D01*
X192917500Y-88360000D01*
X192973500Y-88332000D01*
X193032500Y-88309000D01*
X193092500Y-88293000D01*
X193154500Y-88283000D01*
X193217500Y-88280000D01*
X194417500Y-88280000D01*
X194480500Y-88283000D01*
G36*
X194480500Y-99523000D02*
G01*
X194542500Y-99533000D01*
X194602500Y-99549000D01*
X194661500Y-99572000D01*
X194717500Y-99600000D01*
X194770500Y-99635000D01*
X194818500Y-99674000D01*
X194863500Y-99719000D01*
X194902500Y-99767000D01*
X194937500Y-99820000D01*
X194965500Y-99876000D01*
X194988500Y-99935000D01*
X195004500Y-99995000D01*
X195014500Y-100057000D01*
X195017500Y-100120000D01*
X195014500Y-100183000D01*
X195004500Y-100245000D01*
X194988500Y-100305000D01*
X194965500Y-100364000D01*
X194937500Y-100420000D01*
X194902500Y-100473000D01*
X194863500Y-100521000D01*
X194818500Y-100566000D01*
X194770500Y-100605000D01*
X194717500Y-100640000D01*
X194661500Y-100668000D01*
X194602500Y-100691000D01*
X194542500Y-100707000D01*
X194480500Y-100717000D01*
X194417500Y-100720000D01*
X193217500Y-100720000D01*
X193154500Y-100717000D01*
X193092500Y-100707000D01*
X193032500Y-100691000D01*
X192973500Y-100668000D01*
X192917500Y-100640000D01*
X192864500Y-100605000D01*
X192816500Y-100566000D01*
X192771500Y-100521000D01*
X192732500Y-100473000D01*
X192697500Y-100420000D01*
X192669500Y-100364000D01*
X192646500Y-100305000D01*
X192630500Y-100245000D01*
X192620500Y-100183000D01*
X192617500Y-100120000D01*
X192620500Y-100057000D01*
X192630500Y-99995000D01*
X192646500Y-99935000D01*
X192669500Y-99876000D01*
X192697500Y-99820000D01*
X192732500Y-99767000D01*
X192771500Y-99719000D01*
X192816500Y-99674000D01*
X192864500Y-99635000D01*
X192917500Y-99600000D01*
X192973500Y-99572000D01*
X193032500Y-99549000D01*
X193092500Y-99533000D01*
X193154500Y-99523000D01*
X193217500Y-99520000D01*
X194417500Y-99520000D01*
X194480500Y-99523000D01*
G37*
X194480500Y-99523000D02*
X194542500Y-99533000D01*
X194602500Y-99549000D01*
X194661500Y-99572000D01*
X194717500Y-99600000D01*
X194770500Y-99635000D01*
X194818500Y-99674000D01*
X194863500Y-99719000D01*
X194902500Y-99767000D01*
X194937500Y-99820000D01*
X194965500Y-99876000D01*
X194988500Y-99935000D01*
X195004500Y-99995000D01*
X195014500Y-100057000D01*
X195017500Y-100120000D01*
X195014500Y-100183000D01*
X195004500Y-100245000D01*
X194988500Y-100305000D01*
X194965500Y-100364000D01*
X194937500Y-100420000D01*
X194902500Y-100473000D01*
X194863500Y-100521000D01*
X194818500Y-100566000D01*
X194770500Y-100605000D01*
X194717500Y-100640000D01*
X194661500Y-100668000D01*
X194602500Y-100691000D01*
X194542500Y-100707000D01*
X194480500Y-100717000D01*
X194417500Y-100720000D01*
X193217500Y-100720000D01*
X193154500Y-100717000D01*
X193092500Y-100707000D01*
X193032500Y-100691000D01*
X192973500Y-100668000D01*
X192917500Y-100640000D01*
X192864500Y-100605000D01*
X192816500Y-100566000D01*
X192771500Y-100521000D01*
X192732500Y-100473000D01*
X192697500Y-100420000D01*
X192669500Y-100364000D01*
X192646500Y-100305000D01*
X192630500Y-100245000D01*
X192620500Y-100183000D01*
X192617500Y-100120000D01*
X192620500Y-100057000D01*
X192630500Y-99995000D01*
X192646500Y-99935000D01*
X192669500Y-99876000D01*
X192697500Y-99820000D01*
X192732500Y-99767000D01*
X192771500Y-99719000D01*
X192816500Y-99674000D01*
X192864500Y-99635000D01*
X192917500Y-99600000D01*
X192973500Y-99572000D01*
X193032500Y-99549000D01*
X193092500Y-99533000D01*
X193154500Y-99523000D01*
X193217500Y-99520000D01*
X194417500Y-99520000D01*
X194480500Y-99523000D01*
G36*
X190280500Y-99523000D02*
G01*
X190342500Y-99533000D01*
X190402500Y-99549000D01*
X190461500Y-99572000D01*
X190517500Y-99600000D01*
X190570500Y-99635000D01*
X190618500Y-99674000D01*
X190663500Y-99719000D01*
X190702500Y-99767000D01*
X190737500Y-99820000D01*
X190765500Y-99876000D01*
X190788500Y-99935000D01*
X190804500Y-99995000D01*
X190814500Y-100057000D01*
X190817500Y-100120000D01*
X190814500Y-100183000D01*
X190804500Y-100245000D01*
X190788500Y-100305000D01*
X190765500Y-100364000D01*
X190737500Y-100420000D01*
X190702500Y-100473000D01*
X190663500Y-100521000D01*
X190618500Y-100566000D01*
X190570500Y-100605000D01*
X190517500Y-100640000D01*
X190461500Y-100668000D01*
X190402500Y-100691000D01*
X190342500Y-100707000D01*
X190280500Y-100717000D01*
X190217500Y-100720000D01*
X189417500Y-100720000D01*
X189354500Y-100717000D01*
X189292500Y-100707000D01*
X189232500Y-100691000D01*
X189173500Y-100668000D01*
X189117500Y-100640000D01*
X189064500Y-100605000D01*
X189016500Y-100566000D01*
X188971500Y-100521000D01*
X188932500Y-100473000D01*
X188897500Y-100420000D01*
X188869500Y-100364000D01*
X188846500Y-100305000D01*
X188830500Y-100245000D01*
X188820500Y-100183000D01*
X188817500Y-100120000D01*
X188820500Y-100057000D01*
X188830500Y-99995000D01*
X188846500Y-99935000D01*
X188869500Y-99876000D01*
X188897500Y-99820000D01*
X188932500Y-99767000D01*
X188971500Y-99719000D01*
X189016500Y-99674000D01*
X189064500Y-99635000D01*
X189117500Y-99600000D01*
X189173500Y-99572000D01*
X189232500Y-99549000D01*
X189292500Y-99533000D01*
X189354500Y-99523000D01*
X189417500Y-99520000D01*
X190217500Y-99520000D01*
X190280500Y-99523000D01*
G37*
X190280500Y-99523000D02*
X190342500Y-99533000D01*
X190402500Y-99549000D01*
X190461500Y-99572000D01*
X190517500Y-99600000D01*
X190570500Y-99635000D01*
X190618500Y-99674000D01*
X190663500Y-99719000D01*
X190702500Y-99767000D01*
X190737500Y-99820000D01*
X190765500Y-99876000D01*
X190788500Y-99935000D01*
X190804500Y-99995000D01*
X190814500Y-100057000D01*
X190817500Y-100120000D01*
X190814500Y-100183000D01*
X190804500Y-100245000D01*
X190788500Y-100305000D01*
X190765500Y-100364000D01*
X190737500Y-100420000D01*
X190702500Y-100473000D01*
X190663500Y-100521000D01*
X190618500Y-100566000D01*
X190570500Y-100605000D01*
X190517500Y-100640000D01*
X190461500Y-100668000D01*
X190402500Y-100691000D01*
X190342500Y-100707000D01*
X190280500Y-100717000D01*
X190217500Y-100720000D01*
X189417500Y-100720000D01*
X189354500Y-100717000D01*
X189292500Y-100707000D01*
X189232500Y-100691000D01*
X189173500Y-100668000D01*
X189117500Y-100640000D01*
X189064500Y-100605000D01*
X189016500Y-100566000D01*
X188971500Y-100521000D01*
X188932500Y-100473000D01*
X188897500Y-100420000D01*
X188869500Y-100364000D01*
X188846500Y-100305000D01*
X188830500Y-100245000D01*
X188820500Y-100183000D01*
X188817500Y-100120000D01*
X188820500Y-100057000D01*
X188830500Y-99995000D01*
X188846500Y-99935000D01*
X188869500Y-99876000D01*
X188897500Y-99820000D01*
X188932500Y-99767000D01*
X188971500Y-99719000D01*
X189016500Y-99674000D01*
X189064500Y-99635000D01*
X189117500Y-99600000D01*
X189173500Y-99572000D01*
X189232500Y-99549000D01*
X189292500Y-99533000D01*
X189354500Y-99523000D01*
X189417500Y-99520000D01*
X190217500Y-99520000D01*
X190280500Y-99523000D01*
%TD*%
M02*
