%TF.GenerationSoftware,KiCad,Pcbnew,6.0.11+dfsg-1*%
%TF.CreationDate,2024-02-27T20:54:29-05:00*%
%TF.ProjectId,usb-c-expresscard,7573622d-632d-4657-9870-726573736361,rev?*%
%TF.SameCoordinates,Original*%
%TF.FileFunction,Soldermask,Top*%
%TF.FilePolarity,Negative*%
%FSLAX46Y46*%
G04 Gerber Fmt 4.6, Leading zero omitted, Abs format (unit mm)*
G04 Created by KiCad (PCBNEW 6.0.11+dfsg-1) date 2024-02-27 20:54:29*
%MOMM*%
%LPD*%
G01*
G04 APERTURE LIST*
G04 Aperture macros list*
%AMRoundRect*
0 Rectangle with rounded corners*
0 $1 Rounding radius*
0 $2 $3 $4 $5 $6 $7 $8 $9 X,Y pos of 4 corners*
0 Add a 4 corners polygon primitive as box body*
4,1,4,$2,$3,$4,$5,$6,$7,$8,$9,$2,$3,0*
0 Add four circle primitives for the rounded corners*
1,1,$1+$1,$2,$3*
1,1,$1+$1,$4,$5*
1,1,$1+$1,$6,$7*
1,1,$1+$1,$8,$9*
0 Add four rect primitives between the rounded corners*
20,1,$1+$1,$2,$3,$4,$5,0*
20,1,$1+$1,$4,$5,$6,$7,0*
20,1,$1+$1,$6,$7,$8,$9,0*
20,1,$1+$1,$8,$9,$2,$3,0*%
%AMFreePoly0*
4,1,5,1.000760,-0.248920,-1.000760,-0.248920,-1.000760,0.248920,1.000760,0.248920,1.000760,-0.248920,1.000760,-0.248920,$1*%
%AMFreePoly1*
4,1,5,1.000760,-0.248158,-1.000760,-0.248158,-1.000760,0.249682,1.000760,0.249682,1.000760,-0.248158,1.000760,-0.248158,$1*%
%AMFreePoly2*
4,1,5,1.000760,-0.249936,-1.000760,-0.249936,-1.000760,0.247904,1.000760,0.247904,1.000760,-0.249936,1.000760,-0.249936,$1*%
%AMFreePoly3*
4,1,5,1.000760,-0.249174,-1.000760,-0.249174,-1.000760,0.248666,1.000760,0.248666,1.000760,-0.249174,1.000760,-0.249174,$1*%
%AMFreePoly4*
4,1,5,1.000760,-0.248412,-1.000760,-0.248412,-1.000760,0.249428,1.000760,0.249428,1.000760,-0.248412,1.000760,-0.248412,$1*%
%AMFreePoly5*
4,1,5,1.000760,-0.247650,-1.000760,-0.247650,-1.000760,0.250190,1.000760,0.250190,1.000760,-0.247650,1.000760,-0.247650,$1*%
%AMFreePoly6*
4,1,5,1.000760,-0.249428,-1.000760,-0.249428,-1.000760,0.248412,1.000760,0.248412,1.000760,-0.249428,1.000760,-0.249428,$1*%
%AMFreePoly7*
4,1,5,1.000760,-0.248666,-1.000760,-0.248666,-1.000760,0.249174,1.000760,0.249174,1.000760,-0.248666,1.000760,-0.248666,$1*%
%AMFreePoly8*
4,1,5,1.000760,-0.247904,-1.000760,-0.247904,-1.000760,0.249936,1.000760,0.249936,1.000760,-0.247904,1.000760,-0.247904,$1*%
%AMFreePoly9*
4,1,5,1.000760,-0.249682,-1.000760,-0.249682,-1.000760,0.248158,1.000760,0.248158,1.000760,-0.249682,1.000760,-0.249682,$1*%
G04 Aperture macros list end*
%ADD10C,0.010000*%
%ADD11R,2.700000X2.700000*%
%ADD12RoundRect,0.087500X0.087500X0.325000X-0.087500X0.325000X-0.087500X-0.325000X0.087500X-0.325000X0*%
%ADD13RoundRect,0.087500X0.325000X0.087500X-0.325000X0.087500X-0.325000X-0.087500X0.325000X-0.087500X0*%
%ADD14RoundRect,0.237500X-0.237500X0.300000X-0.237500X-0.300000X0.237500X-0.300000X0.237500X0.300000X0*%
%ADD15RoundRect,0.237500X0.250000X0.237500X-0.250000X0.237500X-0.250000X-0.237500X0.250000X-0.237500X0*%
%ADD16RoundRect,0.237500X-0.237500X0.250000X-0.237500X-0.250000X0.237500X-0.250000X0.237500X0.250000X0*%
%ADD17R,0.900000X2.000000*%
%ADD18R,0.500126X0.279908*%
%ADD19RoundRect,0.076200X0.550000X-0.150000X0.550000X0.150000X-0.550000X0.150000X-0.550000X-0.150000X0*%
%ADD20RoundRect,0.076200X0.550000X-0.300000X0.550000X0.300000X-0.550000X0.300000X-0.550000X-0.300000X0*%
%ADD21C,2.000000*%
%ADD22R,2.600000X8.200000*%
%ADD23RoundRect,0.250000X1.025000X-0.875000X1.025000X0.875000X-1.025000X0.875000X-1.025000X-0.875000X0*%
%ADD24RoundRect,0.237500X0.237500X-0.250000X0.237500X0.250000X-0.237500X0.250000X-0.237500X-0.250000X0*%
%ADD25FreePoly0,180.000000*%
%ADD26FreePoly1,180.000000*%
%ADD27FreePoly2,180.000000*%
%ADD28FreePoly3,180.000000*%
%ADD29FreePoly4,180.000000*%
%ADD30FreePoly5,180.000000*%
%ADD31FreePoly6,180.000000*%
%ADD32FreePoly7,180.000000*%
%ADD33FreePoly8,180.000000*%
%ADD34FreePoly9,180.000000*%
G04 APERTURE END LIST*
%TO.C,J2*%
G36*
X190280500Y-88283000D02*
G01*
X190342500Y-88293000D01*
X190402500Y-88309000D01*
X190461500Y-88332000D01*
X190517500Y-88360000D01*
X190570500Y-88395000D01*
X190618500Y-88434000D01*
X190663500Y-88479000D01*
X190702500Y-88527000D01*
X190737500Y-88580000D01*
X190765500Y-88636000D01*
X190788500Y-88695000D01*
X190804500Y-88755000D01*
X190814500Y-88817000D01*
X190817500Y-88880000D01*
X190814500Y-88943000D01*
X190804500Y-89005000D01*
X190788500Y-89065000D01*
X190765500Y-89124000D01*
X190737500Y-89180000D01*
X190702500Y-89233000D01*
X190663500Y-89281000D01*
X190618500Y-89326000D01*
X190570500Y-89365000D01*
X190517500Y-89400000D01*
X190461500Y-89428000D01*
X190402500Y-89451000D01*
X190342500Y-89467000D01*
X190280500Y-89477000D01*
X190217500Y-89480000D01*
X189417500Y-89480000D01*
X189354500Y-89477000D01*
X189292500Y-89467000D01*
X189232500Y-89451000D01*
X189173500Y-89428000D01*
X189117500Y-89400000D01*
X189064500Y-89365000D01*
X189016500Y-89326000D01*
X188971500Y-89281000D01*
X188932500Y-89233000D01*
X188897500Y-89180000D01*
X188869500Y-89124000D01*
X188846500Y-89065000D01*
X188830500Y-89005000D01*
X188820500Y-88943000D01*
X188817500Y-88880000D01*
X188820500Y-88817000D01*
X188830500Y-88755000D01*
X188846500Y-88695000D01*
X188869500Y-88636000D01*
X188897500Y-88580000D01*
X188932500Y-88527000D01*
X188971500Y-88479000D01*
X189016500Y-88434000D01*
X189064500Y-88395000D01*
X189117500Y-88360000D01*
X189173500Y-88332000D01*
X189232500Y-88309000D01*
X189292500Y-88293000D01*
X189354500Y-88283000D01*
X189417500Y-88280000D01*
X190217500Y-88280000D01*
X190280500Y-88283000D01*
G37*
D10*
X190280500Y-88283000D02*
X190342500Y-88293000D01*
X190402500Y-88309000D01*
X190461500Y-88332000D01*
X190517500Y-88360000D01*
X190570500Y-88395000D01*
X190618500Y-88434000D01*
X190663500Y-88479000D01*
X190702500Y-88527000D01*
X190737500Y-88580000D01*
X190765500Y-88636000D01*
X190788500Y-88695000D01*
X190804500Y-88755000D01*
X190814500Y-88817000D01*
X190817500Y-88880000D01*
X190814500Y-88943000D01*
X190804500Y-89005000D01*
X190788500Y-89065000D01*
X190765500Y-89124000D01*
X190737500Y-89180000D01*
X190702500Y-89233000D01*
X190663500Y-89281000D01*
X190618500Y-89326000D01*
X190570500Y-89365000D01*
X190517500Y-89400000D01*
X190461500Y-89428000D01*
X190402500Y-89451000D01*
X190342500Y-89467000D01*
X190280500Y-89477000D01*
X190217500Y-89480000D01*
X189417500Y-89480000D01*
X189354500Y-89477000D01*
X189292500Y-89467000D01*
X189232500Y-89451000D01*
X189173500Y-89428000D01*
X189117500Y-89400000D01*
X189064500Y-89365000D01*
X189016500Y-89326000D01*
X188971500Y-89281000D01*
X188932500Y-89233000D01*
X188897500Y-89180000D01*
X188869500Y-89124000D01*
X188846500Y-89065000D01*
X188830500Y-89005000D01*
X188820500Y-88943000D01*
X188817500Y-88880000D01*
X188820500Y-88817000D01*
X188830500Y-88755000D01*
X188846500Y-88695000D01*
X188869500Y-88636000D01*
X188897500Y-88580000D01*
X188932500Y-88527000D01*
X188971500Y-88479000D01*
X189016500Y-88434000D01*
X189064500Y-88395000D01*
X189117500Y-88360000D01*
X189173500Y-88332000D01*
X189232500Y-88309000D01*
X189292500Y-88293000D01*
X189354500Y-88283000D01*
X189417500Y-88280000D01*
X190217500Y-88280000D01*
X190280500Y-88283000D01*
G36*
X194480500Y-99523000D02*
G01*
X194542500Y-99533000D01*
X194602500Y-99549000D01*
X194661500Y-99572000D01*
X194717500Y-99600000D01*
X194770500Y-99635000D01*
X194818500Y-99674000D01*
X194863500Y-99719000D01*
X194902500Y-99767000D01*
X194937500Y-99820000D01*
X194965500Y-99876000D01*
X194988500Y-99935000D01*
X195004500Y-99995000D01*
X195014500Y-100057000D01*
X195017500Y-100120000D01*
X195014500Y-100183000D01*
X195004500Y-100245000D01*
X194988500Y-100305000D01*
X194965500Y-100364000D01*
X194937500Y-100420000D01*
X194902500Y-100473000D01*
X194863500Y-100521000D01*
X194818500Y-100566000D01*
X194770500Y-100605000D01*
X194717500Y-100640000D01*
X194661500Y-100668000D01*
X194602500Y-100691000D01*
X194542500Y-100707000D01*
X194480500Y-100717000D01*
X194417500Y-100720000D01*
X193217500Y-100720000D01*
X193154500Y-100717000D01*
X193092500Y-100707000D01*
X193032500Y-100691000D01*
X192973500Y-100668000D01*
X192917500Y-100640000D01*
X192864500Y-100605000D01*
X192816500Y-100566000D01*
X192771500Y-100521000D01*
X192732500Y-100473000D01*
X192697500Y-100420000D01*
X192669500Y-100364000D01*
X192646500Y-100305000D01*
X192630500Y-100245000D01*
X192620500Y-100183000D01*
X192617500Y-100120000D01*
X192620500Y-100057000D01*
X192630500Y-99995000D01*
X192646500Y-99935000D01*
X192669500Y-99876000D01*
X192697500Y-99820000D01*
X192732500Y-99767000D01*
X192771500Y-99719000D01*
X192816500Y-99674000D01*
X192864500Y-99635000D01*
X192917500Y-99600000D01*
X192973500Y-99572000D01*
X193032500Y-99549000D01*
X193092500Y-99533000D01*
X193154500Y-99523000D01*
X193217500Y-99520000D01*
X194417500Y-99520000D01*
X194480500Y-99523000D01*
G37*
X194480500Y-99523000D02*
X194542500Y-99533000D01*
X194602500Y-99549000D01*
X194661500Y-99572000D01*
X194717500Y-99600000D01*
X194770500Y-99635000D01*
X194818500Y-99674000D01*
X194863500Y-99719000D01*
X194902500Y-99767000D01*
X194937500Y-99820000D01*
X194965500Y-99876000D01*
X194988500Y-99935000D01*
X195004500Y-99995000D01*
X195014500Y-100057000D01*
X195017500Y-100120000D01*
X195014500Y-100183000D01*
X195004500Y-100245000D01*
X194988500Y-100305000D01*
X194965500Y-100364000D01*
X194937500Y-100420000D01*
X194902500Y-100473000D01*
X194863500Y-100521000D01*
X194818500Y-100566000D01*
X194770500Y-100605000D01*
X194717500Y-100640000D01*
X194661500Y-100668000D01*
X194602500Y-100691000D01*
X194542500Y-100707000D01*
X194480500Y-100717000D01*
X194417500Y-100720000D01*
X193217500Y-100720000D01*
X193154500Y-100717000D01*
X193092500Y-100707000D01*
X193032500Y-100691000D01*
X192973500Y-100668000D01*
X192917500Y-100640000D01*
X192864500Y-100605000D01*
X192816500Y-100566000D01*
X192771500Y-100521000D01*
X192732500Y-100473000D01*
X192697500Y-100420000D01*
X192669500Y-100364000D01*
X192646500Y-100305000D01*
X192630500Y-100245000D01*
X192620500Y-100183000D01*
X192617500Y-100120000D01*
X192620500Y-100057000D01*
X192630500Y-99995000D01*
X192646500Y-99935000D01*
X192669500Y-99876000D01*
X192697500Y-99820000D01*
X192732500Y-99767000D01*
X192771500Y-99719000D01*
X192816500Y-99674000D01*
X192864500Y-99635000D01*
X192917500Y-99600000D01*
X192973500Y-99572000D01*
X193032500Y-99549000D01*
X193092500Y-99533000D01*
X193154500Y-99523000D01*
X193217500Y-99520000D01*
X194417500Y-99520000D01*
X194480500Y-99523000D01*
G36*
X194480500Y-88283000D02*
G01*
X194542500Y-88293000D01*
X194602500Y-88309000D01*
X194661500Y-88332000D01*
X194717500Y-88360000D01*
X194770500Y-88395000D01*
X194818500Y-88434000D01*
X194863500Y-88479000D01*
X194902500Y-88527000D01*
X194937500Y-88580000D01*
X194965500Y-88636000D01*
X194988500Y-88695000D01*
X195004500Y-88755000D01*
X195014500Y-88817000D01*
X195017500Y-88880000D01*
X195014500Y-88943000D01*
X195004500Y-89005000D01*
X194988500Y-89065000D01*
X194965500Y-89124000D01*
X194937500Y-89180000D01*
X194902500Y-89233000D01*
X194863500Y-89281000D01*
X194818500Y-89326000D01*
X194770500Y-89365000D01*
X194717500Y-89400000D01*
X194661500Y-89428000D01*
X194602500Y-89451000D01*
X194542500Y-89467000D01*
X194480500Y-89477000D01*
X194417500Y-89480000D01*
X193217500Y-89480000D01*
X193154500Y-89477000D01*
X193092500Y-89467000D01*
X193032500Y-89451000D01*
X192973500Y-89428000D01*
X192917500Y-89400000D01*
X192864500Y-89365000D01*
X192816500Y-89326000D01*
X192771500Y-89281000D01*
X192732500Y-89233000D01*
X192697500Y-89180000D01*
X192669500Y-89124000D01*
X192646500Y-89065000D01*
X192630500Y-89005000D01*
X192620500Y-88943000D01*
X192617500Y-88880000D01*
X192620500Y-88817000D01*
X192630500Y-88755000D01*
X192646500Y-88695000D01*
X192669500Y-88636000D01*
X192697500Y-88580000D01*
X192732500Y-88527000D01*
X192771500Y-88479000D01*
X192816500Y-88434000D01*
X192864500Y-88395000D01*
X192917500Y-88360000D01*
X192973500Y-88332000D01*
X193032500Y-88309000D01*
X193092500Y-88293000D01*
X193154500Y-88283000D01*
X193217500Y-88280000D01*
X194417500Y-88280000D01*
X194480500Y-88283000D01*
G37*
X194480500Y-88283000D02*
X194542500Y-88293000D01*
X194602500Y-88309000D01*
X194661500Y-88332000D01*
X194717500Y-88360000D01*
X194770500Y-88395000D01*
X194818500Y-88434000D01*
X194863500Y-88479000D01*
X194902500Y-88527000D01*
X194937500Y-88580000D01*
X194965500Y-88636000D01*
X194988500Y-88695000D01*
X195004500Y-88755000D01*
X195014500Y-88817000D01*
X195017500Y-88880000D01*
X195014500Y-88943000D01*
X195004500Y-89005000D01*
X194988500Y-89065000D01*
X194965500Y-89124000D01*
X194937500Y-89180000D01*
X194902500Y-89233000D01*
X194863500Y-89281000D01*
X194818500Y-89326000D01*
X194770500Y-89365000D01*
X194717500Y-89400000D01*
X194661500Y-89428000D01*
X194602500Y-89451000D01*
X194542500Y-89467000D01*
X194480500Y-89477000D01*
X194417500Y-89480000D01*
X193217500Y-89480000D01*
X193154500Y-89477000D01*
X193092500Y-89467000D01*
X193032500Y-89451000D01*
X192973500Y-89428000D01*
X192917500Y-89400000D01*
X192864500Y-89365000D01*
X192816500Y-89326000D01*
X192771500Y-89281000D01*
X192732500Y-89233000D01*
X192697500Y-89180000D01*
X192669500Y-89124000D01*
X192646500Y-89065000D01*
X192630500Y-89005000D01*
X192620500Y-88943000D01*
X192617500Y-88880000D01*
X192620500Y-88817000D01*
X192630500Y-88755000D01*
X192646500Y-88695000D01*
X192669500Y-88636000D01*
X192697500Y-88580000D01*
X192732500Y-88527000D01*
X192771500Y-88479000D01*
X192816500Y-88434000D01*
X192864500Y-88395000D01*
X192917500Y-88360000D01*
X192973500Y-88332000D01*
X193032500Y-88309000D01*
X193092500Y-88293000D01*
X193154500Y-88283000D01*
X193217500Y-88280000D01*
X194417500Y-88280000D01*
X194480500Y-88283000D01*
G36*
X190280500Y-99523000D02*
G01*
X190342500Y-99533000D01*
X190402500Y-99549000D01*
X190461500Y-99572000D01*
X190517500Y-99600000D01*
X190570500Y-99635000D01*
X190618500Y-99674000D01*
X190663500Y-99719000D01*
X190702500Y-99767000D01*
X190737500Y-99820000D01*
X190765500Y-99876000D01*
X190788500Y-99935000D01*
X190804500Y-99995000D01*
X190814500Y-100057000D01*
X190817500Y-100120000D01*
X190814500Y-100183000D01*
X190804500Y-100245000D01*
X190788500Y-100305000D01*
X190765500Y-100364000D01*
X190737500Y-100420000D01*
X190702500Y-100473000D01*
X190663500Y-100521000D01*
X190618500Y-100566000D01*
X190570500Y-100605000D01*
X190517500Y-100640000D01*
X190461500Y-100668000D01*
X190402500Y-100691000D01*
X190342500Y-100707000D01*
X190280500Y-100717000D01*
X190217500Y-100720000D01*
X189417500Y-100720000D01*
X189354500Y-100717000D01*
X189292500Y-100707000D01*
X189232500Y-100691000D01*
X189173500Y-100668000D01*
X189117500Y-100640000D01*
X189064500Y-100605000D01*
X189016500Y-100566000D01*
X188971500Y-100521000D01*
X188932500Y-100473000D01*
X188897500Y-100420000D01*
X188869500Y-100364000D01*
X188846500Y-100305000D01*
X188830500Y-100245000D01*
X188820500Y-100183000D01*
X188817500Y-100120000D01*
X188820500Y-100057000D01*
X188830500Y-99995000D01*
X188846500Y-99935000D01*
X188869500Y-99876000D01*
X188897500Y-99820000D01*
X188932500Y-99767000D01*
X188971500Y-99719000D01*
X189016500Y-99674000D01*
X189064500Y-99635000D01*
X189117500Y-99600000D01*
X189173500Y-99572000D01*
X189232500Y-99549000D01*
X189292500Y-99533000D01*
X189354500Y-99523000D01*
X189417500Y-99520000D01*
X190217500Y-99520000D01*
X190280500Y-99523000D01*
G37*
X190280500Y-99523000D02*
X190342500Y-99533000D01*
X190402500Y-99549000D01*
X190461500Y-99572000D01*
X190517500Y-99600000D01*
X190570500Y-99635000D01*
X190618500Y-99674000D01*
X190663500Y-99719000D01*
X190702500Y-99767000D01*
X190737500Y-99820000D01*
X190765500Y-99876000D01*
X190788500Y-99935000D01*
X190804500Y-99995000D01*
X190814500Y-100057000D01*
X190817500Y-100120000D01*
X190814500Y-100183000D01*
X190804500Y-100245000D01*
X190788500Y-100305000D01*
X190765500Y-100364000D01*
X190737500Y-100420000D01*
X190702500Y-100473000D01*
X190663500Y-100521000D01*
X190618500Y-100566000D01*
X190570500Y-100605000D01*
X190517500Y-100640000D01*
X190461500Y-100668000D01*
X190402500Y-100691000D01*
X190342500Y-100707000D01*
X190280500Y-100717000D01*
X190217500Y-100720000D01*
X189417500Y-100720000D01*
X189354500Y-100717000D01*
X189292500Y-100707000D01*
X189232500Y-100691000D01*
X189173500Y-100668000D01*
X189117500Y-100640000D01*
X189064500Y-100605000D01*
X189016500Y-100566000D01*
X188971500Y-100521000D01*
X188932500Y-100473000D01*
X188897500Y-100420000D01*
X188869500Y-100364000D01*
X188846500Y-100305000D01*
X188830500Y-100245000D01*
X188820500Y-100183000D01*
X188817500Y-100120000D01*
X188820500Y-100057000D01*
X188830500Y-99995000D01*
X188846500Y-99935000D01*
X188869500Y-99876000D01*
X188897500Y-99820000D01*
X188932500Y-99767000D01*
X188971500Y-99719000D01*
X189016500Y-99674000D01*
X189064500Y-99635000D01*
X189117500Y-99600000D01*
X189173500Y-99572000D01*
X189232500Y-99549000D01*
X189292500Y-99533000D01*
X189354500Y-99523000D01*
X189417500Y-99520000D01*
X190217500Y-99520000D01*
X190280500Y-99523000D01*
%TD*%
D11*
%TO.C,U1*%
X162500000Y-97000000D03*
D12*
X163475000Y-98962500D03*
X162825000Y-98962500D03*
X162175000Y-98962500D03*
X161525000Y-98962500D03*
D13*
X160537500Y-97975000D03*
X160537500Y-97325000D03*
X160537500Y-96675000D03*
X160537500Y-96025000D03*
D12*
X161525000Y-95037500D03*
X162175000Y-95037500D03*
X162825000Y-95037500D03*
X163475000Y-95037500D03*
D13*
X164462500Y-96025000D03*
X164462500Y-96675000D03*
X164462500Y-97325000D03*
X164462500Y-97975000D03*
%TD*%
D14*
%TO.C,C3*%
X168250000Y-102862500D03*
X168250000Y-101137500D03*
%TD*%
D15*
%TO.C,R2*%
X146175000Y-100750000D03*
X148000000Y-100750000D03*
%TD*%
D16*
%TO.C,R5*%
X178000000Y-100250000D03*
X178000000Y-98425000D03*
%TD*%
D14*
%TO.C,C1*%
X154500000Y-95612500D03*
X154500000Y-93887500D03*
%TD*%
D17*
%TO.C,U2*%
X180500000Y-93750000D03*
D18*
X181458723Y-92500000D03*
X181458723Y-92999999D03*
X181458723Y-93500000D03*
X181458723Y-94000000D03*
X181458723Y-94500001D03*
X181458723Y-95000000D03*
X179541277Y-95000000D03*
X179541277Y-94500001D03*
X179541277Y-94000000D03*
X179541277Y-93500000D03*
X179541277Y-92999999D03*
X179541277Y-92500000D03*
%TD*%
D19*
%TO.C,J2*%
X188582691Y-96250382D03*
X188582691Y-95250382D03*
X188582691Y-93750382D03*
X188582691Y-92750382D03*
D20*
X188582691Y-92100382D03*
X188582691Y-91300382D03*
D19*
X188582691Y-93250382D03*
X188582691Y-94250382D03*
X188582691Y-94750382D03*
X188582691Y-95750382D03*
D20*
X188582691Y-96900382D03*
X188582691Y-97700382D03*
%TD*%
D14*
%TO.C,C2*%
X157000000Y-95612500D03*
X157000000Y-93887500D03*
%TD*%
D21*
%TO.C,VBUS*%
X185000000Y-89000000D03*
%TD*%
D15*
%TO.C,R1*%
X146175000Y-98000000D03*
X148000000Y-98000000D03*
%TD*%
D16*
%TO.C,R6*%
X181000000Y-100250000D03*
X181000000Y-98425000D03*
%TD*%
D22*
%TO.C,L1*%
X157950000Y-88000000D03*
X163550000Y-88000000D03*
%TD*%
D23*
%TO.C,C5*%
X173750000Y-91800000D03*
X173750000Y-98200000D03*
%TD*%
D21*
%TO.C,3V3*%
X149300000Y-91500000D03*
%TD*%
%TO.C,GND*%
X149500000Y-84500000D03*
%TD*%
D23*
%TO.C,C4*%
X168500000Y-91850000D03*
X168500000Y-98250000D03*
%TD*%
D24*
%TO.C,R4*%
X161065000Y-101087500D03*
X161065000Y-102912500D03*
%TD*%
D16*
%TO.C,R3*%
X164500000Y-102912500D03*
X164500000Y-101087500D03*
%TD*%
D25*
%TO.C,J1*%
X142500000Y-106500000D03*
D26*
X142500000Y-105499240D03*
D27*
X142500000Y-104501020D03*
D28*
X142500000Y-103500260D03*
D29*
X142500000Y-102499500D03*
D30*
X142500000Y-101498740D03*
D31*
X142500000Y-100500520D03*
D32*
X142500000Y-99499760D03*
D33*
X142500000Y-98499000D03*
D34*
X142500000Y-97500780D03*
D25*
X142500000Y-96500020D03*
D26*
X142500000Y-95499260D03*
D27*
X142500000Y-94501040D03*
D28*
X142500000Y-93500280D03*
D29*
X142500000Y-92499520D03*
D30*
X142500000Y-91498760D03*
D31*
X142500000Y-90500540D03*
D32*
X142500000Y-89499780D03*
D33*
X142500000Y-88499020D03*
D34*
X142500000Y-87500800D03*
D25*
X142500000Y-86500040D03*
D26*
X142500000Y-85499280D03*
D27*
X142500000Y-84501060D03*
D28*
X142500000Y-83500300D03*
D29*
X142500000Y-82499540D03*
D30*
X142500000Y-81498780D03*
%TD*%
D21*
%TO.C,5V*%
X178000000Y-89000000D03*
%TD*%
M02*
