M48
; DRILL file {KiCad 6.0.11+dfsg-1} date Tue 27 Feb 2024 08:54:50 PM EST
; FORMAT={-:-/ absolute / metric / decimal}
; #@! TF.CreationDate,2024-02-27T20:54:50-05:00
; #@! TF.GenerationSoftware,Kicad,Pcbnew,6.0.11+dfsg-1
; #@! TF.FileFunction,Plated,1,2,PTH
FMAT,2
METRIC
; #@! TA.AperFunction,Plated,PTH,ViaDrill
T1C0.400
; #@! TA.AperFunction,Plated,PTH,ComponentDrill
T2C0.600
%
G90
G05
T1
X144.5Y-81.5
X144.5Y-87.5
X144.5Y-103.5
X144.5Y-106.5
X149.5Y-86.5
X159.5Y-96.037
X159.5Y-101.0
X161.9Y-96.2
X161.9Y-97.6
X163.0Y-93.75
X163.0Y-96.2
X163.0Y-97.6
X170.0Y-89.5
X170.0Y-103.0
X175.0Y-89.5
X178.0Y-94.0
X179.5Y-100.5
X180.5Y-93.9
X183.0Y-93.5
X183.288Y-95.038
X184.308Y-95.4
X184.74Y-91.76
X186.206Y-95.393
X186.25Y-97.25
X186.267Y-94.396
X187.0Y-98.5
X187.0Y-100.5
X187.5Y-89.5
X191.4Y-85.6
T2
X189.417Y-88.88G85X190.218Y-88.88
G05
X189.417Y-100.12G85X190.218Y-100.12
G05
X193.218Y-88.88G85X194.417Y-88.88
G05
X193.218Y-100.12G85X194.417Y-100.12
G05
T0
M30
